<svg xmlns="http://www.w3.org/2000/svg" xmlns:xlink="http://www.w3.org/1999/xlink" viewBox="0 0 549.24 369.7"><defs><style>.cls-1{fill:none;}.cls-2{clip-path:url(#clip-path);}.cls-3{fill:#aae6d0;}.cls-4{fill:#b4e9d5;}.cls-5{fill:#010a38;}.cls-6{fill:#1e264e;}</style><clipPath id="clip-path" transform="translate(-6.88 53.92)"><rect class="cls-1" width="510.18" height="334.67"/></clipPath></defs><g id="图层_2" data-name="图层 2"><g id="OBJECTS"><g class="cls-2"><path class="cls-3" d="M158.55-26.46S111-1.57,120.48,65.06s103.1,43.41,129.59,64.43S225.18,220.28,341.59,284s214.53-46.13,214.53-46.13l-19-260.65Z" transform="translate(-6.88 53.92)"/><path class="cls-4" d="M357,302.28c.63.14.44-.11.54-.13C356.44,302,357,302.34,357,302.28Z" transform="translate(-6.88 53.92)"/><path class="cls-4" d="M346.45,300.45l.21,0c-.53-.06-1.05-.15-1.57-.22Z" transform="translate(-6.88 53.92)"/><path class="cls-4" d="M336.91,297.49c.79.62,3.44,1.15,5.11,1.75l.26.16.85-.06A55.59,55.59,0,0,1,336.91,297.49Z" transform="translate(-6.88 53.92)"/><path class="cls-4" d="M332.21,294.91c.25.25-1.12-.3,1.13.49l-.19-.12Z" transform="translate(-6.88 53.92)"/><path class="cls-4" d="M333.15,295.28c1,.37-.6-.35,0,0Z" transform="translate(-6.88 53.92)"/><path class="cls-4" d="M328.64,293.53,330,294c-.23-.19-1.34-.7-.9-.57C327.73,292.9,328,293.09,328.64,293.53Z" transform="translate(-6.88 53.92)"/><path class="cls-4" d="M327.34,293.25l.68.24A1.32,1.32,0,0,0,327.34,293.25Z" transform="translate(-6.88 53.92)"/><path class="cls-4" d="M329.45,294l-1.43-.5c.16.13.13.24.65.24C328.52,293.77,328.83,293.8,329.45,294Z" transform="translate(-6.88 53.92)"/><path class="cls-4" d="M330.22,294.38c.68.38,1.6.77.26.39C333,295.67,332.69,295.32,330.22,294.38Z" transform="translate(-6.88 53.92)"/><path class="cls-4" d="M336.31,297.68l.95.43.89.17A18.91,18.91,0,0,0,336.31,297.68Z" transform="translate(-6.88 53.92)"/><path class="cls-4" d="M320.94,289.74c-.11,0,.33.38.38.51l.95.37A6.46,6.46,0,0,1,320.94,289.74Z" transform="translate(-6.88 53.92)"/><path class="cls-4" d="M321.32,290.25c-.48-.18-1-.36-1.42-.57C321.09,290.33,321.36,290.36,321.32,290.25Z" transform="translate(-6.88 53.92)"/><polygon class="cls-4" points="320.08 347.43 322.49 348.18 319.63 347.24 320.08 347.43"/><path class="cls-4" d="M315.83,287l.84.26c-.49-.17-1-.32-1.47-.51C315.41,286.81,315.61,286.91,315.83,287Z" transform="translate(-6.88 53.92)"/><path class="cls-4" d="M312.49,285c.63.21-.62-.65,0-.39-.92-.51-1.75-.85-2.48-1.21A25.52,25.52,0,0,1,312.49,285Z" transform="translate(-6.88 53.92)"/><path class="cls-4" d="M308.8,282.84c.38.2.78.39,1.22.6A11.48,11.48,0,0,0,308.8,282.84Z" transform="translate(-6.88 53.92)"/><path class="cls-4" d="M317.63,288.41a3.52,3.52,0,0,0-1-.76l.43.47Z" transform="translate(-6.88 53.92)"/><path class="cls-4" d="M317.11,288.14v0L316,287.5Z" transform="translate(-6.88 53.92)"/><path class="cls-4" d="M317.76,288.49l-.13-.08A.17.17,0,0,0,317.76,288.49Z" transform="translate(-6.88 53.92)"/><path class="cls-4" d="M323.39,291.65c-.86-.28-2.6-1-1.05,0C323,291.77,322.1,291.22,323.39,291.65Z" transform="translate(-6.88 53.92)"/><path class="cls-4" d="M318.29,289.08l1.4.81c0-.06-.22-.28.2-.12Z" transform="translate(-6.88 53.92)"/><polygon class="cls-4" points="310.68 342.68 311.41 343 310.89 342.69 310.68 342.68"/><path class="cls-4" d="M311,284.51a14.66,14.66,0,0,1-2-1.17,26.28,26.28,0,0,0,2.33,1.56C311.48,284.91,311.88,285,311,284.51Z" transform="translate(-6.88 53.92)"/><path class="cls-4" d="M314,286.32l-.14-.07C313.89,286.32,314,286.36,314,286.32Z" transform="translate(-6.88 53.92)"/><polygon class="cls-4" points="295.12 332.43 295.2 332.54 295.25 332.53 295.12 332.43"/><path class="cls-4" d="M311.44,285a5.72,5.72,0,0,0,1.34.71c-.46-.25-.94-.52-1.45-.82C311.27,284.9,311.25,284.91,311.44,285Z" transform="translate(-6.88 53.92)"/><path class="cls-4" d="M306.76,281.62c.28.24.6.49.95.76A4.63,4.63,0,0,0,306.76,281.62Z" transform="translate(-6.88 53.92)"/><path class="cls-4" d="M313.64,286.08l.1.05C313.56,286,313.58,286,313.64,286.08Z" transform="translate(-6.88 53.92)"/><path class="cls-4" d="M313.64,286.08c-.32-.15-.59-.25-.86-.36.38.2.73.39,1,.53Z" transform="translate(-6.88 53.92)"/><path class="cls-4" d="M299.1,278a9.43,9.43,0,0,1,3,2c1.36.79.91-.34,0-1.42-.08,0-.15.13-1.5-.76.36.46,2.74,2.29,1.53,1.66a7.13,7.13,0,0,1-2.13-1.81c.55.74-2.36-1.39-2.22-.82l1.56,1.06C299.31,278,298.72,277.67,299.1,278Z" transform="translate(-6.88 53.92)"/><path class="cls-4" d="M304.55,280.42l.55.36a21.29,21.29,0,0,1-1.7-1.55c-.94-.56-1.17-.63-1.27-.62l2.62,1.91Z" transform="translate(-6.88 53.92)"/><path class="cls-4" d="M307.55,282.43c-.54-.1-1.93-.89-1.24-.17a12.3,12.3,0,0,0,2.26,1.16c-2.65-1.67.81.39-1-.95.54.3,1,.6,1.44.87l-1.29-1,.05.05h0c.1.09.12.13,0,0l-.06,0a.23.23,0,0,1-.16,0c-.74-.53-.09-.12.16,0h0c-.89-.55-1.8-1.06-2.66-1.65A25.54,25.54,0,0,0,307.55,282.43Z" transform="translate(-6.88 53.92)"/><path class="cls-4" d="M320.63,291.3c-.08-.06-.07-.07-.07-.09C320.36,291.14,320.28,291.13,320.63,291.3Z" transform="translate(-6.88 53.92)"/><path class="cls-4" d="M319.53,290.6a5.7,5.7,0,0,1,1.08.44c.55.34-.05.09-.05.17.43.15,1.48.55.26-.16l-.21-.07a10.31,10.31,0,0,1-2.19-1.58A5.16,5.16,0,0,0,319.53,290.6Z" transform="translate(-6.88 53.92)"/><path class="cls-4" d="M313.32,286.66l-2.3-1.24,1,.84v-.13C313.32,286.93,313.12,286.64,313.32,286.66Z" transform="translate(-6.88 53.92)"/><path class="cls-4" d="M301.81,278.25l.42,0c-.47-.21-.94-.41-1.4-.64Z" transform="translate(-6.88 53.92)"/><polygon class="cls-4" points="292.25 330.12 292.47 330.04 291.69 329.58 292.25 330.12"/><path class="cls-4" d="M199.8,131.44l-.77-.09Z" transform="translate(-6.88 53.92)"/><path class="cls-4" d="M205.26,132.54l.16-.07C205.15,132.47,205,132.49,205.26,132.54Z" transform="translate(-6.88 53.92)"/><path class="cls-4" d="M254.08,208.09c-.11-1.12-.15-2.39-.33-2.21l-.12.39A14.81,14.81,0,0,1,254.08,208.09Z" transform="translate(-6.88 53.92)"/><path class="cls-4" d="M244.74,151.89l.09.33.51.59Z" transform="translate(-6.88 53.92)"/><path class="cls-4" d="M243.58,151.63l-.6-1.31C243.1,150.63,243.29,151.05,243.58,151.63Z" transform="translate(-6.88 53.92)"/><path class="cls-4" d="M169.71,126.16l-.94,0C170.16,126.48,169.57,126.24,169.71,126.16Z" transform="translate(-6.88 53.92)"/><path class="cls-4" d="M275,251.49c-.5-.82-1-1.44-1.31-2A6.12,6.12,0,0,0,275,251.49Z" transform="translate(-6.88 53.92)"/><path class="cls-4" d="M202.4,129.6c-.47-.06-.68,0-.67,0C202.21,129.66,202.49,129.67,202.4,129.6Z" transform="translate(-6.88 53.92)"/><path class="cls-4" d="M272.11,247.19l.25.45c.42.56.84,1.13,1.32,1.84A10.5,10.5,0,0,0,272.11,247.19Z" transform="translate(-6.88 53.92)"/><path class="cls-4" d="M103.88,49.63l0-.26S103.88,49.46,103.88,49.63Z" transform="translate(-6.88 53.92)"/><path class="cls-4" d="M111.94,18.43c-.12.29-.27.79-.43,1.24C111.61,19.46,111.72,19.08,111.94,18.43Z" transform="translate(-6.88 53.92)"/><path class="cls-4" d="M288.92,267.21c.54.48.1.06,0,0Z" transform="translate(-6.88 53.92)"/><path class="cls-4" d="M290.89,270.22c-.13-.09-.23-.15-.28-.12A.5.5,0,0,1,290.89,270.22Z" transform="translate(-6.88 53.92)"/><path class="cls-4" d="M267.1,241.87l0-.05C267.15,242,267.13,242,267.1,241.87Z" transform="translate(-6.88 53.92)"/><path class="cls-4" d="M289.64,268c-.17-.2-.39-.43-.62-.67C289.11,267.45,289.3,267.66,289.64,268Z" transform="translate(-6.88 53.92)"/><path class="cls-4" d="M289.61,267.84l.44.44C290.14,268.32,290.1,268.25,289.61,267.84Z" transform="translate(-6.88 53.92)"/><path class="cls-4" d="M288.2,266.51l.82.83c-.09-.11-.13-.15-.1-.13C288.76,267.07,288.55,266.87,288.2,266.51Z" transform="translate(-6.88 53.92)"/><path class="cls-4" d="M123.07,105.09,123,105C122.41,104.48,122.65,104.71,123.07,105.09Z" transform="translate(-6.88 53.92)"/><path class="cls-4" d="M248.21,190.07l0,.08v-.08Z" transform="translate(-6.88 53.92)"/><path class="cls-4" d="M247.73,187.49a8.06,8.06,0,0,1,.49,2.56l.51-.94C248.4,188.57,248,188,247.73,187.49Z" transform="translate(-6.88 53.92)"/><path class="cls-4" d="M186.64,129.12l1.76.51c-2.23-.07-3.78-.45-2.14.11.38-.62,7,1.16,7.37.55l1.16.35c-.34-.07-.4,0-.73-.11,2.24.75,1.8-.18,4.74.48,1,.25,1.72.48,1,.43l2.33.28c.66.15.47.23-.19.08l3.51.66h0c.51,0,1.67.09,2.24.14.86.29-.46,0-.25.11l2,.25c.74.35-.89.16-2.21-.15,1.65,1.05,1.64.17,5.41,1.47l-1.83-.34c1.08.65,2.52.83,4.48,1.6-.44-.26-3.92-1.61-1.81-1.26a12.47,12.47,0,0,0,2.49.58c-.06.24,1.06.44,2.4.82l-.18.28a14,14,0,0,0,2.3.26,4,4,0,0,1,2.16,1.2c2.52.92-1.62-1,1.4,0,2.06.87,3.55,1.33,6,2.31,1.35.78-.33.06.13.38.45.12.9.25,1.34.41s.16.18.1.19c1.06.48.25-.27,1.87.59.64-.06,2.9,2.42,4.8,3.61.35.43-.33,0-.29.17a26.62,26.62,0,0,1,2.17,1.75c.47.37.82.74,1.78,1.6.37.63.73,1.25,1.06,1.88-.33-.72-.18-.7.25-.33a16.08,16.08,0,0,1,1.51,1.9,10.5,10.5,0,0,0-.45-1.35,21.38,21.38,0,0,1,1.49,2.54c.09.35-.12.11-.44-.27.12.17.2.34.29.46.28,1-.1.58-.54,0-.08-.35-.18-.69-.26-1-.47-.57-1-1-1.1-.81a4.69,4.69,0,0,1,.52.78c-.13-.14-.22-.23-.21-.13a3.47,3.47,0,0,0,.47.71c0,.25,0,.48,0,.73l.19.08a25.94,25.94,0,0,1,1,3.55,26.72,26.72,0,0,1,2.34,9c-.32-1.05-.44-.2-.76-.25.27-1.19-.34-3.3-.63-5.46.14,1.14-.06.91-.14.63.29,1.27.52,2.56.71,3.87-.26-.07-.13.85-.19,1.88.48-.81.44,2.94.6,4.56-.17.11-.34-.28-.34-2.25-.33,2.18.63,2.81.33,5a3.06,3.06,0,0,0-.07-.94c.15,1.13.08,3.91-.08,3.26v-.49c0,1.62.13,4.08.27,6.2a15.15,15.15,0,0,0,.74,4.08c-.05,0-.54-.37-.65-.56.61,1.88,1.34,3.73,2.07,5.55-.43-.45-1,1.6-1.59-1a20.6,20.6,0,0,0,.45,3.33c0-.53.35-1.38.48-.67a25.33,25.33,0,0,0,.07,3.83c-.06-.79.65,0,.85,1.2-.12-.18-.54.21-.68-.23.36,1,.73,2,1.15,2.93-.27-.73-.5,0-.5.67,0-.33.56,2.63.79,3.42l-.15-1.31a9.61,9.61,0,0,0,1.17,3.28,12.2,12.2,0,0,1,1.27,3.23c-.21-.38-1-.81-.55.91a28.62,28.62,0,0,1,3.55,5.82l0,.6,1,2.13c-.45-.61-1.23-1.8-2-3.09s-1.54-2.73-2.05-3.75a8.75,8.75,0,0,0,.52,2.28c.06.71-.54-1-.73-1.51.43,1.47.83,2.95,1.34,4.39.25-.3,1.5,3.19,1.7,2.92l-2-4.56c.26-.29,1.85,2.4,2.92,5.44.18.81-.8-.36-.87-.26a19.72,19.72,0,0,1,1.39,3.08l-.68-1.21c.59,1.71,1.47,2.58,2.09,4.67.29.68.53,2.21.77,2.24-.16-1.27.83-2,1.42-1.36l.69,2c.34,1,.75,2,.85,2.47.29,1.23-1.47-1.32-1.23-.28.1,0,.51.56.67.79.29.74-.4-.16.41,1.34.43.1,1.55,3.1.62.59.83,1.44.77,1.59,1.74,3.29-.11-.65,1.5,1.17,2.42,2.55-.13,0,0,.33,0,.51.88,1.45,1.53,2.59,2.17,3.69s1.35,2.15,2.23,3.46c.1.29.88,1.62.39,1.16a17.66,17.66,0,0,1,1.23,1.41c.89,1.7-1.34-1.74-.77-.36a24.27,24.27,0,0,1,2.68,2.91c0-.53-1.91-2.59-2.8-3.68.31-.22,2.13,1.46,4.26,4,1.7,2,.49,1.06.82,1.38a21.19,21.19,0,0,0,3.06,3.25,13.86,13.86,0,0,1,2.64,2.76c.89,1.39-.34.42-.25.81a47.13,47.13,0,0,1-3-3.64c.34.49.71.95,1.08,1.43a12.61,12.61,0,0,1-1.94-2.15c.62,1.26,5.46,6.31,8,9.14.53.43,1.45,1.16,1.12.7-.3-.26-.59-.54-.88-.82-.63-.93,1.82,1.39.8.25a34.82,34.82,0,0,1,4.34,3.68l.12.51a7.57,7.57,0,0,0-1.5-1.5c.75.57,2.31,2.64,3.37,3L293.21,272a51,51,0,0,1,4.54,3.32c-.51-.81-.4-.24-1.26-1.44.66,1.14-3.87-3.34-2.67-1.7-.85-1.24-1.79-1.79-2.94-3.36,0,.12.36.6-.83-.58l-.33-.18-.08-.09.06.08,0,0a4.53,4.53,0,0,1,.52.7,12.62,12.62,0,0,1-1.75-1.34c-.66-.58-1.3-1.21-1.66-1.49-.67-.75.37.22.07-.25l-1.08-.84c.07-.25-1.59-2.15.15-.57-.49-.5-1-1-1.46-1.52a24.33,24.33,0,0,0-2.62-3c-.64-.76-1.83-1.74-1.14-1.19l-2.21-2.47,0-.06c-1.05-1.25-2.12-2.55-3.2-3.92-.54-.68-1.09-1.38-1.6-2.12s-1-1.54-1.41-2.37a25.47,25.47,0,0,1-2.31-3.37l0-.41c-.79-1.17-2.09-3.68-2.53-4.13a17,17,0,0,0-1.88-3.88c-.88-1.6-1.81-3.31-2.34-4.43l-.27,0c-.76-1.53-1.46-3-2.45-4.89l-.15.21a18.34,18.34,0,0,1-1.32-3.15c-.42-1.24-.94-2.59-1.43-4a6.15,6.15,0,0,1,.52,1.36,29.62,29.62,0,0,0-1.77-5,24.32,24.32,0,0,1-1.6-4.85,6.59,6.59,0,0,1-.54-1.82l.06.19-.08-.31c-.05-.35-.11-.71-.16-1.09,0,.33.06.65.11.92-.15-.58-.42-1.46-.7-2.31l.14-.43-.06-.2c-.14-.88-.3-.66-.35-.16-.16-.43-.31-.82-.45-1.11.2-.79-.64-2.28-.45-3.32a18.84,18.84,0,0,1-.75-2.45,7.3,7.3,0,0,0-.79-2.34c.05,0,0-.31.11.17a16.51,16.51,0,0,0-.52-2.86l.23-.47-.7-2.11c0-1.35,0-1.91.45-.63-.77-3.11-.5-2.54-1.08-5.21l.21.11a20.8,20.8,0,0,1-.38-3.08c.12-1.1,0-3.78-.08-6.88s0-6.68,0-9.52c-.26.56-.23-.1-.19-.93s0-1.83-.2-1.92c.1-.34.1-1.14.31-.23-.44-2.88-.38-4.42-1.25-6.31.05-.37.37.56.37.25a4.29,4.29,0,0,1-.37-1.21c0-.31.22.39.41.83-.86-2.94-1.49-3-1.92-3.1a6.78,6.78,0,0,0-.64-1.73,4.26,4.26,0,0,0-.91-1.24c-.15-.52-.48-1.37.5.23l-.7-1.27c-.33-.57-.79-1.2-1.21-1.81-.92-1.19-1.87-2.18-2-2.09a5.92,5.92,0,0,0-1.23-1.22c-.87-.79-1.33-1.23-1.83-1.61a21.83,21.83,0,0,0-1.94-1.42l.49.41a3.54,3.54,0,0,1-1.36-.7c-.48-.34-1.06-.75-1.85-1.21h.06a13.27,13.27,0,0,0-2.62-1.48c-.41-.16-.8-.36-2.64-1.33l.11.31c-.54.29-3.27-1.69-5.63-2.24l.78.4c-1.29-.25-3.27-1.8-4.54-2.2-.26-.12.46.05.86.13-3.25-1.22-.52.16-3-.42-.41-.29.7-.27-1-.73-.8-.37-5-.68-7.21-1.5.48.24,1,.48-.23.32-1.78-.35-4.71-1.51-6.4-1.42-.22-.08-.3-.13-.3-.16-1.39-.16-4.47-.68-5.33-.61-1.12-1.05-8.57-1.12-8.4-1.86l-4.21-.7.13-.05a19.11,19.11,0,0,0-4.63-.51c-.61-.16-.15-.15-.09-.18a39.44,39.44,0,0,0-7.62-1.18l-.29-.31c-.92,0-5.55-1.51-9.39-2.16a1,1,0,0,1,.45,0c-4.35-.7-9.92-3.32-11.7-3-.93-.23-1.87-.45-2.8-.7,3.51,1.26-.66.21.75.83-1.42-.41-3.5-1.52-1.78-1l.25.14c.39-.11-.69-.54-1.84-1s-2.34-.94-2.23-1.07A53,53,0,0,1,125.36,105c.09.28.2.54.31.81-.58-.54-1.11-1.13-1.67-1.69-.35-.53-.37-.79.8.42a9.2,9.2,0,0,0-2.14-1.95c-2-2.61,1.16.71.5-.07l-.9-1,.16.27a10.55,10.55,0,0,1-2.22-2.38c-.71-1.08-.21-.67-.49-1.09,0,0-.06-.16-.43-.64-.55-.83-1.08-1.67-1.58-2.53l.38,1.17c-.83-1-1.45-2.42-1-1.06-.32-1-1.67-3.45-2.81-5.9a48.76,48.76,0,0,1-2.31-5.48c-.41-.84-.77-1.7-1.12-2.62a25.69,25.69,0,0,1-1-3c.11.56-.11,1-.63-.92.42.25.23-.64-.06-1.79A14.67,14.67,0,0,1,108.6,72c0,.73-.35-.62-.67-1.88s-.55-2.44-.56-1.3c-.25-1.63.22-.14.15-1.4a42.09,42.09,0,0,1-1-6.31c-.08-1.13-.12-2.3-.2-3.47s-.12-2.38-.17-3.59c-.09-.07-.2.74-.36-.29l.38-2.56c0-.95-.49-.88-.15-2.63-.08.25-.2.62-.21,0a131.31,131.31,0,0,1,1.58-14.36,56.52,56.52,0,0,1,4.08-13.93c-.58,1.17-.31.35,0-.6-.24.6-.2-.08-.35,0,.51-1.24,1.18-2.43,1.77-3.64a7.72,7.72,0,0,1,.8-2.36,7.44,7.44,0,0,0,.81-2.11l-.49,1.18c.39-1.7-1.79,1.82-2.08,1.43a13.47,13.47,0,0,1-1.45,3.37A14.57,14.57,0,0,0,109,21.89c-.32.63,0-.62-.18-.3a15.48,15.48,0,0,1-.89,3.47v-.21c-.72,2.43-1.11,4.19-1.6,6-.26.91-.47,1.85-.69,2.91s-.5,2.23-.72,3.64l.29-.38a15.82,15.82,0,0,1-.42,2c.18,1.44.45-3.4.68-2.08a26.56,26.56,0,0,0-.86,5,19.71,19.71,0,0,1-.64,4.64c0,1.88.29-.54.24,1.34l-.16.49.18.48c0,1.23-.25,1.85-.38,1.9,0-.3,0-.85,0-1.17a37.65,37.65,0,0,0,.06,5.07l0-1.82c.09,1.29.09,2.65.2,4s.24,2.8.35,4.22.4,2.8.59,4.15.54,2.64.83,3.85l0-.39c.43,1.84.59,2.58.73,3.37a32,32,0,0,0,.85,3.63l-.07-.13a22.76,22.76,0,0,1,1,2.9c-.42-1,.33,2-.21.69,1.5,3.84.83,1.88,2.11,4.29l0,.65a16.61,16.61,0,0,1,1.42,2.74c-.81-1.51.26,1.32-.68-.35,1.34,4.2,3.1,5.69,3.53,7.73.73.74.3-.1-.17-1s-1-2-.73-1.49c-.27-.91,1.08,1.3,1.72,2.49s.58,2.41,2.59,5.32c-.2-.29-.24-.29-.44-.58.64,1.17,1.63,2,2.48,3.4.81.52,1.35,1.63,1.82,1.57-.73-.79-1.45-1.59-2.13-2.43,1.21,1.39,2.64,2.39,4.6,4.66a13.91,13.91,0,0,1-1.4-1.07c.54.71,1.24,1.17,1.83,1.87-.5.14-2.88-2.69-4.33-4,.47.86,2.7,2.6,1.71,2.16,1.36.66,2.39,2.58,4.52,3.8l-.27.08c.31.22,1,.62,1.54,1.06l-1.18-.55c1.67,1,2.87,2.46,4.52,3.37-3.26-2.17-.58-.72-1.84-1.79a13.37,13.37,0,0,1,3.12,2.26,11.76,11.76,0,0,0,3.59,2.38c-.68-.29-2.35-1.42-1.3-1,.87.55,2,1.22,2.55,1.62,3.24,1.48-.39-.45,1,.06,1,.78,1.64.63,3.09,1.15l-.08.22c3.69,1.65,1.17,0,4.48,1.41l-1.55-.22,1.81.57-.46.13a34.53,34.53,0,0,1,4.49,1.42c-.4-.3.37-.32,2.08.17,1.12.47-.72,0,1.71.69a4.27,4.27,0,0,1-2.23-.52c-.13,0-.58,0-.72,0a34.15,34.15,0,0,0,4,1.2,7.41,7.41,0,0,1-.93-.33c1.2.25,2.4.44,3.61.64.53.23.07.19-.38.14.72.16,1.24.19,2.29.44-.32.12-.3.33-1.81,0q1.71.34,3.42.63c.21.14,1.69.64,1.23.61,1.85.55,4.69.68,7.16,1.32a5.18,5.18,0,0,1,.94.09,48.85,48.85,0,0,0,7.21,1.39l1.52.64c2.2.31-2.06-.82,1.6-.3,2.59.34.9.46,1.79.72a23.19,23.19,0,0,1,5.91.78C188,129.38,187.37,129.22,186.64,129.12Zm26.73,5.15a6.66,6.66,0,0,1-1.93-.39A3.52,3.52,0,0,1,213.37,134.27Zm32.45,21.47a6.54,6.54,0,0,1-.51-1.57A8.78,8.78,0,0,1,245.82,155.74Zm37.5,106,0,0C282.57,260.72,282.82,261.05,283.32,261.69Zm1.57,1.86c.19.15.21.11.16,0a4.58,4.58,0,0,1-.95-.94A2.68,2.68,0,0,0,284.89,263.55ZM119.49,98.08l.21.42C119,97.67,119.26,97.87,119.49,98.08Z" transform="translate(-6.88 53.92)"/><path class="cls-4" d="M243.72,151.67a.41.41,0,0,1,0-.26C243.59,151.26,243.55,151.28,243.72,151.67Z" transform="translate(-6.88 53.92)"/><path class="cls-4" d="M169.88,126.15l-.08,0-.09,0Z" transform="translate(-6.88 53.92)"/><path class="cls-4" d="M261.55,233.73a5.36,5.36,0,0,1-.33-.93C261.15,232.8,261.21,233,261.55,233.73Z" transform="translate(-6.88 53.92)"/><path class="cls-4" d="M294.48,272.12l-1.22-1a9,9,0,0,1,1,1C294.28,272.06,294.11,271.8,294.48,272.12Z" transform="translate(-6.88 53.92)"/><path class="cls-4" d="M304.25,281.62c.2.11.4.28.6.38v-.12C304.06,281.31,303.46,281,304.25,281.62Z" transform="translate(-6.88 53.92)"/><path class="cls-4" d="M295.06,273.66c0,.24.74.83,1.61,1.5l-.15-.12C296.94,275,296,274.35,295.06,273.66Z" transform="translate(-6.88 53.92)"/><path class="cls-4" d="M296.87,275.31c.28.2.55.41.8.62C297.85,275.92,297.37,275.66,296.87,275.31Z" transform="translate(-6.88 53.92)"/><path class="cls-4" d="M287.14,265.65c.33.41.41.05.56.32C288.29,266.2,285.07,263.73,287.14,265.65Z" transform="translate(-6.88 53.92)"/><polygon class="cls-4" points="288.42 328.67 288.29 328.23 287.69 327.98 288.42 328.67"/><path class="cls-4" d="M289,268.84l1.23,1.25s.19.08.41.26A15.94,15.94,0,0,0,289,268.84Z" transform="translate(-6.88 53.92)"/><path class="cls-4" d="M290.59,270.35a10,10,0,0,0,1.06.93C291.42,271.07,290.94,270.63,290.59,270.35Z" transform="translate(-6.88 53.92)"/><polygon class="cls-4" points="286.55 327.17 286.19 326.79 285.26 325.97 286.55 327.17"/><path class="cls-4" d="M276.32,254.86l-1.2-1.49c-.19-.1.08.35.54.9C276,254.6,276.43,255.15,276.32,254.86Z" transform="translate(-6.88 53.92)"/><path class="cls-4" d="M279.46,259.79a2.9,2.9,0,0,1-.39-.78l-.28.16Z" transform="translate(-6.88 53.92)"/><path class="cls-4" d="M275.85,255.49c-.19-.09-1.88-2.08-.4-.14C275.62,255.47,276.91,256.91,275.85,255.49Z" transform="translate(-6.88 53.92)"/><polygon class="cls-4" points="254.12 284.61 254.32 285.05 254.75 284.77 254.12 284.61"/><path class="cls-4" d="M251.12,207.08c.47,2.25.44.44.83,2.48.25.49-.32-1.67-.07-1.16C251.4,207.1,251.28,206.38,251.12,207.08Z" transform="translate(-6.88 53.92)"/><path class="cls-4" d="M251.88,208.4l.25.66C252,208.68,251.93,208.51,251.88,208.4Z" transform="translate(-6.88 53.92)"/><polygon class="cls-4" points="107.34 67.57 108.05 66.31 107.5 67.08 107.34 67.57"/><path class="cls-4" d="M115.05,11l.44-.16.11-.92A5,5,0,0,1,115.05,11Z" transform="translate(-6.88 53.92)"/><path class="cls-4" d="M217.1,135.91l.13,0a5.13,5.13,0,0,0-1.18-.41Z" transform="translate(-6.88 53.92)"/><polygon class="cls-4" points="191.06 185.33 191.4 185.4 190.82 184.99 191.06 185.33"/><path class="cls-4" d="M181.51,128.86c.67.13,1.47.2,2.14.33C182.18,129,181.4,128.46,181.51,128.86Z" transform="translate(-6.88 53.92)"/><path class="cls-4" d="M513,288.32c.2-.09,0-.23,0-.28C512.74,288.25,513,288.36,513,288.32Z" transform="translate(-6.88 53.92)"/><polygon class="cls-4" points="503.23 344.37 503.25 344.26 502.89 344.7 503.23 344.37"/><path class="cls-4" d="M507.18,292.05c.45.16,1-.64,1.62-.81l.12,0,.1-.38A11.69,11.69,0,0,1,507.18,292.05Z" transform="translate(-6.88 53.92)"/><path class="cls-4" d="M505.27,292.21c.16.08-.28.29.38-.16h-.08A2.67,2.67,0,0,1,505.27,292.21Z" transform="translate(-6.88 53.92)"/><path class="cls-4" d="M505.57,292.06c.3-.18-.26,0,0,0Z" transform="translate(-6.88 53.92)"/><path class="cls-4" d="M504.16,292.86l.36-.31c-.12,0-.5.13-.39,0C503.74,292.83,503.86,292.86,504.16,292.86Z" transform="translate(-6.88 53.92)"/><path class="cls-4" d="M503.89,293.28l.19-.15C504,293.12,504,293.14,503.89,293.28Z" transform="translate(-6.88 53.92)"/><path class="cls-4" d="M504.49,292.81l-.41.32c.09,0,.14.13.19-.13C504.28,293.11,504.33,293,504.49,292.81Z" transform="translate(-6.88 53.92)"/><path class="cls-4" d="M504.77,292.74c.27-.05.59-.15.23.16C505.76,292.45,505.54,292.3,504.77,292.74Z" transform="translate(-6.88 53.92)"/><path class="cls-4" d="M507.21,292.45l.35-.07.21-.25C507.66,292.25,507.13,292.36,507.21,292.45Z" transform="translate(-6.88 53.92)"/><path class="cls-4" d="M501.5,293.94c0,.08.22.12.3.19l.27-.23C501.89,293.93,501.57,294,501.5,293.94Z" transform="translate(-6.88 53.92)"/><path class="cls-4" d="M501.8,294.13l-.4.34C501.81,294.28,501.86,294.19,501.8,294.13Z" transform="translate(-6.88 53.92)"/><polygon class="cls-4" points="497.12 347.59 497.75 346.98 496.97 347.67 497.12 347.59"/><polygon class="cls-4" points="492.86 348.7 493.05 348.41 492.7 348.88 492.86 348.7"/><path class="cls-4" d="M498.59,295.37c.13-.23-.37-.1-.2-.28a3.22,3.22,0,0,0-.72.64A1.93,1.93,0,0,1,498.59,295.37Z" transform="translate(-6.88 53.92)"/><path class="cls-4" d="M497.33,296.07a2.18,2.18,0,0,0,.34-.34A1.82,1.82,0,0,0,497.33,296.07Z" transform="translate(-6.88 53.92)"/><path class="cls-4" d="M500.6,294.81a.59.59,0,0,0-.46,0l.27.11Z" transform="translate(-6.88 53.92)"/><path class="cls-4" d="M500.42,294.9h0l-.39.17Z" transform="translate(-6.88 53.92)"/><path class="cls-4" d="M500.64,294.79l0,0S500.64,294.82,500.64,294.79Z" transform="translate(-6.88 53.92)"/><path class="cls-4" d="M502.7,294.08c-.22.24-.73.63-.1.53C502.73,294.38,502.37,294.44,502.7,294.08Z" transform="translate(-6.88 53.92)"/><path class="cls-4" d="M501,294.92l.51-.19c0-.05-.16-.08-.05-.19Z" transform="translate(-6.88 53.92)"/><polygon class="cls-4" points="493.9 349.02 494.11 348.84 493.92 348.91 493.9 349.02"/><path class="cls-4" d="M498.25,295.85a2.42,2.42,0,0,1-.65.45,8.31,8.31,0,0,0,.87-.35C498.48,295.87,498.55,295.7,498.25,295.85Z" transform="translate(-6.88 53.92)"/><path class="cls-4" d="M499.32,295.41l-.05,0S499.34,295.44,499.32,295.41Z" transform="translate(-6.88 53.92)"/><polygon class="cls-4" points="488.11 351.35 488.17 351.37 488.17 351.33 488.11 351.35"/><path class="cls-4" d="M498.53,296a.69.69,0,0,0,.42-.29,3.57,3.57,0,0,1-.48.28S498.47,296,498.53,296Z" transform="translate(-6.88 53.92)"/><path class="cls-4" d="M496.66,296.5l.41-.06C496.94,296.43,496.67,296.43,496.66,296.5Z" transform="translate(-6.88 53.92)"/><path class="cls-4" d="M499.18,295.42l0,0C499.12,295.39,499.13,295.4,499.18,295.42Z" transform="translate(-6.88 53.92)"/><path class="cls-4" d="M499.18,295.42a1.74,1.74,0,0,0-.23.25,1.65,1.65,0,0,0,.32-.23Z" transform="translate(-6.88 53.92)"/><path class="cls-4" d="M494.74,299c0-.2.45-.61,1-.62.42-.34-.16-.8-.72-1,0,.09.05.16-.4.47.22,0,1.2-.23.85.11-.61.37-.56.17-.92.2.37.12-.7.69-.41,1l.53-.36C494.73,298.88,494.55,299.05,494.74,299Z" transform="translate(-6.88 53.92)"/><path class="cls-4" d="M496,297.07l.19-.1a2.85,2.85,0,0,1-.81,0c-.3.23-.34.32-.34.39l1-.39Z" transform="translate(-6.88 53.92)"/><path class="cls-4" d="M497.1,296.57c-.07.28-.52.56-.13.65.59-.27.34-.36.65-.6-.91.5.23-.24-.51,0a4.45,4.45,0,0,1,.49-.29l-.53.14h0c.06,0,.08,0,0,0h0a.28.28,0,0,1,0,.09c-.29.09-.07,0,0-.09s0,0,0,0h0c-.3.19-.61.35-.91.53A5.86,5.86,0,0,0,497.1,296.57Z" transform="translate(-6.88 53.92)"/><path class="cls-4" d="M502.3,295.27s-.05,0-.05,0S502.18,295.32,502.3,295.27Z" transform="translate(-6.88 53.92)"/><path class="cls-4" d="M501.85,295.34a.6.6,0,0,1,.31-.26c.22,0,0,.1.09.16.11-.12.4-.37-.07-.26l-.05.06c-.42.12-1,.11-1,0A1.58,1.58,0,0,0,501.85,295.34Z" transform="translate(-6.88 53.92)"/><path class="cls-4" d="M499.46,296l-.74.48.48,0-.07-.09C499.6,296.2,499.45,296.13,499.46,296Z" transform="translate(-6.88 53.92)"/><polygon class="cls-4" points="487.98 351.29 487.99 351.04 487.66 351.53 487.98 351.29"/><polygon class="cls-4" points="486.95 351.76 486.91 351.56 486.68 351.78 486.95 351.76"/><path class="cls-4" d="M432.14,314.78l-.26.07A1.51,1.51,0,0,0,432.14,314.78Z" transform="translate(-6.88 53.92)"/><path class="cls-4" d="M434,314.7l0-.1C434,314.66,433.93,314.7,434,314.7Z" transform="translate(-6.88 53.92)"/><path class="cls-4" d="M467.56,306.8c-.41-.09-.88-.27-.78-.06l.16.18A1.38,1.38,0,0,1,467.56,306.8Z" transform="translate(-6.88 53.92)"/><path class="cls-4" d="M449.12,311.87l.11,0,.22-.24Z" transform="translate(-6.88 53.92)"/><path class="cls-4" d="M449,312.79l-.52-.06A2.75,2.75,0,0,0,449,312.79Z" transform="translate(-6.88 53.92)"/><path class="cls-4" d="M421.9,315.32l-.31.22C422.07,315.54,421.86,315.43,421.9,315.32Z" transform="translate(-6.88 53.92)"/><path class="cls-4" d="M483.06,302.13a3.47,3.47,0,0,0-.79.15C482.67,302.26,483,302.33,483.06,302.13Z" transform="translate(-6.88 53.92)"/><path class="cls-4" d="M432.73,312.44q-.23.07-.21.15C432.68,312.54,432.77,312.5,432.73,312.44Z" transform="translate(-6.88 53.92)"/><path class="cls-4" d="M481.39,302.59h.18a3.51,3.51,0,0,1,.7-.3A1.24,1.24,0,0,0,481.39,302.59Z" transform="translate(-6.88 53.92)"/><path class="cls-4" d="M385,311.54l-.08-.05S384.91,311.53,385,311.54Z" transform="translate(-6.88 53.92)"/><path class="cls-4" d="M375,307c.1,0,.27.06.43.09A2.13,2.13,0,0,0,375,307Z" transform="translate(-6.88 53.92)"/><path class="cls-4" d="M489.59,299.51c.22-.1,0,0,0,0Z" transform="translate(-6.88 53.92)"/><path class="cls-4" d="M491,299.86a.14.14,0,0,0-.05.13A.17.17,0,0,1,491,299.86Z" transform="translate(-6.88 53.92)"/><path class="cls-4" d="M479.56,304.65h0C479.62,304.68,479.6,304.67,479.56,304.65Z" transform="translate(-6.88 53.92)"/><path class="cls-4" d="M490,299.46l-.31.06A1.54,1.54,0,0,0,490,299.46Z" transform="translate(-6.88 53.92)"/><path class="cls-4" d="M489.88,299.39l.2-.06C490.09,299.28,490.06,299.27,489.88,299.39Z" transform="translate(-6.88 53.92)"/><path class="cls-4" d="M489.29,299.65l.36-.13s-.07,0-.06,0Z" transform="translate(-6.88 53.92)"/><path class="cls-4" d="M404.71,313.83l0,0C404.41,313.87,404.52,313.86,404.71,313.83Z" transform="translate(-6.88 53.92)"/><polygon class="cls-4" points="455.11 364.4 455.13 364.39 455.1 364.39 455.11 364.4"/><path class="cls-4" d="M461.16,310.81a.91.91,0,0,1,.81-.34l-.42-.56Z" transform="translate(-6.88 53.92)"/><path class="cls-4" d="M427.65,315.07l.62.16c-.73.36-1.27.28-.68.52.06-.68,2.38-.19,2.44-.87l.41.12c-.12,0-.14,0-.25,0,.8.29.56-.52,1.57-.47.36,0,.61.12.38.21l.77-.21c.23,0,.18.12-.05.12l1.2-.11v0a5,5,0,0,1,.72-.38c.31.08-.15.08-.06.16l.65-.2c.28.16-.25.36-.71.36.66.64.53-.18,1.9.07l-.62.15c.43.35.91.16,1.64.33-.18-.11-1.47-.46-.76-.7a1.44,1.44,0,0,0,.84-.15c0,.24.4.14.87.08v.32c.5-.14.45-.3.74-.47a.86.86,0,0,1,.87.4c.92,0-.67-.33.4-.5a5.49,5.49,0,0,0,2.18-.42c.54.06-.07.2.13.28l.44-.31c.11,0,.09.08.07.12.39-.14,0-.32.61-.47.12-.35,1.34.36,2.05-.16.2.06-.06.21,0,.32a7.61,7.61,0,0,0,1.69-.8l.76.1c-.57-.16.08-.54.65-.86a4.26,4.26,0,0,0-.51-.2l.94-.31c.12,0,0,.16-.1.31l.17-.1c.36.06.21.27,0,.49l-.38-.15c-.2.23-.4.48-.32.66a.94.94,0,0,1,.3-.14c0,.06-.08.12,0,.14s.13-.05.27-.16l.28.32,0-.15,1.3,0a10.26,10.26,0,0,1,2.94-1.51c-.31.33,0,.43,0,.74-.44-.23-1.08.32-1.84.37.4,0,.34.13.25.2l1.27-.5c0,.26.31.14.67.17-.34-.44.92-.52,1.43-.78.06.16,0,.35-.69.44.79.23.82-.76,1.58-.59-.16,0-.25,0-.29.13.34-.23,1.27-.29,1.08-.11l-.15,0c1.06-.15,3.21-.64,3.28-1.09a2.13,2.13,0,0,1-.08.63L462.1,309c-.09.39.74,1.11-.09,1.49a2.15,2.15,0,0,0,1.09-.25c-.19,0-.55-.41-.32-.5a5.17,5.17,0,0,0,1.35.24c-.27,0-.12-.64.29-.72-.05.1.16.54,0,.63l.87-.8c-.23.16.06.48.33.58-.13-.09.86-.21,1.12-.33l-.46,0c1.15-.21.92-1.05,2.05-1.31-.11.15-.16.78.43.7a5,5,0,0,1,1.72-2.09l.24.11.7-.37a14.78,14.78,0,0,1-2.07,2.28c.45,0,.17.16.8,0,.26.09-.29.31-.47.37l1.5-.28c-.15-.3,1-.61.9-.88-.49.28-1,.5-1.5.76-.16-.33.68-1.12,1.72-1.4.3.05,0,.64,0,.74a2.3,2.3,0,0,1,1-.46l-.39.3c.61-.05.82-.71,1.6-.61.24-.06.83.19.82,0a1.87,1.87,0,0,1-.74-1.72,10.26,10.26,0,0,1,1.67.07c.48.17-.38.87,0,1,0-.09.17-.26.25-.33.27,0,0,.31.51.1,0-.35,1.11-.31.17-.35.5-.26.59-.11,1.21-.31-.27-.15.32-.89.82-1.14,0,.09.15.16.23.19,1.09-.28,1.7-.39,2.7-.73.12,0,.63,0,.48.17a1.3,1.3,0,0,1,.52-.38c.69.06-.67.29-.1.46,0-.2.7-.55,1.1-.82-.24-.24-1,.31-1.43.59-.14-.4.48-1.09,1.44-1.65.79-.4.45.12.58,0,1.57-.49,1.06-1.17,2.44-1.35.61.07.22.49.4.63a7.06,7.06,0,0,1-1.54.39l.6-.08a1.92,1.92,0,0,1-.88.4c.51.05,2.65-.87,3.9-1.17.18-.17.5-.41.29-.44l-.36.19c-.42-.05.59-.57.08-.46a4.15,4.15,0,0,1,1.65-1l.25.23c-.05-.08-.52,0-.69.19.24-.25,1.23-.07,1.4-.57h-.57a4.62,4.62,0,0,1,1.58-1.08c-.4-.16-.13.09-.7,0,.55.24-1.59.64-.8.81-.61-.19-.85.17-1.57.09.06.09.29.09-.25.27a.66.66,0,0,1-.08.13h0s0,0,0,0a.71.71,0,0,1,.32,0c-.17.33-1,.67-1.24.9s.09-.16-.12-.19l-.35.34c-.12-.2-1-.05-.28-.44l-.66.23a2.72,2.72,0,0,0-1.29.38c-.33.07-.71.52-.5.26l-1,.5,0-.05c-1,.35-2,1.12-3.3,1.16a4.65,4.65,0,0,1-1.26.53l-.18-.15c-.42.23-1.41.24-1.54.5-.65-.35-2.22.56-3,.72l0,.25a10.2,10.2,0,0,0-1.71.69l.11.2a14.32,14.32,0,0,1-2.47.61c0-.1.28-.15.46-.15-1.24-.13-2.27,1-3.38.89a.94.94,0,0,1-.61.16l.06,0-.11,0-.38,0a2.11,2.11,0,0,0,.33,0,4.64,4.64,0,0,0-.77.28l-.18-.2-.06,0c-.31,0-.21.17,0,.31a1.35,1.35,0,0,0-.35.24c-.33-.32-.73.32-1.15,0-.15.25-1.42.52-1.48,1,0-.06-.12-.06,0-.1a1.87,1.87,0,0,0-.94.26l-.2-.27-.63.57c-.47-.1-.68-.17-.3-.48-1,.56-.81.3-1.63.83v-.2c-.32.07-.77.43-1,.31-.79-.23-3.53.65-5.41.68.45.51-.9-.1-.89.34-.14-.12-.4-.15-.13-.32-.91.28-1.44,0-2,.47-.13-.12.17-.23.06-.29s-.27.16-.38.09.11-.13.25-.21c-.95.16-1,.6-1,1a1,1,0,0,0-1.07.26c-.18-.1-.49-.19.1-.33-.34,0-2.07.12-2.06.44a1,1,0,0,0-.56.1c-.75.09-.82.07-1.56.21l.21,0c-.24.44-.6.17-1.2.27l0,0c-1.41-.13-.58.2-2,0l.1.23c-.07.52-1.23-.18-2,.09l.3.11c-.41.22-1.27-.58-1.7-.6-.1,0,.14-.09.26-.13-1.15-.19-.11.33-.95.48-.17-.15.17-.45-.4-.42-.29-.12-1.6.74-2.4.44.18.13.36.25,0,.36-.6.08-1.66-.41-2.18,0-.07,0-.11-.06-.11-.09a7.13,7.13,0,0,0-1.75.49c-.46-.81-2.84.55-2.86-.22l-1.42.11,0-.07a2.44,2.44,0,0,0-1.54.33c-.21-.05-.05-.12,0-.16a4.12,4.12,0,0,0-2.56.26l-.12-.25c-.3.15-1.91-.38-3.2-.09,0,0,0-.08.14-.11a7.48,7.48,0,0,1-2.35-.13c-.76-.13-1.4-.18-1.68.26l-1,.18c1.25.13-.2.38.31.55-.49,0-1.26-.33-.65-.35l.09.05c.24-.46-1.54-.24-1.5-.56-2.45-.09-4.82-.43-7.09-.72l.23.39-.8-.1c-.2-.11-.25-.31.32-.24-.28-.24-1,.08-1,.15-1.1-.25.48-.38.14-.42l-.47,0,.1.05a1.75,1.75,0,0,1-1.12.19c-.42-.12-.2-.25-.37-.28,0,0,0-.05-.26,0l-1-.13.37.33c-.47.1-.95-.11-.52.26a4.93,4.93,0,0,0-2.15-.51,12.49,12.49,0,0,1-2-.33,5.43,5.43,0,0,1-2-.12c.18.09.25.43-.4.29.34-.63-1.16-.47-1.61-1,.42.39-1.87-.2-1.2.36-.54-.14,0-.25-.38-.47-1.35.09-2.82-.67-4.42-.9,0,.08.2.27-.17.33l-.75-.6c-.32,0-.39.44-.9,0,.06.09.16.22-.05.21a35.13,35.13,0,0,0-4.72-1.07,18.1,18.1,0,0,1-4.63-1.58c.38.28.09.22-.23.14.19.1-.06.21-.05.34l-1.23-.66c-.32.26-1.4-.34-1.63-.07l.43.06c-.65.21.55,1,.35,1.43.73-.25,1.48,1,2.65.71.2.15-.23.1-.13.24a1.41,1.41,0,0,1,1.18.14l-.07,0c1.64.35,2.28.78,4.1,1.31l-.09-.26a1.82,1.82,0,0,1,.63.3c.54-.26-1.11-.25-.61-.55.42.58,2.8.58,3.05,1.18.61.13-.13-.3.48-.17l.14.17.19-.15c.39.11.56.33.55.46a1.63,1.63,0,0,0-.39,0,8.12,8.12,0,0,0,1.65.33l-.57-.21c1.7.2,3.7.83,5.39.74l-.11-.13c1.28,0,1,.27,2.36.38l-.06,0a2.77,2.77,0,0,1,1,0c-.37.08.61.35.13.43,1.39,0,.7-.07,1.64-.35l.18.21a1.68,1.68,0,0,1,1.05-.15c-.58.07.4.35-.25.46,1.38.64,2.18-.15,2.77.52.72-.45-1.22-.41-.83-.48-.29-.2.59-.33,1-.23s.71.73,1.87.83c-.12,0-.13,0-.24,0,.42.17.86-.09,1.37.17.33-.28.69.09.81-.3h-1.07a4.14,4.14,0,0,1,2.19-.13,1.92,1.92,0,0,1-.6.19c.28.14.57,0,.86.12-.12.39-1.3,0-2,.2.3.2,1.25-.17.88.23.52-.5,1.14.18,2-.16l-.07.23a2,2,0,0,1,.62-.08l-.44.27c.65-.21,1.21.36,1.83.23-1.28-.06-.27-.29-.79-.51,1.59-.22.86.67,2.64.65-.24,0-.89-.19-.51-.28a3.25,3.25,0,0,1,1,.31c1.18,0-.17-.25.34-.37.38.3.58-.09,1.1-.16v.24c1.33.22.38-.49,1.57-.24l-.52.31.63-.06-.14.27a3,3,0,0,1,1.56,0c-.15-.18.1-.43.69-.41.4.16-.23.22.61.22a.57.57,0,0,1-.77.08c0,.08-.19.15-.23.22a3.85,3.85,0,0,0,1.4.1,1,1,0,0,1-.33-.07c.41-.08.82-.21,1.22-.32.19.1,0,.17-.11.24a6.16,6.16,0,0,1,.78-.16c-.1.2-.08.4-.59.49l1.16-.22c.08.09.59.24.44.31.65.11,1.58-.38,2.43-.23a.7.7,0,0,1,.32-.11,6.34,6.34,0,0,0,2.46,0l.54.35c.75-.08-.73-.44.5-.57.87-.12.33.3.64.39a2.8,2.8,0,0,1,2-.36A4.53,4.53,0,0,1,427.65,315.07Zm9.14-.69c-.17.07-.51.26-.66.13C436.31,314.22,436.48,314.33,436.79,314.38Zm13.72-2.26a.68.68,0,0,1-.56,0A1.27,1.27,0,0,1,450.51,312.12Zm36.7-11.47v0C486.8,300.71,486.94,300.7,487.21,300.65Zm.81-.18c.06-.06,0-.09,0-.11s-.2.14-.41.2C487.69,300.6,487.81,300.6,488,300.47ZM402.31,312l.15.08C402.09,312.07,402.2,312,402.31,312Z" transform="translate(-6.88 53.92)"/><path class="cls-4" d="M449,312.68a.21.21,0,0,1-.1-.11C448.85,312.62,448.85,312.66,449,312.68Z" transform="translate(-6.88 53.92)"/><path class="cls-4" d="M422,315.28h0a.05.05,0,0,0,0,0Z" transform="translate(-6.88 53.92)"/><path class="cls-4" d="M476.72,306.52a.85.85,0,0,1-.35,0C476.38,306.55,476.47,306.58,476.72,306.52Z" transform="translate(-6.88 53.92)"/><path class="cls-4" d="M491.84,298.45l-.46.26a1,1,0,0,1,.46-.11C491.81,298.55,491.69,298.52,491.84,298.45Z" transform="translate(-6.88 53.92)"/><path class="cls-4" d="M496.6,298.07c.06-.06.15-.07.2-.12l-.06-.1C496.44,298,496.27,298.15,496.6,298.07Z" transform="translate(-6.88 53.92)"/><path class="cls-4" d="M492.59,299c.12.17.39,0,.71-.19l-.06,0C493.23,298.53,492.91,298.77,492.59,299Z" transform="translate(-6.88 53.92)"/><path class="cls-4" d="M493.38,298.77l.31-.14C493.68,298.51,493.55,298.66,493.38,298.77Z" transform="translate(-6.88 53.92)"/><path class="cls-4" d="M488.93,300c.18,0,0-.28.12-.24C489.14,299.41,488.11,300.47,488.93,300Z" transform="translate(-6.88 53.92)"/><polygon class="cls-4" points="486.25 353.43 486.03 353.25 485.92 353.51 486.25 353.43"/><path class="cls-4" d="M490.38,300.46l.57-.17s0-.08.11-.14C490.73,300.29,490.34,300.39,490.38,300.46Z" transform="translate(-6.88 53.92)"/><path class="cls-4" d="M491.06,300.15a1.16,1.16,0,0,0,.42-.22A4.41,4.41,0,0,0,491.06,300.15Z" transform="translate(-6.88 53.92)"/><polygon class="cls-4" points="485.54 353.81 485.36 353.82 484.97 353.97 485.54 353.81"/><path class="cls-4" d="M484.48,302.63l-.58.28c0,.11.15.1.37,0S484.6,302.67,484.48,302.63Z" transform="translate(-6.88 53.92)"/><path class="cls-4" d="M486.54,302.61a.59.59,0,0,1-.34-.08l.09.3Z" transform="translate(-6.88 53.92)"/><path class="cls-4" d="M484.8,303.32c0,.1-.79.55,0,.25C484.8,303.47,485.38,303.18,484.8,303.32Z" transform="translate(-6.88 53.92)"/><polygon class="cls-4" points="468.65 359.91 468.8 359.86 468.63 359.38 468.65 359.91"/><path class="cls-4" d="M467.64,309.45c.77-.07.1-.35.8-.37.15-.16-.57,0-.42-.13C467.6,309.19,467.35,309.18,467.64,309.45Z" transform="translate(-6.88 53.92)"/><path class="cls-4" d="M468,309l.21-.13A1,1,0,0,0,468,309Z" transform="translate(-6.88 53.92)"/><polygon class="cls-4" points="366.45 360.18 366.01 359.95 366.27 360.19 366.45 360.18"/><path class="cls-4" d="M372.33,306.39l0-.34-.36.21C372.05,306.27,372.27,306.3,372.33,306.39Z" transform="translate(-6.88 53.92)"/><path class="cls-4" d="M438.2,314.9l0-.08c-.08-.08-.2-.08-.43-.07Z" transform="translate(-6.88 53.92)"/><polygon class="cls-4" points="424.66 369.05 424.77 369.05 424.54 368.77 424.66 369.05"/><path class="cls-4" d="M426,315.77c.23,0,.5-.06.73-.06C426.19,315.8,425.89,315.41,426,315.77Z" transform="translate(-6.88 53.92)"/><path class="cls-5" d="M324.64,184.2c3.66-9.52,6-21.78,4.66-31.93-.43-3.22-1.07-6.16-3.81-8.18-4.25-3.15-11.23-4.25-16.2-5.86-25.87-8.4-52.61-15.58-79.58-19.55-6.54-1.16-16-2.23-16.24,4.26-1.52,3.63-2,7.92-2.63,11.71a151.4,151.4,0,0,0-2.37,18.62c-.56,11.16,6,14.07,15.89,16.29,13.18,3,26.37,5.85,39.55,8.78q20.94,4.65,41.89,9.27C313.19,189.24,321.21,193.12,324.64,184.2Zm-27.6-.3-18.6-4.17-37.21-8.3c-6.2-1.38-12.43-2.67-18.61-4.15-2.76-.66-5.82-1.26-8.22-2.87-4.7-3.16-4.39-8.16-4-13.11.42-5.54,1.22-11.06,2.17-16.54a72.64,72.64,0,0,1,1.86-9.42,19.57,19.57,0,0,1,1.31-3.11l-.31-.13a8.45,8.45,0,0,1,1.44-1.78c4.55-2.2,13.49.11,17.45.34a.67.67,0,0,0,.26,0l6,1.27a4.55,4.55,0,0,0-.43,1.37,5.83,5.83,0,0,0-.05,2c.08.45.82.42.81-.05a12.54,12.54,0,0,1,.06-1.74c.06-.49.26-1,.31-1.47,17.74,3.82,35.38,7.87,52.83,13q8.47,2.51,16.87,5.26c2.77.91,5.67,1.71,8.37,2.82,5.22,2.16,7.78,3.91,8.55,9.41.91,6.52-.16,13.25-1.6,19.6-1.5,6.63-2.32,16.29-11.77,15.65C308.77,187.43,302.62,185.15,297,183.9Z" transform="translate(-6.88 53.92)"/><path class="cls-5" d="M240.07,133.66a22.29,22.29,0,0,0-.21-3.65c0-.27-.44-.22-.46,0a21.43,21.43,0,0,0-.06,3.67C239.37,134.14,240.06,134.08,240.07,133.66Z" transform="translate(-6.88 53.92)"/><path class="cls-5" d="M239.35,141.38a.37.37,0,0,0-.26-.56.37.37,0,0,1,0-.11c.07-.44.16-.87.2-1.31a.27.27,0,0,0-.52-.11,8.25,8.25,0,0,0-.57,2.11c0,.27.12.57.44.59S239.2,141.63,239.35,141.38Z" transform="translate(-6.88 53.92)"/><path class="cls-5" d="M237.46,152.6a7.81,7.81,0,0,0,.45-5.38.34.34,0,0,0-.66.13,8.5,8.5,0,0,1-.54,5C236.52,152.83,237.25,153,237.46,152.6Z" transform="translate(-6.88 53.92)"/><path class="cls-5" d="M235.93,159.14c.12-.66.14-1.31.21-2a.27.27,0,0,0-.53-.1c-.18.68-.39,1.33-.52,2C235,159.62,235.83,159.67,235.93,159.14Z" transform="translate(-6.88 53.92)"/><path class="cls-5" d="M234.25,167.67a18.55,18.55,0,0,0,.22-3c0-.39-.53-.4-.6,0a21.32,21.32,0,0,0-.47,2.86C233.39,168,234.15,168.18,234.25,167.67Z" transform="translate(-6.88 53.92)"/><path class="cls-5" d="M318.94,151.3c-23.61-4.88-46.78-11-69.9-17.78a.76.76,0,0,0-.48,1.45,481.25,481.25,0,0,0,70,18.38C319.7,153.57,320.11,151.55,318.94,151.3Z" transform="translate(-6.88 53.92)"/><path class="cls-5" d="M269.18,147.53c-3.76-1.31-7.68-2.24-11.51-3.32-3.4-1-7-2.39-10.53-2.61-.42,0-.67.59-.27.81,3.1,1.72,6.86,2.45,10.25,3.48,3.8,1.15,7.61,2.48,11.48,3.4A.93.93,0,0,0,269.18,147.53Z" transform="translate(-6.88 53.92)"/><path class="cls-5" d="M316.06,158.4c-4.88-2.38-10-2.65-15.29-3.37-8.13-1.09-16-3.46-23.89-5.47a.5.5,0,0,0-.31.95,143.26,143.26,0,0,0,19.62,5.65c6.24,1.25,13,1.09,18.78,3.93C316.11,160.64,317.22,159,316.06,158.4Z" transform="translate(-6.88 53.92)"/><path class="cls-5" d="M284.83,162.52l.21-.21a.89.89,0,0,0-.12-1.4c-1.92-1.4-4.93-1.47-7.21-2-3.58-.87-7.16-1.8-10.73-2.75-7.13-1.92-14.2-4-21.29-6.12a.58.58,0,0,0-.37,1.1c6.27,2.2,12.64,4.14,19,6q4.26,1.21,8.54,2.34c1.78.48,3.57.93,5.36,1.38.72.19,1.43.37,2.15.54a4.86,4.86,0,0,0,2.92.14.86.86,0,0,0,.29,1l.18.15A.86.86,0,0,0,284.83,162.52Z" transform="translate(-6.88 53.92)"/><path class="cls-5" d="M283.35,168.06c-12.06-4.75-26-7.05-38.67-9.62-.67-.13-1,.85-.34,1,12.59,3.28,26.34,5.5,38.45,10.27C283.85,170.16,284.4,168.48,283.35,168.06Z" transform="translate(-6.88 53.92)"/><path class="cls-5" d="M235.84,130.08c-2.9-1-6-1.55-8.93-2.27-2.33-.57-4.91-1.61-7.31-1.39-.23,0-.25.34-.09.45,2.18,1.48,5.37,1.86,7.89,2.54,2.7.73,5.41,1.59,8.16,2.11C236.4,131.67,236.61,130.34,235.84,130.08Z" transform="translate(-6.88 53.92)"/><path class="cls-5" d="M235.39,137.09c-6-1.26-12-2.64-18-3.77-.37-.07-.49.55-.12.65,5.36,1.51,10.79,2.81,16.2,4.18a.67.67,0,0,0,.92.83,7.84,7.84,0,0,0,1.15-.5C236,138.22,236.06,137.23,235.39,137.09Z" transform="translate(-6.88 53.92)"/><path class="cls-5" d="M232.79,142.33c-5.84-.82-11.58-2.13-17.36-3.24-.38-.08-.48.53-.12.65,5.61,1.8,11.4,3,17.16,4.21A.83.83,0,1,0,232.79,142.33Z" transform="translate(-6.88 53.92)"/><path class="cls-5" d="M231.05,156.52a55.8,55.8,0,0,1-15.4-3.38c-.55-.2-.8.62-.28.85A53.22,53.22,0,0,0,231,158C231.9,158.11,232,156.58,231.05,156.52Z" transform="translate(-6.88 53.92)"/><path class="cls-5" d="M508.13,42.71a.86.86,0,0,0-.87-.51L482,43.69c-8.13.47-18.35,3.11-25-2.52-6-5.1-11.64-10.66-17.45-16-4.06-3.71-8.86-10.2-14.18-12.08-2.3-.82-5.12-.38-7.46-.34-4,.07-8,.09-12,.09q-12.57,0-25.14-.54c-5.67-.24-9-1.93-12.7-6.24q-3.69-4.35-7.41-8.68c-5.43-6.34-10.87-12.7-16.49-18.88a.52.52,0,0,0-.85.06,1,1,0,0,0-1.28.62c-12.72,36.1-26.46,72.05-37.8,108.61a.58.58,0,0,0,0,.18c-.48-.24-1,.49-.58.87,6.44,5.48,13.15,10.62,19.83,15.8,6.06,4.7,12,10.13,18.44,14.28,5.21,3.36,13.48,1,19.35.58l13.72-.94c4.85-.33,9.85-1.56,14,1.63,6.31,4.91,11.78,11.88,17.42,17.57,3.5,3.53,6.77,8.32,11.95,9.16,8.08,1.31,17,.59,25.14.82l27.59.76a.83.83,0,0,0,.58-.19c1.74-.41,1.54-2.37,1.71-4,3.57-6.65,5.3-15.16,7.67-22,3.12-9,6.24-18.06,9.68-27,6.56-17,15-33.37,18.39-51.43A1,1,0,0,0,508.13,42.71ZM489.05,94.84c-3.29,8.56-6.29,17.23-9.27,25.91-2.78,8.09-7.62,17.39-8.22,26a.86.86,0,0,0-.41-.1L446,145.91c-8.19-.23-17.09.51-25.19-.71s-13.79-9.59-19.3-15.13l-7.93-8c-1.76-1.76-3.73-4.62-6.14-5.64-4.41-1.87-12.21.28-16.88.61-7.89.54-18.7,3.23-26,.31s-13.6-9.33-19.81-14.12c-6.52-5-13-10.09-19.74-14.84a.52.52,0,0,0,.39-.32C319.39,52.57,331.23,16,343.94-20,349-13.67,354.25-7.48,359.5-1.3c2.95,3.48,5.88,7,8.86,10.44,1.32,1.53,2.56,3.41,4.49,4.26,3,1.34,7.19.77,10.42.9q6,.24,12,.36,7.18.15,14.37.13c4.46,0,9.81-.9,14.1.24s7.69,5.31,11,8.39l9.58,8.8c4.73,4.33,9.91,11.1,15.89,13.66,5.59,2.39,13.58.32,19.42,0l27.53-1.59C503.68,62,495.46,78.11,489.05,94.84Z" transform="translate(-6.88 53.92)"/><path class="cls-5" d="M345.62-10.67c5.2,6.39,10.61,12.58,16,18.78,3.25,3.72,7.35,11.1,12.3,12.52,3.08.89,7-.13,10.14-.33,4-.24,8-.44,11.93-.57,9-.31,22.85-2.66,30.74,2.32,6.17,3.89,11.74,10.32,16.82,15.51q4.2,4.29,8.16,8.79c1.7,1.93,3.31,4.49,5.47,5.95,4.8,3.23,13.05.39,18.29-.23q12.87-1.5,25.73-3c.93-.11.94-1.58,0-1.47l-23.39,2.72c-3.9.46-7.8.94-11.7,1.38-5.12.58-8.54-.86-11.92-4.73-4.79-5.47-9.77-10.76-15-15.78-4.21-4-9.27-10.2-14.76-12.39-5.33-2.13-13.25-.82-18.86-.75q-11.34.14-22.67.86c-5.45.36-9.57.33-13.44-4.12L362,6.18c-5.24-6-10.47-12-15.92-17.81a.38.38,0,0,0-.42-.13.73.73,0,0,0-1.21.27q-8.61,24.41-17.2,48.8c-5.71,16.16-12.47,32.33-17,48.87a.35.35,0,0,0,.08.33.28.28,0,0,0,.1.17c12,9.22,23.85,18.27,34.74,28.84a.49.49,0,0,0,.5.13c11.38-.42,22.74-1.6,34.09-2.54,4.07-.34,7.47-1.18,11.26,1.36,2.23,1.49,4.17,4.08,6,6q6.09,6.15,12,12.5c2.92,3.13,5.85,7.79,9.85,9.65,3.54,1.64,8.16.95,11.92,1q18.54.17,37.09.3a.58.58,0,0,0,.14,0,.42.42,0,0,0,.51-.26c5.88-15.65,10.75-31.69,16.32-47.45,5.44-15.4,11.1-30.73,16.67-46.09.31-.87-1.07-1.24-1.38-.38-11.08,30.68-23.43,61.4-32.15,92.86l-.11,0q-17.94-.18-35.9-.34c-2.89,0-6.23.41-9.08-.11-5.26-1-7.35-4.09-10.55-7.56q-5.87-6.36-11.93-12.56c-3-3.06-6.11-7.36-9.84-9.53-3-1.76-6.37-1.06-9.72-.78-11.63,1-23.32,1.68-34.9,3.15l0-.06c-10.69-10.34-22.28-20.45-35-28.28,6.75-15.38,11.56-31.85,17.15-47.68Q336.86,14,345.62-10.67Z" transform="translate(-6.88 53.92)"/><path class="cls-5" d="M369.06,39.61c-6.29,23.86-14.14,47.08-22.48,70.29a.06.06,0,0,0,.12,0c9.3-22.74,16.59-46.45,22.82-70.2A.24.24,0,0,0,369.06,39.61Z" transform="translate(-6.88 53.92)"/><path class="cls-5" d="M418.5,24.28a806,806,0,0,0-28.27,80.9.08.08,0,0,0,.16,0c8.89-27.22,18.22-54.16,29-80.71C419.61,24,418.72,23.74,418.5,24.28Z" transform="translate(-6.88 53.92)"/><path class="cls-5" d="M451.67,56.87c-10.36,25.77-20.65,51.62-30.35,77.65-.06.15.17.21.23.07,10.71-25.65,20.86-51.59,30.91-77.5C452.65,56.59,451.87,56.39,451.67,56.87Z" transform="translate(-6.88 53.92)"/><path class="cls-5" d="M426.77,70c-3.32-1.81-6.94.33-8.69,3.27-2.81,4.72-2.52,11.53-1.43,16.67a.26.26,0,0,0,.09.14c0,.08,0,.16-.05.24a.65.65,0,0,0,.62.63h.33a.6.6,0,0,0,.58-.55l.83-.73a2.46,2.46,0,0,0,.52-.46c.48-.42,1-.85,1.43-1.29l1.11-.77a39.83,39.83,0,0,0,3.2-2.4,14.51,14.51,0,0,0,4.12-5.27C430.78,76.17,430.15,71.82,426.77,70Zm1.84,8c-1.2,4.56-5.75,7-9.26,9.53a11.9,11.9,0,0,0-2.12,1.62,33.88,33.88,0,0,1,.67-11.67c.74-2.69,2.07-6,5.23-6.65C427.63,69.87,429.51,74.56,428.61,77.93Z" transform="translate(-6.88 53.92)"/><path class="cls-5" d="M425.1,74c-1.33-.87-3.35.24-4,1.48a3,3,0,0,0,1.74,4.21,3,3,0,0,0,4-1.82A3.27,3.27,0,0,0,425.1,74Zm.78,3.4a1.82,1.82,0,0,1-2.63,1.22,1.85,1.85,0,0,1-1.09-2.75,2.63,2.63,0,0,1,2.4-1.11A2.45,2.45,0,0,1,425.88,77.37Z" transform="translate(-6.88 53.92)"/><path class="cls-5" d="M203,50.93a.32.32,0,0,0-.31-.52c-2.49.46-4.81,2-4.75,4.75a4.3,4.3,0,0,0,4.33,4.33,4.46,4.46,0,0,0,4.47-4.06C206.77,53.39,205.14,51,203,50.93Zm-1.19,7.12a3.06,3.06,0,0,1-2.46-3.54c.2-1.74,1.57-2.47,2.94-3.17a.51.51,0,0,0,.32.5c1.46.61,2.77,1.66,2.76,3.41A3.11,3.11,0,0,1,201.76,58.05Z" transform="translate(-6.88 53.92)"/><path class="cls-5" d="M190.1,58c-.95-1.5-3.33-2.26-4.78-1a.36.36,0,0,0,0,.48,3.36,3.36,0,0,0-1,3,2.93,2.93,0,0,0,4.21,2.06A3.12,3.12,0,0,0,190.1,58ZM188,61.44a1.86,1.86,0,0,1-2.72-1.33,2.73,2.73,0,0,1,1.27-2.75,2.63,2.63,0,0,1,2.51,1A2,2,0,0,1,188,61.44Z" transform="translate(-6.88 53.92)"/><path class="cls-5" d="M175.89,67a3,3,0,0,0-3.65-2.54.4.4,0,0,0-.23.19,3,3,0,0,0-1.93,2.77,2.7,2.7,0,0,0,3,2.66A2.83,2.83,0,0,0,175.89,67Zm-3,2c-2.19,0-2.26-2.66-.84-3.68a.37.37,0,0,0,.29.08,2.2,2.2,0,0,1,2.43,1.85A1.75,1.75,0,0,1,172.91,69Z" transform="translate(-6.88 53.92)"/><path class="cls-5" d="M241.42,44.39a34.29,34.29,0,0,0-16.8-6.65c-11.49-1.46-22.55,2.35-32.71,7.57a.76.76,0,0,0-.49-.68,46.54,46.54,0,0,0-16.92-3.1c-2.84,0-9.46-1-11.63,1.68-4,4.94,7.45,11.06,11.4,12.41-4.07,2.5-8.17,5-12.42,7.16s-8.49,4.2-13.14,4.53c-.93-1.94-1-5.35-3.71-5.59-2.14-.19-4.29,2.33-5.53,4.23a20.12,20.12,0,0,0-5.67-.79A.84.84,0,0,0,133,66c-.68,6.66-1.82,21.75,7.64,22.56,5.58.47,12.24-1.29,17.58-2.67a76.9,76.9,0,0,0,16.37-6.06,93.05,93.05,0,0,1-4.83,11.93c-1.1,2.26-3.9,5.43-2.18,8,4.17,6.3,17.75-6.06,20.84-9a101.86,101.86,0,0,0,10.76-12.42c1.67-2.21,3.91-4.89,4.89-7.78a.86.86,0,0,0,.9.37,158.72,158.72,0,0,0,25.83-7.32c4.38-1.64,14.61-4,16.67-8.63C249.33,50.79,244.29,46.64,241.42,44.39Zm-15-4.35a.53.53,0,0,0,.2-.15,34.54,34.54,0,0,1,6.24,1.77,35.34,35.34,0,0,1,6.44,3.2c-4.17,4.12-9.25,6-14.87,7.39a13.67,13.67,0,0,1-5.7.37c-4.08.59-5.17-1.7-3.28-6.84l2.84-1.92C220.84,42.4,223.69,41.34,226.37,40Zm-59.19,9.81c-1.54-1.45-4.21-4.36-1.41-6.33,1.1-.77,4.55-.39,5.86-.43a49.06,49.06,0,0,1,19.08,2.83c-2.63,1.39-5.19,2.86-7.69,4.34-2.68,1.6-5.33,3.26-8,4.9,0,0,0-.06-.06-.07A31.74,31.74,0,0,1,167.18,49.85ZM141.36,65.14c.61-.6,1.68-1.83,2.56-2l2.32.76.37.82a11,11,0,0,1,.31,1.16,10.7,10.7,0,0,0,.49,1.48,17.2,17.2,0,0,1-2.25-.14,37,37,0,0,1-4.79-1C140.69,65.82,141,65.48,141.36,65.14Zm91-4.11a182.37,182.37,0,0,1-27.87,8.26l-.11,0a7.56,7.56,0,0,0,.11-2.51c-.53-4-3-4.07-6.46-3.53A71.66,71.66,0,0,0,178.81,69c-.49.23-.14,1,.37.88,3.87-1.24,7.76-2.42,11.71-3.39,1.54-.38,3.81-1.35,5.42-1.17a3.27,3.27,0,0,1,2.08-.38,3.56,3.56,0,0,1,4.35,3.43,6.45,6.45,0,0,1-.81,3c-.12.23-.27.44-.4.65s-.16.27-.24.4a.93.93,0,0,0,0,.1,4.13,4.13,0,0,1-.89,1.23c-1.28,3.08-4.66,6.2-6.79,8.71A83.42,83.42,0,0,1,186.33,90a51.21,51.21,0,0,1-7.6,5.77,3.81,3.81,0,0,1-.61.52l-.47.3a11.2,11.2,0,0,1-4.38,2.46,3.37,3.37,0,0,1-3.84-1.54,27,27,0,0,0,1-2.63,8.45,8.45,0,0,0,1.1-2.89l0,0c.34-.64.6-1.12.65-1.23A102.39,102.39,0,0,0,179,70.6c.25-1.09-1.43-1.56-1.68-.46-.65,2.76-1.38,5.49-2.23,8.18-8.16,3-16.15,5.88-24.78,7.33-2.2.37-6.56,1.77-8.87,1a1.56,1.56,0,0,1-.15-.06c3.67.51,4-4.63,5.86-6.52a.63.63,0,0,0-.37-1,.54.54,0,0,0-.47-.5c-2.14-.27-4.31-.4-6.47-.52a.21.21,0,0,0-.05.42c2.07.41,4.16.79,6.25,1.06-1.34,1.71-1.62,4.91-3.68,5.73-3.55,1.41-2.7-5.22-2.94-6.92-.06-.4-.72-.3-.7.09.08,2-.8,5.55.72,7.28A11.33,11.33,0,0,1,135,78.13c-.4-2.42-1-5.59-.59-8,.59-3.35.46-3.76,4.79-2.71,7.07,1.7,11.75,2,18.71-.84,8.23-3.42,15.75-8.45,23.33-13.07,12.82-7.82,27.9-15.82,43.13-14-4.15,1.61-9.92,3.44-11.56,7.64-1.11,2.82.2,5.42,2.8,6.73,4.1,2.07,9.73-.16,13.72-1.51,4.2-1.41,8.06-3.41,10.56-7.13A14.18,14.18,0,0,1,244,49.31C248.47,56.74,236.57,59.38,232.37,61Z" transform="translate(-6.88 53.92)"/><path class="cls-5" d="M244.1,62.68a110.67,110.67,0,0,1-35,11.33c-.14,0-.11.26,0,.25a94.68,94.68,0,0,0,35.34-11C244.81,63,244.48,62.48,244.1,62.68Z" transform="translate(-6.88 53.92)"/><path class="cls-5" d="M464.53,153.72c-11-.23-22-.31-33-.45q-8.25-.12-16.51-.21c-5.15-.06-7.93-.75-11.18-5-1.74-2.25-3.46-4.51-5.18-6.77-3.27-4.26-6.52-8.53-9.8-12.78-1.38-1.79-2.73-4-5-4.79-3.77-1.24-9.72.75-13.53,1.27q-8.88,1.2-17.74,2.49c-.18,0-.14.35,0,.32q8.4-1,16.8-2c5.27-.67,12.63-3.21,16.93.73,4,3.65,7.13,9.39,10.4,13.72,2.84,3.75,5.48,8.15,8.83,11.48,2.35,2.34,5.28,2.22,8.44,2.28,5.5.11,11,.18,16.51.26,11.34.16,22.67.39,34,.47A.5.5,0,0,0,464.53,153.72Z" transform="translate(-6.88 53.92)"/><path class="cls-5" d="M260.66,181.66q-21.65-4.23-43.29-8.48c-3.26-.63-7-1-10-2.62-5.63-3.07-4.51-8.59-4.07-13.77.67-8,2-15.83,3.43-23.7,0-.22-.28-.31-.33-.1a151.11,151.11,0,0,0-4.07,25.64c-.46,5.89-1.22,10.15,4.73,12.83,7.58,3.42,17,4,25.09,5.58l28.23,5.57C261,182.73,261.28,181.78,260.66,181.66Z" transform="translate(-6.88 53.92)"/><path class="cls-6" d="M432.42,245.92s-.2-.32-.24-.39A3.53,3.53,0,0,0,432.42,245.92Z" transform="translate(-6.88 53.92)"/><polygon class="cls-6" points="425.91 300.74 425.82 300.6 426.02 300.96 425.91 300.74"/><path class="cls-6" d="M432.64,246.91c.4.59,0-.13.15.06l.09.14-.3-.49C432.6,246.71,432.77,247.06,432.64,246.91Z" transform="translate(-6.88 53.92)"/><path class="cls-6" d="M431.72,245.66c.16.23.11.21.06.06a.1.1,0,0,0,0-.05Z" transform="translate(-6.88 53.92)"/><path class="cls-6" d="M431.74,245.67s-.13-.19,0,0Z" transform="translate(-6.88 53.92)"/><path class="cls-6" d="M431.76,245.85l-.11-.23a1.5,1.5,0,0,1-.19-.25A2.56,2.56,0,0,0,431.76,245.85Z" transform="translate(-6.88 53.92)"/><path class="cls-6" d="M432,246.29l0-.09C431.94,246.14,431.92,246.13,432,246.29Z" transform="translate(-6.88 53.92)"/><path class="cls-6" d="M431.88,246l.1.2c.06.09.19.29,0-.07C432.06,246.3,432,246.13,431.88,246Z" transform="translate(-6.88 53.92)"/><path class="cls-6" d="M432,246.08a2.52,2.52,0,0,1,.28.42C432.21,246.39,431.93,246,432,246.08Z" transform="translate(-6.88 53.92)"/><path class="cls-6" d="M433,247.53l.13.17-.12-.21C433.1,247.59,432.91,247.34,433,247.53Z" transform="translate(-6.88 53.92)"/><path class="cls-6" d="M431.43,245.62l.34.49-.08-.15C431.62,245.88,431.56,245.8,431.43,245.62Z" transform="translate(-6.88 53.92)"/><path class="cls-6" d="M431.77,246.11l.12.24S431.86,246.25,431.77,246.11Z" transform="translate(-6.88 53.92)"/><polygon class="cls-6" points="425.58 300.88 425.31 300.4 425.57 300.89 425.58 300.88"/><polygon class="cls-6" points="424.46 299.57 424.29 299.27 424.55 299.73 424.46 299.57"/><path class="cls-6" d="M431.32,245.74c-.15-.25-.28-.4-.37-.56a5,5,0,0,0,.25.47C431.14,245.54,431.17,245.55,431.32,245.74Z" transform="translate(-6.88 53.92)"/><path class="cls-6" d="M431.36,245.94l-.16-.29A2.5,2.5,0,0,0,431.36,245.94Z" transform="translate(-6.88 53.92)"/><path class="cls-6" d="M431.81,246.31c-.05-.08-.19-.28-.25-.35l.24.35Z" transform="translate(-6.88 53.92)"/><path class="cls-6" d="M431.81,246.32h0Z" transform="translate(-6.88 53.92)"/><path class="cls-6" d="M431.81,246.31Z" transform="translate(-6.88 53.92)"/><path class="cls-6" d="M432.18,246.67a4.42,4.42,0,0,0,.46.73C432.49,247.15,432.36,247,432.18,246.67Z" transform="translate(-6.88 53.92)"/><path class="cls-6" d="M432.12,246.75l.07.07c-.06-.1-.15-.23-.21-.34Z" transform="translate(-6.88 53.92)"/><polygon class="cls-6" points="425.3 300.79 425.24 300.67 425.21 300.64 425.3 300.79"/><path class="cls-6" d="M431.61,246.25a.84.84,0,0,1,.1.21c.05.06.09.09.11.08S431.62,246.22,431.61,246.25Z" transform="translate(-6.88 53.92)"/><path class="cls-6" d="M431.73,246.31v0S431.77,246.37,431.73,246.31Z" transform="translate(-6.88 53.92)"/><path class="cls-6" d="M431.58,246.54l.05.06,0-.06Z" transform="translate(-6.88 53.92)"/><path class="cls-6" d="M431.86,246.61c.06.06,0,0-.06-.14a.14.14,0,0,1,0,.07Z" transform="translate(-6.88 53.92)"/><path class="cls-6" d="M431.43,246.13a1.43,1.43,0,0,0,.15.18C431.5,246.2,431.37,246,431.43,246.13Z" transform="translate(-6.88 53.92)"/><path class="cls-6" d="M431.67,246.24v0C431.61,246.15,431.63,246.18,431.67,246.24Z" transform="translate(-6.88 53.92)"/><path class="cls-6" d="M431.67,246.24l.13.23a.73.73,0,0,0-.06-.14Z" transform="translate(-6.88 53.92)"/><path class="cls-6" d="M433,248.86c-.22-.33-.39-.65-.13-.31-.14-.27-.87-1.35-1.28-2a5,5,0,0,1,.28.49,5.18,5.18,0,0,1,.5.71c.08.19-.1-.1-.23-.27.28.41.35.63.76,1.23l-.12-.23C432.89,248.62,433,248.78,433,248.86Z" transform="translate(-6.88 53.92)"/><path class="cls-6" d="M431.69,246.61l0-.05-.32-.43a3.45,3.45,0,0,0,.24.41l.07,0Z" transform="translate(-6.88 53.92)"/><path class="cls-6" d="M431.72,246.53a10.49,10.49,0,0,0,.57.92A4.34,4.34,0,0,0,432,247c0,.12-.12-.21-.29-.4a.22.22,0,0,1,0-.11l-.13-.15v0h0l0,0h0l.08.14a.34.34,0,0,1-.08-.14l0,0h0l.08.23C431.72,246.6,431.72,246.59,431.72,246.53Z" transform="translate(-6.88 53.92)"/><path class="cls-6" d="M433.12,248.2l-.06-.09Z" transform="translate(-6.88 53.92)"/><path class="cls-6" d="M433,248c0-.05-.12-.2-.09-.17s.12.18.19.29a2,2,0,0,0-.28-.43l0,0c-.1-.11-.41-.55-.44-.6C432.59,247.45,432.74,247.68,433,248Z" transform="translate(-6.88 53.92)"/><path class="cls-6" d="M432.4,247.35l.07.21.23.3-.13-.19C432.64,247.73,432.49,247.5,432.4,247.35Z" transform="translate(-6.88 53.92)"/><polygon class="cls-6" points="424.58 300.28 424.34 299.9 424.67 300.45 424.58 300.28"/><polygon class="cls-6" points="424.56 300.36 424.35 300.03 424.47 300.24 424.56 300.36"/><path class="cls-6" d="M431.36,252.35l.05.1Z" transform="translate(-6.88 53.92)"/><path class="cls-6" d="M431.45,252.32l-.1-.17C431.4,252.25,431.45,252.31,431.45,252.32Z" transform="translate(-6.88 53.92)"/><path class="cls-6" d="M430.27,247.26c-.22-.3-.55-.77-.31-.4l.24.36C430.17,247.15,430.21,247.18,430.27,247.26Z" transform="translate(-6.88 53.92)"/><path class="cls-6" d="M430.85,250l.08.11c-.08-.13-.15-.24-.21-.35Z" transform="translate(-6.88 53.92)"/><path class="cls-6" d="M431.82,251.48l-.17-.23C431.71,251.33,431.76,251.41,431.82,251.48Z" transform="translate(-6.88 53.92)"/><path class="cls-6" d="M431.17,253l.23.38S431.29,253.2,431.17,253Z" transform="translate(-6.88 53.92)"/><path class="cls-6" d="M431,246.9a1.49,1.49,0,0,0-.18-.2C431,246.9,431.22,247.2,431,246.9Z" transform="translate(-6.88 53.92)"/><path class="cls-6" d="M428.88,248.47a2,2,0,0,0,.14.22Z" transform="translate(-6.88 53.92)"/><path class="cls-6" d="M430.81,246.73l.06.08c0-.07-.05-.12,0-.11C430.74,246.55,430.66,246.47,430.81,246.73Z" transform="translate(-6.88 53.92)"/><path class="cls-6" d="M429.39,253.75a.13.13,0,0,0,0-.05Z" transform="translate(-6.88 53.92)"/><path class="cls-6" d="M426.55,250.37s0,0,0,0S426.52,250.32,426.55,250.37Z" transform="translate(-6.88 53.92)"/><path class="cls-6" d="M431.14,246.41s0,0,0,0Z" transform="translate(-6.88 53.92)"/><path class="cls-6" d="M432.13,247.81a.78.78,0,0,0,.11.18A1.08,1.08,0,0,1,432.13,247.81Z" transform="translate(-6.88 53.92)"/><path class="cls-6" d="M432.18,249.06Z" transform="translate(-6.88 53.92)"/><path class="cls-6" d="M431.26,246.56l-.08-.1Z" transform="translate(-6.88 53.92)"/><path class="cls-6" d="M431.15,246.39l0,0C431.14,246.36,431.12,246.32,431.15,246.39Z" transform="translate(-6.88 53.92)"/><path class="cls-6" d="M431.14,246.44s0,0,0,0l0-.05Z" transform="translate(-6.88 53.92)"/><path class="cls-6" d="M429.61,252.22l0,0C429.67,252.35,429.66,252.32,429.61,252.22Z" transform="translate(-6.88 53.92)"/><path class="cls-6" d="M432.45,251.21v0h0Z" transform="translate(-6.88 53.92)"/><path class="cls-6" d="M432.59,251.5c-.28-.46-.23-.41-.16-.32l-.69-1Z" transform="translate(-6.88 53.92)"/><path class="cls-6" d="M431.24,252.58l.23.31a5,5,0,0,0,.5.83c-.73-1.14,0-.18-.71-1.32l.18.22s0,.06,0,.06c.39.52-.51-.84-.36-.71a2.71,2.71,0,0,1,.27.38l-.15-.31a1.57,1.57,0,0,1,.13.2v-.12l0,0c-.11-.18-.27-.47-.34-.59.12.16.07.13.17.27l-.15-.3a2.21,2.21,0,0,1,.32.56c.76,1.12-.17-.3.32.33l.07.16a7,7,0,0,0,.6.77c-.15-.21-.72-1-.88-1.28.07.08.1.11,0-.13.27.41.22.3.22.26l.35.54c-.08-.17-.26-.44-.4-.69a8.35,8.35,0,0,1,.56.79c.1.06-.45-.64-.47-.78.16.19,0-.05-.13-.39.14.17.21.33.32.48l-.26-.44a1.94,1.94,0,0,1,.14.2c-.09-.17-.35-.53-.42-.7-.37-.59.62.83.22.14.1.14.21.33.34.53-.24-.46-.16-.34-.51-1l.26.33a11.51,11.51,0,0,1-.8-1.29l-.3-.43-.15-.32.32.51-.08-.14c.14.19.34.5.52.81l-.23-.32c.2.33.43.7.63,1l-.08-.15.14.22c0,.06,0-.06-.11-.21l.4.6-.16-.24.3.34c-.35-.63-.89-1.54-1-1.83.27.45.46.72.8,1.24-.38-.54.1.27,0,.18a2.5,2.5,0,0,1,.26.38l-.27-.54a2.65,2.65,0,0,0,.35.48c-.56-.83-.32-.59-.46-.86.18.28.36.57.29.52.44.62-.6-1-.22-.49,0,0,0,0,.05.11-.14-.26,0-.08.18.17h0c.11.07.15-.09-.31-.8l.64,1-1.47-2.46c.39.62,1.36,2.06,1.55,2.43.07.08.15.17,0-.06-.06-.08-.59-.87-.62-.93.47.66.26.35.67.91a11.78,11.78,0,0,1-.67-1.08c.09.15.62.95.67,1.06l-.56-1c.09.18.51.81.7,1.07-.13-.19,0,0,0-.11l-.16-.21c.14.11-.82-1.36-.74-1.34.13.2.77,1.21.87,1.31-.3-.49-1.46-2.36-1.66-2.76l.19.27L431,248c.45.74,1.39,2.31,1.74,2.92.16.21.22.32.23.28a1.49,1.49,0,0,1,.24.42l.18.13c-.37-.56-.32-.6-.63-1.07l.31.63a9.28,9.28,0,0,1-.89-1.55c.16.21.64,1,.77,1.19-.12-.2-.2-.4-.11-.26l.18.31c.16.2-.44-.77-.06-.25,0,0,.5.7.29.37-.44-.64-1.74-2.62-2-3.11,0,0,.46.57.68.88.34.5.75,1.22,1.05,1.65-.1-.16-.22-.35-.25-.42.09.13.3.48.28.4-.37-.58.08,0-.3-.49-.08-.18.1.1.11.06-.25-.37-.79-1.28-.87-1.46.09.15.22.34.28.42s.28.26.32.24a5.06,5.06,0,0,1,.38.54,1.72,1.72,0,0,1-.17-.33c.34.48,0,.1.42.68a7.81,7.81,0,0,1-.38-.7c-.34-.51-.11-.07,0,.15a17.74,17.74,0,0,1-1.07-1.83c-.08-.2.31.45.25.34.15.08-.74-1.27-.35-.8s.58.9.8,1.22-.23-.26-.24-.22l.16.19c.09.16.14.29.05.16.28.39.17,0,.46.34a4.53,4.53,0,0,0-.29-.5l0,.07c-.25-.35-.3-.52-.43-.68s-.38-.68-.21-.5l.34.51c-.1-.15-.22-.29-.13-.13-.13-.24.51.66.08,0l-.25-.34c-.15-.27-.47-.84-.34-.7-.34-.49,0,.07-.37-.51.5.72-.1,0,.44.77-.47-.67-.23-.27-.64-.84.11.17.22.32.14.25l.09.16v0l0,0s0,0,0,0a2.7,2.7,0,0,1,.18.25c.24.4.2.41.32.62-.07-.07-.12-.2-.25-.37l.18.31a8.58,8.58,0,0,1-.56-.84h0c-.15-.2-.23-.27-.15-.1-.06-.07.24.44.06.14l.1.26-.06-.09c-.08,0,.31.68-.19,0,.05.11.11.23,0,.14l-.21-.32c.05.13-.28-.29-.07.06-.59-.86-.22-.13-.36-.26l.28.43s0,.12.09.32l.25.37c.17.33-.24-.22-.26-.16-.09-.14-.05-.11,0,0-.6-.82.3.69-.15.1.08.14,0,.1,0,0v0h0l-.14-.19c.06.08.11.16.14.19a.52.52,0,0,0,.06.17l-.27-.4h0c-.11-.14.11.2.32.5a2.36,2.36,0,0,0,.14.26c-.44-.65.11.24-.36-.45a10.09,10.09,0,0,0,.56,1c-.06-.1-.1-.14-.09-.15s-.14-.14,0,.07l-.34-.51.42.71a8.58,8.58,0,0,1-.59-.89c.35.64.11.26.47.89l-.22-.34s.26.48.08.21c-.45-.61-.22,0-.68-.52.65,1-.32-.41.17.35-.15-.23-.25-.35-.37-.56.11.25-.3-.33.09.33-.16-.23-.21-.35-.31-.48,0,.05.12.21,0,.07a1.69,1.69,0,0,1-.18-.3,11,11,0,0,0,.87,1.45c-.22-.3-.21-.25.06.2a2.66,2.66,0,0,1-.33-.53s-.3-.26.05.27c-.1-.13-.05,0,0,0s-.09-.06-.09,0l.07.08c.4.65.06.16.09.25l0-.06c-.37-.43.12.24-.29-.26l.27.4c.55.87-.39-.47-.21-.12l.16.22c.18.31-.81-1.14-.9-1.24a1.12,1.12,0,0,1-.1-.18c-.38-.48.33.53.38.68-.2-.28-.47-.73-.52-.77-.17-.22.52,1,.14.45a5,5,0,0,1,.39.6c0,.09-.61-.78-.19-.08a1,1,0,0,1-.11-.17,3.85,3.85,0,0,0,.36.72c-.93-1.37.31.76-.52-.52l0,.11-.08-.13c-.09-.06.09.25.28.57a2.52,2.52,0,0,1-.18-.27c-.23-.23-.2-.17.17.5l-.28-.41c.15.25-.5-.6-.24-.08l-.12-.19c.26.53-.9-1.05.06.47l.2.4c.13.09.42.67.61.9s-.35-.42-.38-.51l.06.07c-.51-.79-.25-.23-.6-.77-.08.1-.47-.27-.59-.23l.41.6h-.06a2.15,2.15,0,0,1-.28-.46c-.24-.34.15.31.24.45a5.06,5.06,0,0,1-.47-.74v.06l0,.07c.14.26.31.53.26.52s-.25-.37-.27-.39-.05-.06,0,0l-.07,0,.33.48c.13.25-.06,0,.32.53-.58-.82-.36-.19-.55-.45.2.37.17.39.11.37a3.3,3.3,0,0,1,.36.58,11.64,11.64,0,0,0-.92-1.24c.37.52,0,.18.54.92-.09-.07-.28-.42-.47-.67.23.47-.31-.2-.28,0s.25.37.38.59l-.52-.71c0,.08.54.86.19.37.08.12.21.3.23.35-.61-.63.1.77-.92-.49.21.28.22.31.21.33s.23.37.37.57l-.42-.52c.35.56,0,.08.3.61l-.05-.1c.39.64.94,1.36,1.46,2.17-.43-.73.76,1,.14,0,.12.16.16.26.29.45-.22-.36-.25-.44-.12-.3l.05.09c0-.13.27.19.5.36l-.27-.39a1.66,1.66,0,0,1,.21.26c-.37-.62-.07,0-.48-.68.55.79.13-.07.74.84,0,0-.31-.46-.28-.47l.17.25-.2-.33a5.91,5.91,0,0,1,.4.56s0,.06,0,.09c.22.27,0-.15.07-.06l-.12-.13c-.08-.28.22,0,0-.56l-.13-.19c-.17-.38.18.18.14,0l0,.05c-.11-.2-.15-.3-.12-.29.13.23.3.41.44.66a8.51,8.51,0,0,0-.57-1l.21.31A2.72,2.72,0,0,1,429,252c.15.28.33.46.53.83.5.64-.36-.75.32.23-.53-.88-.37-.44-.47-.64s-.39-.66-.32-.58.75,1.08.79,1,0,.06,0,.06c.16.21-.16-.32.09,0a6.26,6.26,0,0,0-.38-.65l.06.18c-.09-.19-.57-1-.28-.63l.24.42c.14.19-.06-.14.08.05.43.66,0,.18.34.7.2.27-.26-.51.2.22-.58-.93.12.08-.3-.64l.26.4a1.2,1.2,0,0,1-.13-.26l.31.53c-.26-.46.31.35.18.09-.05.05-.33-.47-.54-.74-.28-.58.72,1,.67.77,0,.07-.2-.21-.3-.41a4.8,4.8,0,0,1,.33.42c0-.12-.27-.4-.41-.66.33.47-.1-.22-.18-.39l.26.41c.22.22-.53-.85-.28-.57l.34.57-.06-.16.29.46c-.19-.36-.13-.28,0-.16a4.46,4.46,0,0,1-.46-.77c.17.23.24.39.24.31.15.26.35.58.09.22.09.13.16.26.24.39s.09,0,.1,0l-.07-.09-.31-.59.25.4a1.92,1.92,0,0,1-.14-.29c.21.33.43.67.51.84l-.19-.4c.1.14.28.38.35.5s-.34-.68-.14-.45a.81.81,0,0,1-.1-.18c.08.06.37.44.12,0l.41.58c-.06-.16-.52-.73-.61-1s.34.49.46.65c-.17-.31-.53-.94-.19-.48C431.28,252.61,431.22,252.53,431.24,252.58Zm.22-.52c0,.09.2.36,0,.13C431.21,251.72,431.36,251.94,431.46,252.06Zm0-1.36c.08.14,0,.08-.08-.07S431.34,250.6,431.42,250.7Zm-.18-3.89v0C431.13,246.69,431.18,246.74,431.24,246.81Zm.15.15-.11-.17c.07.11.06.12,0,.1S431.44,247.06,431.39,247Zm-3.66,2.61.08.1C427.87,249.8,427.8,249.69,427.73,249.57Z" transform="translate(-6.88 53.92)"/><path class="cls-6" d="M431.71,251.3l-.15-.22Z" transform="translate(-6.88 53.92)"/><path class="cls-6" d="M431.13,253h0s0,.05,0,.08Z" transform="translate(-6.88 53.92)"/><path class="cls-6" d="M433.08,250.75l-.15-.2A.82.82,0,0,0,433.08,250.75Z" transform="translate(-6.88 53.92)"/><path class="cls-6" d="M431.13,246.16l.05.12s.05.06.1.12Z" transform="translate(-6.88 53.92)"/><path class="cls-6" d="M433,248.53c0-.05,0,0,0-.06l-.13-.19A.8.8,0,0,0,433,248.53Z" transform="translate(-6.88 53.92)"/><path class="cls-6" d="M432,247.49c.23.34.17.21.14.14h0C431.85,247.15,431.94,247.32,432,247.49Z" transform="translate(-6.88 53.92)"/><path class="cls-6" d="M432.16,247.61s0,0,0,0C432,247.4,432.13,247.56,432.16,247.61Z" transform="translate(-6.88 53.92)"/><path class="cls-6" d="M431.29,246.71c.06.08-.28-.44-.19-.3C430.83,246,431.4,247,431.29,246.71Z" transform="translate(-6.88 53.92)"/><polygon class="cls-6" points="425.89 302.52 425.61 302.1 425.82 302.45 425.89 302.52"/><path class="cls-6" d="M432.44,248.37l.1.1-.09-.15S432.36,248.25,432.44,248.37Z" transform="translate(-6.88 53.92)"/><path class="cls-6" d="M432.45,248.32s0,0,0-.08A.2.2,0,0,0,432.45,248.32Z" transform="translate(-6.88 53.92)"/><polygon class="cls-6" points="425.94 302.67 425.87 302.59 425.83 302.57 425.94 302.67"/><path class="cls-6" d="M432.12,248.47l.05.13c.09.15.15.23.13.17S432.21,248.6,432.12,248.47Z" transform="translate(-6.88 53.92)"/><path class="cls-6" d="M433,249.56a2.58,2.58,0,0,1-.22-.31l.34.52Z" transform="translate(-6.88 53.92)"/><path class="cls-6" d="M433,249.74c.09.14.23.44.24.38A2.26,2.26,0,0,0,433,249.74Z" transform="translate(-6.88 53.92)"/><polygon class="cls-6" points="425.23 303.27 425.23 303.26 424.68 302.4 425.23 303.27"/><path class="cls-6" d="M433.07,251.63c.16.18-.34-.54-.14-.3-.12-.21-.16-.19-.27-.37A4.83,4.83,0,0,0,433.07,251.63Z" transform="translate(-6.88 53.92)"/><path class="cls-6" d="M432.66,251a.9.9,0,0,0-.07-.14Z" transform="translate(-6.88 53.92)"/><polygon class="cls-6" points="419.3 303.89 419.16 303.72 419.36 304 419.3 303.89"/><path class="cls-6" d="M426.54,250.63l-.35-.55.3.5S426.46,250.5,426.54,250.63Z" transform="translate(-6.88 53.92)"/><path class="cls-6" d="M432.23,253.12l-.09-.13c-.09-.14-.1-.15-.13-.16Z" transform="translate(-6.88 53.92)"/><polygon class="cls-6" points="424.8 306.82 424.81 306.83 424.49 306.34 424.8 306.82"/><path class="cls-6" d="M431.85,253.68s0-.1,0-.09S431.45,253.07,431.85,253.68Z" transform="translate(-6.88 53.92)"/><path class="cls-6" d="M447.64,246.89s-.23-.3-.28-.36S447.71,247,447.64,246.89Z" transform="translate(-6.88 53.92)"/><polygon class="cls-6" points="441.23 301.66 441.12 301.53 441.36 301.87 441.23 301.66"/><path class="cls-6" d="M448,247.84c.46.55,0-.12.15,0l.11.13-.35-.46C447.91,247.66,448.11,248,448,247.84Z" transform="translate(-6.88 53.92)"/><path class="cls-6" d="M446.93,246.7c.18.21.13.2.07.05l-.05-.05S447,246.71,446.93,246.7Z" transform="translate(-6.88 53.92)"/><path class="cls-6" d="M447,246.7s-.15-.17,0,0Z" transform="translate(-6.88 53.92)"/><path class="cls-6" d="M447,246.87l-.14-.2a1.87,1.87,0,0,1-.21-.24A2.32,2.32,0,0,0,447,246.87Z" transform="translate(-6.88 53.92)"/><path class="cls-6" d="M447.3,247.29l-.06-.09S447.18,247.14,447.3,247.29Z" transform="translate(-6.88 53.92)"/><path class="cls-6" d="M447.12,247l.12.18c.08.09.22.27,0-.06C447.33,247.3,447.21,247.14,447.12,247Z" transform="translate(-6.88 53.92)"/><path class="cls-6" d="M447.2,247.09a2.07,2.07,0,0,1,.32.39C447.49,247.37,447.17,247,447.2,247.09Z" transform="translate(-6.88 53.92)"/><path class="cls-6" d="M448.42,248.42l.15.15-.14-.19C448.5,248.48,448.28,248.25,448.42,248.42Z" transform="translate(-6.88 53.92)"/><path class="cls-6" d="M446.64,246.68l.39.46-.1-.15Z" transform="translate(-6.88 53.92)"/><path class="cls-6" d="M447,247.14l.14.22S447.13,247.27,447,247.14Z" transform="translate(-6.88 53.92)"/><polygon class="cls-6" points="440.92 301.83 440.61 301.38 440.92 301.84 440.92 301.83"/><polygon class="cls-6" points="439.68 300.64 439.47 300.36 439.78 300.79 439.68 300.64"/><path class="cls-6" d="M446.54,246.81c-.17-.23-.32-.37-.42-.52a4.3,4.3,0,0,0,.29.44C446.35,246.62,446.38,246.64,446.54,246.81Z" transform="translate(-6.88 53.92)"/><path class="cls-6" d="M446.6,247l-.19-.27Z" transform="translate(-6.88 53.92)"/><path class="cls-6" d="M447.09,247.33a4.28,4.28,0,0,0-.29-.33l.28.33Z" transform="translate(-6.88 53.92)"/><path class="cls-6" d="M447.09,247.34h0Z" transform="translate(-6.88 53.92)"/><path class="cls-6" d="M447.09,247.33Z" transform="translate(-6.88 53.92)"/><path class="cls-6" d="M447.5,247.65a4.25,4.25,0,0,0,.53.68C447.85,248.1,447.71,248,447.5,247.65Z" transform="translate(-6.88 53.92)"/><path class="cls-6" d="M447.44,247.73l.08.06c-.07-.09-.18-.21-.25-.31Z" transform="translate(-6.88 53.92)"/><polygon class="cls-6" points="440.64 301.77 440.56 301.65 440.53 301.63 440.64 301.77"/><path class="cls-6" d="M446.89,247.28c.11.15.11.17.12.21s.1.08.11.07A1.91,1.91,0,0,0,446.89,247.28Z" transform="translate(-6.88 53.92)"/><path class="cls-6" d="M447,247.34v0S447.06,247.39,447,247.34Z" transform="translate(-6.88 53.92)"/><path class="cls-6" d="M446.89,247.57l.05.06,0,0Z" transform="translate(-6.88 53.92)"/><path class="cls-6" d="M447.17,247.62c.07,0,0,0-.07-.14,0,0,0,.07,0,.08Z" transform="translate(-6.88 53.92)"/><path class="cls-6" d="M446.7,247.18l.16.17C446.77,247.25,446.63,247.09,446.7,247.18Z" transform="translate(-6.88 53.92)"/><path class="cls-6" d="M447,247.27v0C446.87,247.18,446.9,247.22,447,247.27Z" transform="translate(-6.88 53.92)"/><path class="cls-6" d="M447,247.27a1.72,1.72,0,0,0,.15.21,1.23,1.23,0,0,0-.08-.12Z" transform="translate(-6.88 53.92)"/><path class="cls-6" d="M448.58,249.74c-.24-.31-.45-.62-.16-.3-.17-.25-1-1.25-1.48-1.81a5.54,5.54,0,0,1,.34.46,7.42,7.42,0,0,1,.57.65c.1.18-.11-.09-.26-.24.33.37.42.58.88,1.14l-.13-.21C448.41,249.51,448.51,249.66,448.58,249.74Z" transform="translate(-6.88 53.92)"/><path class="cls-6" d="M447,247.63l0,0c-.06-.05-.16-.17-.37-.4.11.17.2.28.28.39H447Z" transform="translate(-6.88 53.92)"/><path class="cls-6" d="M447,247.55c.27.35.36.5.67.86a3.75,3.75,0,0,0-.31-.45c0,.11-.14-.2-.32-.37s-.05-.08-.05-.1l-.15-.14,0,0h0l0,0h0l.1.12a.44.44,0,0,1-.1-.12l0-.06h0l.11.22S447,247.61,447,247.55Z" transform="translate(-6.88 53.92)"/><path class="cls-6" d="M448.59,249.07l-.07-.08S448.57,249.07,448.59,249.07Z" transform="translate(-6.88 53.92)"/><path class="cls-6" d="M448.41,248.88s-.14-.18-.11-.16.13.16.22.27a2.61,2.61,0,0,0-.32-.4l0,0c-.11-.1-.47-.51-.5-.55C448,248.38,448.16,248.6,448.41,248.88Z" transform="translate(-6.88 53.92)"/><path class="cls-6" d="M447.78,248.3l.1.2.25.27-.14-.17C448.07,248.65,447.89,248.44,447.78,248.3Z" transform="translate(-6.88 53.92)"/><polygon class="cls-6" points="439.88 301.33 439.6 300.97 439.98 301.49 439.88 301.33"/><polygon class="cls-6" points="439.87 301.41 439.62 301.1 439.76 301.3 439.87 301.41"/><path class="cls-6" d="M447.34,253.32l.06.09A.24.24,0,0,0,447.34,253.32Z" transform="translate(-6.88 53.92)"/><path class="cls-6" d="M447.43,253.28l-.12-.15A1,1,0,0,0,447.43,253.28Z" transform="translate(-6.88 53.92)"/><path class="cls-6" d="M445.69,248.4c-.25-.28-.62-.71-.34-.37l.27.34C445.59,248.3,445.62,248.33,445.69,248.4Z" transform="translate(-6.88 53.92)"/><path class="cls-6" d="M446.58,251l.08.1-.25-.33Z" transform="translate(-6.88 53.92)"/><path class="cls-6" d="M447.69,252.42l-.19-.21A2,2,0,0,0,447.69,252.42Z" transform="translate(-6.88 53.92)"/><path class="cls-6" d="M447.24,254l.26.36S447.37,254.16,447.24,254Z" transform="translate(-6.88 53.92)"/><path class="cls-6" d="M446.39,248l-.19-.18C446.37,248,446.62,248.26,446.39,248Z" transform="translate(-6.88 53.92)"/><path class="cls-6" d="M444.48,249.71a2.17,2.17,0,0,0,.15.22A1.74,1.74,0,0,0,444.48,249.71Z" transform="translate(-6.88 53.92)"/><path class="cls-6" d="M446.16,247.83l.07.07c0-.06-.06-.11,0-.1C446.07,247.66,446,247.59,446.16,247.83Z" transform="translate(-6.88 53.92)"/><path class="cls-6" d="M445.58,254.87l0,0Z" transform="translate(-6.88 53.92)"/><path class="cls-6" d="M442.41,251.8s0,0,0,0S442.38,251.75,442.41,251.8Z" transform="translate(-6.88 53.92)"/><path class="cls-6" d="M446.45,247.48Z" transform="translate(-6.88 53.92)"/><path class="cls-6" d="M447.57,248.78l.13.17Z" transform="translate(-6.88 53.92)"/><path class="cls-6" d="M447.77,250h0Z" transform="translate(-6.88 53.92)"/><path class="cls-6" d="M446.59,247.63l-.1-.09Z" transform="translate(-6.88 53.92)"/><path class="cls-6" d="M446.46,247.47l0,0C446.45,247.44,446.42,247.4,446.46,247.47Z" transform="translate(-6.88 53.92)"/><path class="cls-6" d="M446.45,247.51l0,0,0-.06Z" transform="translate(-6.88 53.92)"/><path class="cls-6" d="M445.62,253.35l0,0C445.69,253.47,445.68,253.44,445.62,253.35Z" transform="translate(-6.88 53.92)"/><path class="cls-6" d="M448.28,252.1v0h0Z" transform="translate(-6.88 53.92)"/><path class="cls-6" d="M448.45,252.38c-.33-.43-.28-.39-.2-.31l-.79-1Z" transform="translate(-6.88 53.92)"/><path class="cls-6" d="M447.25,253.56l.27.28a4.28,4.28,0,0,0,.58.77c-.85-1.05,0-.18-.85-1.24l.2.21s0,.06,0,0c.44.48-.59-.78-.43-.66a2.24,2.24,0,0,1,.3.35l-.18-.29a.92.92,0,0,1,.15.19l0-.12,0,0c-.13-.17-.32-.44-.4-.56a2.77,2.77,0,0,1,.19.25l-.18-.28c.23.27.43.55.38.53.88,1-.19-.29.35.29l.09.15a7.35,7.35,0,0,0,.67.71c-.16-.19-.81-.9-1-1.19.07.08.11.11,0-.12.3.38.24.27.24.24l.4.5c-.09-.16-.3-.41-.47-.65a7.43,7.43,0,0,1,.65.74c.1,0-.53-.6-.56-.73.18.17,0,0-.17-.38.16.15.24.31.37.44l-.31-.41a2.16,2.16,0,0,1,.16.19c-.11-.16-.4-.5-.48-.65-.44-.55.69.76.22.11.12.14.24.31.4.5-.29-.44-.2-.32-.61-.9l.29.3a13.17,13.17,0,0,1-.92-1.2l-.36-.4-.17-.29c.07.07.2.25.36.46a1.25,1.25,0,0,0-.09-.12,8.49,8.49,0,0,1,.6.75l-.26-.3c.24.31.5.65.74.94l-.1-.14.16.21c.05,0,0-.07-.13-.2l.45.55-.17-.22.33.3c-.42-.58-1.05-1.43-1.18-1.7.31.42.53.66.92,1.15-.43-.5.13.25,0,.17a2.28,2.28,0,0,1,.3.36l-.32-.51a3.11,3.11,0,0,0,.39.44c-.64-.77-.38-.55-.55-.81.21.26.42.53.35.49.5.57-.71-.94-.28-.47,0,0,0,0,.07.11-.17-.24,0-.09.19.15h0c.11.06.13-.1-.4-.76l.74.93-1.72-2.28c.45.57,1.57,1.9,1.8,2.25.07.08.16.16,0-.06s-.68-.81-.72-.87c.54.62.3.33.76.84-.11-.11-.81-1-.78-1s.72.87.79,1l-.67-.91c.12.17.6.75.8,1-.14-.17,0,0,0-.11l-.18-.19c.15.1-.95-1.27-.87-1.26.14.19.89,1.13,1,1.22-.35-.46-1.69-2.19-1.93-2.57l.21.25-.2-.32c.52.69,1.61,2.15,2,2.73.18.19.25.3.26.25a1.69,1.69,0,0,1,.28.4l.18.11c-.42-.52-.37-.56-.73-1l.38.6a8.93,8.93,0,0,1-1.05-1.46c.18.2.74.94.89,1.11-.14-.18-.24-.37-.14-.25l.21.29c.18.18-.52-.72-.09-.24,0,0,.57.65.33.34-.5-.59-2-2.43-2.35-2.89,0,0,.51.53.76.82.4.45.88,1.13,1.22,1.52-.12-.14-.25-.32-.29-.38.11.11.35.44.32.36-.43-.53.08,0-.35-.45-.1-.17.11.09.12,0-.29-.33-.92-1.18-1-1.35l.33.39c.08,0,.3.23.34.2.11.13.25.27.43.5-.07-.1-.21-.28-.21-.3.4.43,0,.09.5.63a7.21,7.21,0,0,1-.45-.66c-.39-.47-.12-.06,0,.15-.53-.66-1-1.37-1.26-1.71-.1-.19.36.41.29.31.16.07-.87-1.19-.44-.76s.68.83.93,1.13c.1.18-.26-.23-.27-.2l.19.18c.1.15.17.27.06.16.32.36.17,0,.49.29a3.35,3.35,0,0,0-.35-.47l0,.07c-.29-.32-.35-.49-.5-.63s-.45-.64-.26-.48l.39.47c-.11-.13-.25-.26-.14-.11-.16-.22.57.61.07,0l-.28-.31c-.18-.26-.56-.79-.41-.66-.39-.46,0,.06-.43-.47.57.67-.09,0,.52.72-.54-.62-.25-.24-.72-.77.13.16.25.29.17.23l.11.15h0l.2.23c.28.37.24.39.38.58-.07-.06-.14-.18-.28-.34l.2.29a8,8,0,0,1-.63-.78h0c-.18-.19-.26-.25-.16-.09-.07-.06.28.41.07.13l.13.25-.07-.08c-.08,0,.38.65-.18.05.06.1.13.22,0,.14l-.25-.29c.07.12-.3-.26-.05.06-.68-.8-.24-.11-.39-.22l.32.39s0,.13.13.31l.28.34c.21.31-.26-.19-.27-.13-.1-.13-.06-.11,0,0-.68-.75.37.65-.14.11.09.13.05.1,0,0v0h0l-.16-.17.16.18a.64.64,0,0,0,.08.16l-.31-.37h0c-.12-.13.13.19.37.46a2.22,2.22,0,0,0,.17.24c-.5-.6.13.23-.4-.4a10.6,10.6,0,0,0,.66.95l-.11-.14c-.07-.06-.15-.13,0,.07l-.39-.47.49.66a9.3,9.3,0,0,1-.67-.82c.41.6.14.24.55.83l-.25-.31s.31.45.1.2c-.5-.56-.2,0-.72-.45.75.89-.36-.38.21.32a6.2,6.2,0,0,1-.43-.52c.14.24-.33-.29.13.32-.18-.21-.25-.32-.36-.45,0,0,.14.2,0,.08a2.86,2.86,0,0,1-.21-.29,11.92,11.92,0,0,0,1,1.36c-.26-.28-.24-.23.08.18a3.2,3.2,0,0,1-.39-.49s-.32-.23.08.27c-.11-.13,0,0,0,0s-.09-.05-.08,0l.07.07c.48.61.09.16.12.25l-.05-.06c-.4-.39.15.22-.3-.23l.3.37c.64.81-.43-.43-.21-.1l.18.2c.21.29-.93-1-1-1.14l-.13-.17c-.42-.44.39.49.45.63-.22-.26-.53-.67-.59-.71-.19-.2.62.91.19.43a5.55,5.55,0,0,1,.44.56c0,.09-.68-.72-.18-.06l-.14-.15a6.39,6.39,0,0,0,.44.67c-1.06-1.27.39.72-.57-.47v.11l-.1-.12c-.1-.05.12.24.34.54l-.21-.26c-.24-.19-.21-.14.23.49l-.32-.38c.17.23-.56-.55-.25-.06l-.13-.18c.31.5-1-1,.11.47l.24.37a10.58,10.58,0,0,1,.7.83c.05.1-.39-.38-.43-.47l.06.07c-.58-.74-.27-.21-.67-.71-.06.11-.49-.22-.6-.18l.47.56h-.06c-.11-.12-.37-.43-.33-.43-.27-.31.18.3.28.43a5.89,5.89,0,0,1-.54-.68l0,0,.05.07c.18.24.38.49.33.48s-.3-.34-.32-.36-.05-.06,0,0h-.08l.38.43c.16.24-.06,0,.37.5-.66-.76-.37-.16-.59-.39.24.35.21.36.15.35.09.08.5.58.42.54a11.32,11.32,0,0,0-1-1.14c.42.48,0,.18.63.86-.09-.07-.32-.39-.53-.62.27.44-.33-.17-.28,0a6.55,6.55,0,0,1,.44.55l-.59-.66c.05.08.63.8.22.34a3.18,3.18,0,0,1,.27.34c-.66-.57.19.75-.95-.41.24.26.25.29.24.31s.27.34.42.52l-.46-.47c.4.52,0,.08.36.58l-.06-.1c.45.59,1.08,1.26,1.68,2-.51-.68.85.92.13-.05.13.14.19.24.33.41-.25-.33-.29-.4-.15-.28l.06.08c0-.13.29.17.53.32l-.31-.37a1.79,1.79,0,0,1,.24.24c-.44-.58-.07,0-.55-.63.62.74.12-.07.82.77,0,0-.35-.43-.32-.44l.19.23-.24-.31a5,5,0,0,1,.46.52s0,.06,0,.08c.24.26,0-.14.06-.06l-.13-.12c-.11-.27.21,0-.1-.55l-.15-.17c-.21-.36.19.16.13,0l0,0c-.13-.18-.19-.28-.16-.27.15.21.35.37.51.61a7.43,7.43,0,0,0-.68-1l.24.28a2.45,2.45,0,0,1-.34-.51c.18.27.37.43.61.78.57.58-.43-.71.34.19-.62-.81-.41-.4-.53-.58s-.46-.62-.38-.55.86,1,.89.95,0,.06,0,.06c.19.19-.19-.31.1,0-.38-.49.05,0-.44-.61l.07.17c-.11-.18-.67-.92-.35-.6l.29.4c.16.17-.08-.14.08,0,.5.62.06.17.42.66.22.25-.32-.48.21.19-.67-.86.13.08-.36-.6l.29.37c0-.06-.17-.24-.15-.24l.37.49c-.31-.42.33.32.18.08,0,0-.37-.43-.61-.69-.34-.54.81.94.74.71,0,.06-.21-.2-.34-.38a4.66,4.66,0,0,1,.37.38c0-.11-.31-.37-.48-.61.38.43-.12-.2-.22-.36l.31.37c.24.2-.62-.79-.34-.54l.4.54-.08-.16.34.43c-.23-.33-.16-.26,0-.16a5.19,5.19,0,0,1-.53-.71c.19.21.28.36.27.28.18.24.41.54.12.21l.28.36c.22.24.09,0,.09,0l-.08-.07-.37-.56a4.22,4.22,0,0,1,.29.37,2.92,2.92,0,0,1-.17-.27,8.85,8.85,0,0,1,.59.78l-.23-.38c.12.13.32.35.41.47s-.42-.64-.2-.43l-.11-.17c.08,0,.41.39.11,0l.46.53c-.07-.15-.58-.67-.7-.92s.39.46.52.6c-.2-.29-.63-.87-.23-.45C447.3,253.58,447.22,253.51,447.25,253.56Zm.15-.53c.06.08.24.34.06.12C447.12,252.71,447.29,252.91,447.4,253Zm-.19-1.34c.1.13,0,.07-.09-.06S447.12,251.6,447.21,251.69Zm-.62-3.82,0,0Zm.17.14-.13-.16c.08.1.07.11,0,.09S446.81,248.1,446.76,248Zm-3.28,2.89.08.1C443.64,251.12,443.56,251,443.48,250.9Z" transform="translate(-6.88 53.92)"/><path class="cls-6" d="M447.56,252.25l-.16-.2A1.56,1.56,0,0,0,447.56,252.25Z" transform="translate(-6.88 53.92)"/><path class="cls-6" d="M447.19,253.93h0l.06.06Z" transform="translate(-6.88 53.92)"/><path class="cls-6" d="M448.84,251.59l-.17-.19A.87.87,0,0,0,448.84,251.59Z" transform="translate(-6.88 53.92)"/><path class="cls-6" d="M446.41,247.24l.06.11s.06.05.11.11Z" transform="translate(-6.88 53.92)"/><path class="cls-6" d="M448.46,249.42l0-.06-.14-.18S448.39,249.35,448.46,249.42Z" transform="translate(-6.88 53.92)"/><path class="cls-6" d="M447.43,248.47c.26.31.19.2.15.13h0C447.23,248.15,447.33,248.31,447.43,248.47Z" transform="translate(-6.88 53.92)"/><path class="cls-6" d="M447.58,248.58s0,0,0,0C447.44,248.39,447.55,248.53,447.58,248.58Z" transform="translate(-6.88 53.92)"/><path class="cls-6" d="M446.63,247.77c.07.07-.33-.41-.22-.28C446.1,247.08,446.76,248,446.63,247.77Z" transform="translate(-6.88 53.92)"/><polygon class="cls-6" points="441.41 303.42 441.09 303.03 441.34 303.36 441.41 303.42"/><path class="cls-6" d="M447.94,249.3l.11.09-.1-.13S447.85,249.19,447.94,249.3Z" transform="translate(-6.88 53.92)"/><path class="cls-6" d="M448,249.26s0,0,0-.08A.23.23,0,0,0,448,249.26Z" transform="translate(-6.88 53.92)"/><polygon class="cls-6" points="441.47 303.56 441.4 303.49 441.36 303.47 441.47 303.56"/><path class="cls-6" d="M447.64,249.43l.06.13c.11.13.18.21.15.15A2,2,0,0,0,447.64,249.43Z" transform="translate(-6.88 53.92)"/><path class="cls-6" d="M448.58,250.43a2.53,2.53,0,0,1-.25-.28l.38.48Z" transform="translate(-6.88 53.92)"/><path class="cls-6" d="M448.59,250.6c.11.14.28.42.29.36A2.68,2.68,0,0,0,448.59,250.6Z" transform="translate(-6.88 53.92)"/><polygon class="cls-6" points="440.85 304.21 440.85 304.2 440.21 303.41 440.85 304.21"/><path class="cls-6" d="M448.93,252.45c.18.17-.39-.49-.17-.27-.14-.2-.18-.18-.3-.35A3.41,3.41,0,0,0,448.93,252.45Z" transform="translate(-6.88 53.92)"/><path class="cls-6" d="M448.46,251.83l-.09-.13A.92.92,0,0,0,448.46,251.83Z" transform="translate(-6.88 53.92)"/><polygon class="cls-6" points="435.13 305.35 434.97 305.2 435.2 305.46 435.13 305.35"/><path class="cls-6" d="M442.44,252.05l-.41-.5.36.46S442.34,251.94,442.44,252.05Z" transform="translate(-6.88 53.92)"/><path class="cls-6" d="M448.28,254l-.1-.12c-.11-.13-.12-.14-.14-.15Z" transform="translate(-6.88 53.92)"/><polygon class="cls-6" points="440.84 307.75 440.85 307.76 440.48 307.31 440.84 307.75"/><path class="cls-6" d="M448,254.59s0-.1,0-.09S447.51,254,448,254.59Z" transform="translate(-6.88 53.92)"/><path class="cls-6" d="M443.13,226.21s-.23-.31-.27-.37C442.9,225.93,443.2,226.29,443.13,226.21Z" transform="translate(-6.88 53.92)"/><polygon class="cls-6" points="436.69 281 436.58 280.86 436.82 281.21 436.69 281"/><path class="cls-6" d="M443.41,227.19c.46.55,0-.13.17.05l.1.12-.34-.46C443.36,227,443.56,227.33,443.41,227.19Z" transform="translate(-6.88 53.92)"/><path class="cls-6" d="M442.37,226c.18.22.13.21.07.06l0,0Z" transform="translate(-6.88 53.92)"/><path class="cls-6" d="M442.4,226.05s-.16-.18,0,0Z" transform="translate(-6.88 53.92)"/><path class="cls-6" d="M442.42,226.23l-.13-.21c-.11-.13-.15-.14-.22-.24A2.8,2.8,0,0,0,442.42,226.23Z" transform="translate(-6.88 53.92)"/><path class="cls-6" d="M442.73,226.65l-.06-.09C442.63,226.51,442.61,226.49,442.73,226.65Z" transform="translate(-6.88 53.92)"/><path class="cls-6" d="M442.56,226.37l.11.19c.08.09.22.27,0-.07C442.76,226.66,442.64,226.49,442.56,226.37Z" transform="translate(-6.88 53.92)"/><path class="cls-6" d="M442.64,226.44a2,2,0,0,1,.31.39C442.93,226.72,442.62,226.33,442.64,226.44Z" transform="translate(-6.88 53.92)"/><path class="cls-6" d="M443.86,227.78l.15.15-.14-.2C443.94,227.83,443.72,227.6,443.86,227.78Z" transform="translate(-6.88 53.92)"/><path class="cls-6" d="M442.06,226l.39.46-.1-.15A3.39,3.39,0,0,1,442.06,226Z" transform="translate(-6.88 53.92)"/><path class="cls-6" d="M442.45,226.5l.13.23S442.55,226.63,442.45,226.5Z" transform="translate(-6.88 53.92)"/><polygon class="cls-6" points="436.34 281.19 436.04 280.74 436.34 281.21 436.34 281.19"/><polygon class="cls-6" points="435.09 280.01 434.88 279.73 435.19 280.16 435.09 280.01"/><path class="cls-6" d="M442,226.19c-.18-.24-.32-.38-.42-.53a2.66,2.66,0,0,0,.28.45C441.75,226,441.78,226,442,226.19Z" transform="translate(-6.88 53.92)"/><path class="cls-6" d="M442,226.38a2.47,2.47,0,0,0-.18-.27Z" transform="translate(-6.88 53.92)"/><path class="cls-6" d="M442.5,226.7a4.28,4.28,0,0,0-.29-.33l.28.33Z" transform="translate(-6.88 53.92)"/><path class="cls-6" d="M442.49,226.71h0Z" transform="translate(-6.88 53.92)"/><path class="cls-6" d="M442.5,226.7h0S442.53,226.74,442.5,226.7Z" transform="translate(-6.88 53.92)"/><path class="cls-6" d="M442.92,227a4,4,0,0,0,.51.68C443.26,227.47,443.12,227.32,442.92,227Z" transform="translate(-6.88 53.92)"/><path class="cls-6" d="M442.85,227.11l.08,0a2.55,2.55,0,0,1-.24-.31Z" transform="translate(-6.88 53.92)"/><polygon class="cls-6" points="436.04 281.14 435.97 281.03 435.94 281.01 436.04 281.14"/><path class="cls-6" d="M442.28,226.66c.11.16.11.18.11.21s.11.08.13.07S442.29,226.64,442.28,226.66Z" transform="translate(-6.88 53.92)"/><path class="cls-6" d="M442.41,226.72v0S442.45,226.77,442.41,226.72Z" transform="translate(-6.88 53.92)"/><path class="cls-6" d="M442.26,227l.05.06,0-.06Z" transform="translate(-6.88 53.92)"/><path class="cls-6" d="M442.57,227c.06.06,0,0-.08-.14a.27.27,0,0,1,0,.08C442.55,227,442.58,227,442.57,227Z" transform="translate(-6.88 53.92)"/><path class="cls-6" d="M442.08,226.57l.17.17C442.16,226.64,442,226.48,442.08,226.57Z" transform="translate(-6.88 53.92)"/><path class="cls-6" d="M442.35,226.65v0C442.28,226.56,442.3,226.6,442.35,226.65Z" transform="translate(-6.88 53.92)"/><path class="cls-6" d="M442.35,226.65l.14.21a.4.4,0,0,0-.07-.12Z" transform="translate(-6.88 53.92)"/><path class="cls-6" d="M443.93,229.15c-.24-.31-.44-.62-.16-.31-.16-.25-1-1.26-1.46-1.81a4,4,0,0,1,.33.46,7.24,7.24,0,0,1,.57.65c.1.19-.11-.08-.26-.24.32.38.41.6.87,1.16l-.13-.22C443.76,228.93,443.86,229.08,443.93,229.15Z" transform="translate(-6.88 53.92)"/><path class="cls-6" d="M442.39,227l0-.05c-.05,0-.16-.16-.36-.39a3.89,3.89,0,0,0,.27.38h.08Z" transform="translate(-6.88 53.92)"/><path class="cls-6" d="M442.41,226.94c.26.35.35.51.65.86a3.61,3.61,0,0,0-.3-.46c0,.13-.14-.19-.32-.36a.41.41,0,0,1-.05-.11l-.14-.13v0h0l0,0h0a1.47,1.47,0,0,0,.1.13.32.32,0,0,1-.1-.13l0-.05h0l.1.22C442.41,227,442.42,227,442.41,226.94Z" transform="translate(-6.88 53.92)"/><path class="cls-6" d="M444,228.45l-.07-.08S444,228.45,444,228.45Z" transform="translate(-6.88 53.92)"/><path class="cls-6" d="M443.8,228.26s-.13-.19-.09-.16a3.17,3.17,0,0,1,.21.27,2.6,2.6,0,0,0-.32-.41l0,0c-.12-.1-.47-.5-.51-.55Z" transform="translate(-6.88 53.92)"/><path class="cls-6" d="M443.17,227.69l.1.2.25.27-.14-.17C443.45,228,443.28,227.83,443.17,227.69Z" transform="translate(-6.88 53.92)"/><polygon class="cls-6" points="435.25 280.73 434.97 280.37 435.35 280.89 435.25 280.73"/><polygon class="cls-6" points="435.23 280.81 434.99 280.5 435.12 280.7 435.23 280.81"/><path class="cls-6" d="M442.3,233l.06.1Z" transform="translate(-6.88 53.92)"/><path class="cls-6" d="M442.4,233l-.12-.15A1,1,0,0,0,442.4,233Z" transform="translate(-6.88 53.92)"/><path class="cls-6" d="M440.89,227.91c-.24-.28-.62-.71-.34-.36l.27.33C440.79,227.81,440.83,227.84,440.89,227.91Z" transform="translate(-6.88 53.92)"/><path class="cls-6" d="M441.65,230.62l.09.1-.25-.34Z" transform="translate(-6.88 53.92)"/><path class="cls-6" d="M442.75,232l-.19-.2Z" transform="translate(-6.88 53.92)"/><path class="cls-6" d="M442.13,233.72l.26.36S442.27,233.9,442.13,233.72Z" transform="translate(-6.88 53.92)"/><path class="cls-6" d="M441.69,227.43a.89.89,0,0,0-.2-.18C441.66,227.43,441.91,227.71,441.69,227.43Z" transform="translate(-6.88 53.92)"/><path class="cls-6" d="M439.47,229.37a1.46,1.46,0,0,0,.16.21A2,2,0,0,0,439.47,229.37Z" transform="translate(-6.88 53.92)"/><path class="cls-6" d="M441.45,227.28l.07.08c0-.07-.06-.12,0-.11C441.36,227.11,441.28,227,441.45,227.28Z" transform="translate(-6.88 53.92)"/><path class="cls-6" d="M440.27,234.74l0,0Z" transform="translate(-6.88 53.92)"/><path class="cls-6" d="M437.07,231.69s0,0,0,0S437,231.64,437.07,231.69Z" transform="translate(-6.88 53.92)"/><path class="cls-6" d="M441.79,226.9s0,0,0,0Z" transform="translate(-6.88 53.92)"/><path class="cls-6" d="M442.91,228.21a.92.92,0,0,0,.12.16Z" transform="translate(-6.88 53.92)"/><path class="cls-6" d="M443,229.48h0C443.08,229.55,443.06,229.54,443,229.48Z" transform="translate(-6.88 53.92)"/><path class="cls-6" d="M441.93,227l-.1-.09Z" transform="translate(-6.88 53.92)"/><path class="cls-6" d="M441.8,226.89l0,0C441.79,226.85,441.76,226.82,441.8,226.89Z" transform="translate(-6.88 53.92)"/><path class="cls-6" d="M441.79,226.93s0,0,0,0l0,0Z" transform="translate(-6.88 53.92)"/><path class="cls-6" d="M440.43,233.14l0,0C440.5,233.26,440.49,233.23,440.43,233.14Z" transform="translate(-6.88 53.92)"/><path class="cls-6" d="M443.41,231.66h0Z" transform="translate(-6.88 53.92)"/><path class="cls-6" d="M443.57,232c-.32-.44-.26-.39-.18-.31l-.79-1Z" transform="translate(-6.88 53.92)"/><path class="cls-6" d="M442.18,233.26l.27.28a4,4,0,0,0,.57.79c-.84-1.07,0-.2-.82-1.26l.19.21,0,.05c.44.48-.59-.79-.42-.68a2.24,2.24,0,0,1,.3.35l-.17-.29s.17.2.14.19v-.13l0,0-.39-.57c.13.15.08.12.19.25l-.17-.28c.23.27.41.55.36.53.87,1-.18-.29.37.29l.08.15a6.27,6.27,0,0,0,.67.71c-.16-.19-.81-.9-1-1.19.07.07.11.1,0-.13.3.38.24.28.25.24l.39.5c-.09-.16-.29-.42-.46-.65a6.06,6.06,0,0,1,.64.73c.11.05-.52-.6-.54-.73.18.17,0-.06-.16-.39a4.61,4.61,0,0,1,.37.45l-.3-.42.16.19c-.11-.17-.4-.5-.48-.66-.43-.55.7.77.23.11.13.14.24.31.4.5-.28-.45-.2-.33-.6-.91l.3.3a11.25,11.25,0,0,1-.91-1.21l-.35-.4-.17-.31c.07.08.2.26.36.47a1.25,1.25,0,0,0-.09-.12,8.49,8.49,0,0,1,.6.75,3.58,3.58,0,0,1-.26-.29c.23.31.48.65.72.95a1,1,0,0,1-.09-.15l.16.21-.14-.2.45.55-.17-.22.33.3c-.4-.59-1-1.45-1.14-1.73.31.42.53.67.91,1.16-.42-.5.12.26,0,.18a2.28,2.28,0,0,1,.3.36l-.31-.52a2.16,2.16,0,0,0,.39.44c-.63-.77-.37-.55-.54-.81.21.26.42.53.34.49.5.57-.69-.95-.26-.48,0,0,0,0,.07.11-.17-.24,0-.09.19.15h0c.12,0,.15-.11-.37-.78l.73.94-1.69-2.31c.44.58,1.55,1.92,1.77,2.28.08.07.17.15,0-.07s-.68-.81-.71-.87c.54.61.29.32.76.84-.11-.12-.81-1-.77-1s.71.89.77,1l-.65-.91c.12.16.59.75.8,1-.14-.17.05,0,0-.12l-.18-.18c.16.09-.93-1.28-.84-1.28.14.19.87,1.13,1,1.22-.35-.46-1.67-2.21-1.9-2.59l.21.25-.2-.32c.52.69,1.59,2.17,2,2.75.18.19.25.3.26.26a1.3,1.3,0,0,1,.27.4l.2.1c-.43-.52-.37-.57-.72-1l.36.61a7.79,7.79,0,0,1-1-1.48c.17.2.73.95.87,1.12-.14-.18-.23-.38-.12-.25l.2.29c.18.18-.51-.73-.08-.25,0,0,.57.65.33.34-.5-.59-2-2.45-2.32-2.91,0,0,.51.53.76.82.39.46.86,1.14,1.2,1.54l-.29-.39c.11.11.35.45.33.36-.42-.54.08,0-.35-.46-.1-.17.11.09.12,0-.28-.33-.9-1.19-1-1.36.11.13.25.31.32.38s.31.23.36.2c.11.13.25.27.43.5a2.41,2.41,0,0,1-.21-.31c.4.44,0,.1.49.64a5.39,5.39,0,0,1-.43-.67c-.39-.47-.13-.05,0,.16a17,17,0,0,1-1.23-1.73c-.09-.2.35.41.29.31.16.06-.86-1.2-.42-.77s.67.84.91,1.14-.26-.23-.27-.2l.19.18c.1.15.16.27.05.16.32.36.19,0,.52.28a5.46,5.46,0,0,0-.34-.48l0,.08c-.29-.33-.34-.5-.49-.64s-.44-.65-.25-.49l.39.48c-.12-.14-.25-.27-.15-.12-.15-.22.57.61.09,0l-.29-.32c-.17-.26-.54-.79-.39-.66-.39-.47,0,.06-.43-.48.57.68-.1,0,.51.73-.53-.62-.26-.24-.72-.77.13.16.25.3.16.24l.11.14h0v0s0,0,0,0l.2.23a5.4,5.4,0,0,1,.37.59,2.94,2.94,0,0,1-.28-.35l.2.3a6.87,6.87,0,0,1-.63-.79h-.05c-.17-.18-.26-.24-.16-.08-.07-.06.27.42.07.14l.12.25-.07-.08c-.08,0,.36.66-.2.07.06.1.12.22,0,.14l-.25-.3c.06.13-.3-.25-.06.07-.67-.8-.25-.09-.4-.21l.32.4s0,.13.11.31l.28.35c.2.31-.27-.19-.28-.12-.11-.14-.07-.11,0,0-.69-.75.34.67-.16.13.09.13.05.1,0,0s0,0,0,0h0l-.17-.18.17.18s0,.07.07.17l-.31-.38v0c-.12-.13.13.18.36.46l.17.24c-.5-.6.12.24-.41-.4.25.32.13.29.65,1l-.11-.13c-.07-.07-.15-.13,0,.07l-.39-.48.48.67a8,8,0,0,1-.67-.82c.41.6.13.24.54.84l-.24-.31s.3.45.08.2c-.49-.56-.22.05-.74-.43.74.9-.36-.38.2.33a5.65,5.65,0,0,1-.42-.52c.12.24-.34-.3.11.32-.18-.21-.25-.32-.35-.44,0,0,.13.19,0,.07a2.86,2.86,0,0,1-.21-.29,11.61,11.61,0,0,0,1,1.37c-.25-.28-.23-.23.08.19a3.2,3.2,0,0,1-.39-.49s-.33-.23.07.27c-.11-.12-.05,0,0,0s-.1,0-.09,0l.07.08c.47.61.08.15.11.25l-.05-.07c-.4-.38.14.23-.31-.21l.3.37c.63.81-.43-.44-.22-.1l.18.21c.2.29-.93-1.06-1-1.15a.59.59,0,0,1-.12-.17c-.43-.44.38.5.43.64a6.89,6.89,0,0,0-.59-.71c-.18-.21.61.92.17.44.17.2.34.4.45.56s-.69-.71-.2,0a1,1,0,0,1-.13-.16,4.89,4.89,0,0,0,.41.69c-1-1.28.38.74-.57-.46v.11l-.1-.12c-.1-.05.11.25.32.55-.07-.07-.15-.19-.2-.25-.25-.2-.22-.14.21.49l-.32-.38c.17.23-.56-.54-.26,0L439,230c.3.5-1-1,.09.48l.24.38c.14.06.47.62.68.84,0,.1-.39-.39-.42-.48l.06.07c-.58-.75-.28-.21-.68-.71-.08.12-.51-.2-.63-.15l.46.56h-.06c-.12-.13-.37-.44-.32-.44-.27-.31.17.31.27.43a5.12,5.12,0,0,1-.54-.68v.06l.06.06c.17.25.37.5.31.49a4.54,4.54,0,0,1-.31-.36s-.05-.06,0,0h-.08l.38.44c.15.24-.07,0,.36.51-.66-.77-.39-.16-.61-.39.24.36.21.37.14.36s.49.59.41.55a11.93,11.93,0,0,0-1-1.15c.41.49,0,.19.61.88-.1-.07-.32-.39-.53-.63.26.46-.34-.16-.3,0s.28.34.43.55l-.58-.65c0,.07.61.8.21.34.09.12.24.29.26.34-.67-.56.15.78-1-.37.24.25.24.29.24.31s.27.34.42.53l-.47-.47c.4.52,0,.08.34.58l-.05-.1c.44.61,1.07,1.27,1.66,2-.5-.69.86.92.15-.07.13.15.18.25.33.42-.25-.33-.29-.41-.15-.29l.06.09c0-.14.3.15.55.3l-.3-.37a2.37,2.37,0,0,1,.24.23c-.43-.57-.08,0-.55-.62.62.73.13-.09.83.75,0,0-.35-.42-.32-.44l.19.23-.23-.3a3.8,3.8,0,0,1,.46.51s0,.06,0,.08c.24.26,0-.14.07-.06l-.14-.12c-.1-.28.23-.05-.07-.58l-.14-.17c-.2-.36.2.16.14,0l0,0c-.13-.19-.18-.29-.15-.28.15.21.35.37.51.62a7.84,7.84,0,0,0-.67-1l.24.28a2.7,2.7,0,0,1-.33-.51c.17.27.37.42.6.78.57.58-.41-.72.36.19-.61-.83-.41-.41-.53-.59s-.45-.62-.37-.56.85,1,.89.95,0,.06,0,.06c.18.19-.18-.31.11,0-.38-.5,0,0-.44-.62l.07.18c-.1-.19-.65-.93-.33-.61l.28.4c.15.17-.08-.14.09,0,.49.63.05.18.39.68.22.25-.3-.49.22.19-.66-.87.14.07-.35-.61l.3.37a2.36,2.36,0,0,1-.16-.24l.37.49c-.3-.43.34.32.19.07-.05.06-.37-.43-.61-.69-.32-.55.81.94.75.7,0,.06-.22-.19-.34-.37a2.69,2.69,0,0,1,.37.38c0-.12-.31-.38-.47-.63.38.44-.12-.2-.21-.36l.3.37c.25.2-.61-.8-.32-.54l.39.54-.08-.16.34.43c-.23-.34-.15-.26,0-.17a4.07,4.07,0,0,1-.52-.72c.2.21.27.37.27.29.18.24.4.54.11.21l.28.36c.22.25.09,0,.1,0a.26.26,0,0,1-.08-.08l-.36-.56a2.77,2.77,0,0,1,.28.37c0-.05-.15-.23-.16-.28.24.32.49.63.59.79l-.22-.38c.11.13.31.35.4.47s-.41-.65-.18-.45a.69.69,0,0,1-.11-.17c.09,0,.42.4.13-.06l.46.53c-.07-.15-.59-.66-.7-.92s.39.46.53.61c-.21-.3-.62-.89-.23-.47C442.23,233.28,442.16,233.21,442.18,233.26Zm.21-.57c.06.09.23.35.05.13C442.11,232.38,442.28,232.58,442.39,232.69Zm-.1-1.39c.09.13,0,.07-.09-.06S442.2,231.21,442.29,231.3Zm-.38-4,0,0Zm.17.14-.12-.16c.07.1.07.11,0,.09S442.14,227.53,442.08,227.44Zm-3.79,3.24.09.1C438.45,230.9,438.38,230.8,438.29,230.68Z" transform="translate(-6.88 53.92)"/><path class="cls-6" d="M442.63,231.87c-.06-.06-.11-.13-.17-.2A1.51,1.51,0,0,0,442.63,231.87Z" transform="translate(-6.88 53.92)"/><path class="cls-6" d="M442.08,233.66h0l.05.07Z" transform="translate(-6.88 53.92)"/><path class="cls-6" d="M444.06,231.09l-.17-.18A.74.74,0,0,0,444.06,231.09Z" transform="translate(-6.88 53.92)"/><path class="cls-6" d="M441.76,226.64l.06.12s.06.05.12.11A2.22,2.22,0,0,1,441.76,226.64Z" transform="translate(-6.88 53.92)"/><path class="cls-6" d="M443.82,228.82s0,0,0-.06l-.14-.17A.65.65,0,0,0,443.82,228.82Z" transform="translate(-6.88 53.92)"/><path class="cls-6" d="M442.78,227.88c.26.32.18.2.15.13h0C442.58,227.56,442.68,227.72,442.78,227.88Z" transform="translate(-6.88 53.92)"/><path class="cls-6" d="M442.93,228s0,0,0,0C442.8,227.79,442.9,227.94,442.93,228Z" transform="translate(-6.88 53.92)"/><path class="cls-6" d="M442,227.19c.07.08-.32-.41-.21-.28C441.44,226.5,442.09,227.44,442,227.19Z" transform="translate(-6.88 53.92)"/><polygon class="cls-6" points="436.75 282.84 436.43 282.45 436.67 282.78 436.75 282.84"/><path class="cls-6" d="M443.27,228.73l.11.09a.76.76,0,0,1-.1-.14S443.18,228.62,443.27,228.73Z" transform="translate(-6.88 53.92)"/><path class="cls-6" d="M443.28,228.68s0,0,0-.08A.15.15,0,0,0,443.28,228.68Z" transform="translate(-6.88 53.92)"/><polygon class="cls-6" points="436.81 282.99 436.73 282.91 436.69 282.9 436.81 282.99"/><path class="cls-6" d="M442.93,228.88l.06.14c.1.13.18.21.14.15A1.7,1.7,0,0,0,442.93,228.88Z" transform="translate(-6.88 53.92)"/><path class="cls-6" d="M443.87,229.89c-.08-.08-.15-.17-.25-.29l.38.49Z" transform="translate(-6.88 53.92)"/><path class="cls-6" d="M443.87,230.07c.11.13.27.42.28.36A1.5,1.5,0,0,0,443.87,230.07Z" transform="translate(-6.88 53.92)"/><polygon class="cls-6" points="436.08 283.71 436.08 283.7 435.45 282.9 436.08 283.71"/><path class="cls-6" d="M444.09,232c.19.16-.38-.5-.16-.28-.14-.2-.18-.18-.3-.35A3.5,3.5,0,0,0,444.09,232Z" transform="translate(-6.88 53.92)"/><path class="cls-6" d="M443.63,231.37l-.09-.13A.92.92,0,0,0,443.63,231.37Z" transform="translate(-6.88 53.92)"/><polygon class="cls-6" points="429.77 285.25 429.62 285.1 429.85 285.36 429.77 285.25"/><path class="cls-6" d="M437.08,232l-.41-.5.35.47S437,231.84,437.08,232Z" transform="translate(-6.88 53.92)"/><path class="cls-6" d="M443.26,233.67l-.09-.12c-.11-.13-.12-.14-.15-.15Z" transform="translate(-6.88 53.92)"/><polygon class="cls-6" points="435.79 287.44 435.81 287.45 435.43 287 435.79 287.44"/><path class="cls-6" d="M442.89,234.31s-.05-.1,0-.09S442.43,233.73,442.89,234.31Z" transform="translate(-6.88 53.92)"/><path class="cls-5" d="M124.94,82c0-.27-.45-.15-.41.12,1.16,7.38-10.79,10.21-15.9,11.28-6.54,1.37-13.92,1.33-19.87-2.1a17.56,17.56,0,0,1-5.12-4.73,36.25,36.25,0,0,0,6.21-2.78c6.46-3.71,14.27-14.17,5.46-19.89-7.83-5.09-16.6,2.89-17,10.91a17.48,17.48,0,0,0,3,10.65c-1,.25-2,.48-2.94.68a91.22,91.22,0,0,1-31.65.78C24.23,83.24,6.72,65.18,8.45,41.5c.85-11.63,6.27-22,14.36-30.19,6-6.06,13-11.41,17.25-18.92,11.28-20-6.87-38.54-24.08-46.27-.47-.21-.89.48-.41.7,13.81,6.35,28,17.83,27,34.67C41.6-3.79,27.17,4.16,18.41,14.19c-16,18.35-15.76,47.53,3.3,63.73,9.12,7.75,21,10.89,32.79,11.5,8.75.46,19.07.26,28-2.53a22.88,22.88,0,0,0,14.91,8C104.29,95.68,127.06,93,124.94,82ZM87.86,63.43c4.76-1.24,10.2,2,10.33,7.15.1,3.58-2.61,7-5.18,9.27a26.78,26.78,0,0,1-10.36,5.22C77.8,77.36,77.24,66.17,87.86,63.43Z" transform="translate(-6.88 53.92)"/></g></g></g></svg>