<svg xmlns="http://www.w3.org/2000/svg" xmlns:xlink="http://www.w3.org/1999/xlink" viewBox="0 0 280.68 210.44"><defs><style>.cls-1{fill:none;}.cls-2{clip-path:url(#clip-path);}.cls-3{fill:#fed3b8;}.cls-4{fill:#fed8c0;}.cls-5{fill:#010a38;}.cls-6{fill:#1e264e;}</style><clipPath id="clip-path" transform="translate(-25.57 103.86)"><rect class="cls-1" width="314.87" height="119.38"/></clipPath></defs><g id="图层_2" data-name="图层 2"><g id="OBJECTS"><g class="cls-2"><path class="cls-3" d="M82.07-79.48S41.07,9.11,109.9,64.76,323,46.46,304.65-51.66,82.07-79.48,82.07-79.48Z" transform="translate(-25.57 103.86)"/><path class="cls-4" d="M53.31-14.37c0-.48-.2-.31-.24-.38C53.13-14,53.36-14.39,53.31-14.37Z" transform="translate(-25.57 103.86)"/><polygon class="cls-4" points="28.48 97.26 28.38 97.13 28.68 98.25 28.48 97.26"/><path class="cls-4" d="M54.8.63c.28-.73-.46-2.6-.43-3.91l.07-.22L54.11-4C54.22-2.48,54.76-.48,54.8.63Z" transform="translate(-25.57 103.86)"/><path class="cls-4" d="M54.62,4.6c.09-.26.28.8-.13-.9v.16Z" transform="translate(-25.57 103.86)"/><path class="cls-4" d="M54.49,3.86c-.16-.75,0,.52,0,0Z" transform="translate(-25.57 103.86)"/><path class="cls-4" d="M55.25,7.34l-.32-1c0,.22.12,1.12,0,.8C55.19,8.18,55.23,8,55.25,7.34Z" transform="translate(-25.57 103.86)"/><path class="cls-4" d="M55.69,8.23l-.15-.5C55.52,7.82,55.54,8,55.69,8.23Z" transform="translate(-25.57 103.86)"/><path class="cls-4" d="M55.21,6.66l.33,1.07c0-.16.14-.2-.14-.5C55.52,7.3,55.38,7.11,55.21,6.66Z" transform="translate(-25.57 103.86)"/><path class="cls-4" d="M55.15,6c0-.58-.13-1.3.19-.33C54.92,3.81,54.72,4.13,55.15,6Z" transform="translate(-25.57 103.86)"/><path class="cls-4" d="M55.21,1V.19L55-.44C55.11-.13,55.11,1,55.21,1Z" transform="translate(-25.57 103.86)"/><path class="cls-4" d="M56.51,13.54c.09.05.11-.38.19-.48l-.27-.7C56.47,12.74,56.61,13.46,56.51,13.54Z" transform="translate(-25.57 103.86)"/><path class="cls-4" d="M56.7,13.06l.4,1C56.87,13.14,56.76,13,56.7,13.06Z" transform="translate(-25.57 103.86)"/><polygon class="cls-4" points="30.54 112.19 29.92 110.44 30.61 112.53 30.54 112.19"/><polygon class="cls-4" points="32.11 121.53 31.75 120.97 32.35 121.98 32.11 121.53"/><path class="cls-4" d="M58.57,20.37c-.28-.4,0,.7-.28.25a8.43,8.43,0,0,0,.92,1.83A6.64,6.64,0,0,1,58.57,20.37Z" transform="translate(-25.57 103.86)"/><path class="cls-4" d="M59.72,23.33c-.15-.28-.32-.57-.51-.88A6.48,6.48,0,0,0,59.72,23.33Z" transform="translate(-25.57 103.86)"/><path class="cls-4" d="M57.56,16a1.83,1.83,0,0,0,.06.91l.07-.48Z" transform="translate(-25.57 103.86)"/><path class="cls-4" d="M57.69,16.37v0l.28.91Z" transform="translate(-25.57 103.86)"/><path class="cls-4" d="M57.53,15.86l0,.1A.08.08,0,0,0,57.53,15.86Z" transform="translate(-25.57 103.86)"/><path class="cls-4" d="M56.58,11.22c.28.61.74,1.89.59.57C56.92,11.37,57,12.13,56.58,11.22Z" transform="translate(-25.57 103.86)"/><path class="cls-4" d="M57.63,15.26l-.25-1.16s-.07.27-.21,0Z" transform="translate(-25.57 103.86)"/><path class="cls-4" d="M57.86,15.8c-.08-.18-.16-.36-.23-.54,0,.15.07.29.11.43Z" transform="translate(-25.57 103.86)"/><path class="cls-4" d="M59.18,21.35a12.2,12.2,0,0,1,.72,1.57c-.2-.66-.45-1.31-.65-2C59.16,20.9,59,20.66,59.18,21.35Z" transform="translate(-25.57 103.86)"/><path class="cls-4" d="M58.48,18.92l0,.11C58.52,19,58.51,18.9,58.48,18.92Z" transform="translate(-25.57 103.86)"/><polygon class="cls-4" points="36.63 132.58 36.63 132.47 36.58 132.46 36.63 132.58"/><path class="cls-4" d="M59.25,20.85a3.14,3.14,0,0,0-.4-1c.13.36.27.74.4,1.15C59.29,21,59.31,21,59.25,20.85Z" transform="translate(-25.57 103.86)"/><path class="cls-4" d="M60.43,24.93c0-.27-.13-.56-.21-.87A2.56,2.56,0,0,0,60.43,24.93Z" transform="translate(-25.57 103.86)"/><path class="cls-4" d="M58.52,19.21l0-.07C58.49,19.32,58.51,19.29,58.52,19.21Z" transform="translate(-25.57 103.86)"/><path class="cls-4" d="M58.52,19.21a6.73,6.73,0,0,0,.33.61c-.11-.29-.22-.56-.33-.79A.54.54,0,0,1,58.52,19.21Z" transform="translate(-25.57 103.86)"/><path class="cls-4" d="M64.22,29.88A4.2,4.2,0,0,1,63,27.61c-.59-1-.89-.05-.83,1,.1,0,.17,0,.75,1-.06-.42-.82-2.47-.25-1.64a4.66,4.66,0,0,1,.66,1.92c0-.69,1.12,1.65,1.31,1.18L64,29.88S64.32,30.25,64.22,29.88Z" transform="translate(-25.57 103.86)"/><path class="cls-4" d="M61.33,26.55l-.19-.45c.17.53.22.94.38,1.66.41.7.55.82.63.84-.3-.73-.65-1.44-.9-2.2Z" transform="translate(-25.57 103.86)"/><path class="cls-4" d="M60.37,24.08c.34.27.83,1.32.8.58-.52-1.32-.52-.87-.91-1.62.86,2.11-.34-.58.13,1-.2-.41-.35-.78-.49-1.13.12.39.23.77.32,1.14V24h0c0-.1,0-.13,0,0l0,0a.2.2,0,0,1,.11.07c.19.63,0,.11-.11-.07l0,0h0l.92,2.1C61,25.64,60.78,25.07,60.37,24.08Z" transform="translate(-25.57 103.86)"/><path class="cls-4" d="M57.92,12.85c0,.08,0,.08,0,.09S58,13.12,57.92,12.85Z" transform="translate(-25.57 103.86)"/><path class="cls-4" d="M58,13.79a2.2,2.2,0,0,1-.3-.79c0-.47.1,0,.16-.06-.13-.3-.43-1.06-.28,0l.07.15a6.6,6.6,0,0,1,.12,2A3.35,3.35,0,0,0,58,13.79Z" transform="translate(-25.57 103.86)"/><path class="cls-4" d="M59.15,19l.67,1.77-.11-1-.09.08C59.33,18.83,59.27,19.1,59.15,19Z" transform="translate(-25.57 103.86)"/><polygon class="cls-4" points="36.62 132.82 36.31 132.68 37.05 133.56 36.62 132.82"/><polygon class="cls-4" points="37.65 135.08 37.43 135.08 37.81 135.63 37.65 135.08"/><path class="cls-4" d="M177.42,95.72l.55-.06Z" transform="translate(-25.57 103.86)"/><path class="cls-4" d="M173.44,95.62l-.1.1C173.52,95.67,173.6,95.63,173.44,95.62Z" transform="translate(-25.57 103.86)"/><path class="cls-4" d="M102.46,76.82c.59.6,1.2,1.34,1.24,1.1l-.1-.32A7.36,7.36,0,0,1,102.46,76.82Z" transform="translate(-25.57 103.86)"/><path class="cls-4" d="M140.9,92l-.22-.12-.58.05Z" transform="translate(-25.57 103.86)"/><path class="cls-4" d="M141.67,91.26l1,.39C142.45,91.55,142.13,91.42,141.67,91.26Z" transform="translate(-25.57 103.86)"/><path class="cls-4" d="M199,93.59l.58-.34C198.57,93.45,199,93.47,199,93.59Z" transform="translate(-25.57 103.86)"/><path class="cls-4" d="M76.42,52.87a9.57,9.57,0,0,0,1,1.46C77,53.61,76.69,53,76.42,52.87Z" transform="translate(-25.57 103.86)"/><path class="cls-4" d="M175.81,98c.34,0,.49-.07.48-.12C175.94,97.91,175.74,98,175.81,98Z" transform="translate(-25.57 103.86)"/><path class="cls-4" d="M78.72,55.9l-.2-.32c-.35-.37-.71-.76-1.1-1.25A6,6,0,0,0,78.72,55.9Z" transform="translate(-25.57 103.86)"/><path class="cls-4" d="M267,55.68l.15-.1S267.06,55.59,267,55.68Z" transform="translate(-25.57 103.86)"/><path class="cls-4" d="M285.26,41.28l-.67.68A8.64,8.64,0,0,0,285.26,41.28Z" transform="translate(-25.57 103.86)"/><path class="cls-4" d="M67.71,40.14c-.28-.45-.06-.06,0,0Z" transform="translate(-25.57 103.86)"/><path class="cls-4" d="M67.19,37.51c.07.09.14.15.19.13A.33.33,0,0,1,67.19,37.51Z" transform="translate(-25.57 103.86)"/><path class="cls-4" d="M83.18,58.93l0,0C83.13,58.82,83.14,58.84,83.18,58.93Z" transform="translate(-25.57 103.86)"/><path class="cls-4" d="M67.4,39.41c.07.18.17.39.28.61C67.64,39.92,67.56,39.73,67.4,39.41Z" transform="translate(-25.57 103.86)"/><path class="cls-4" d="M67.36,39.55l-.21-.41C67.08,39.1,67.09,39.16,67.36,39.55Z" transform="translate(-25.57 103.86)"/><path class="cls-4" d="M68.09,40.77c-.15-.26-.29-.51-.41-.75q.06.15,0,.12Z" transform="translate(-25.57 103.86)"/><path class="cls-4" d="M233.3,81.37l.1,0C233.81,81,233.62,81.11,233.3,81.37Z" transform="translate(-25.57 103.86)"/><path class="cls-4" d="M115.36,81.56l-.06,0,.06,0Z" transform="translate(-25.57 103.86)"/><path class="cls-4" d="M117.09,82.24a3.82,3.82,0,0,1-1.73-.65l.28.83Z" transform="translate(-25.57 103.86)"/><path class="cls-4" d="M186.93,95.33l-1.31-.1c1.54-.43,2.67-.4,1.44-.59-.13.72-5,.38-5.17,1l-.86-.12c.25,0,.29,0,.53,0-1.67-.29-1.23.53-3.38.44-.75,0-1.27-.15-.76-.23-.56.06-1.12.1-1.68.14s-.36-.13.12-.11c-.85,0-1.69,0-2.54,0h0c-.37.09-1.2.22-1.61.27-.64-.12.33-.06.17-.15l-1.42.09c-.57-.22.61-.3,1.58-.24-1.28-.73-1.18.12-4-.46h1.33a17.74,17.74,0,0,0-3.34-.74c.34.15,2.95.84,1.41.89a6.44,6.44,0,0,0-1.83-.09c0-.24-.79-.26-1.8-.35l.11-.31a6.72,6.72,0,0,0-1.68.22c-1.21-.18-1.43-.45-1.69-.69-1.92-.31,1.29.57-1,.33a29.85,29.85,0,0,0-4.68-.5c-1.1-.29.23-.16-.16-.32l-1,.1c-.24,0-.15-.11-.11-.14-.85,0-.12.3-1.45.15-.41.26-2.6-1-4.29-1-.38-.17.23-.15.14-.3-2.27-.23-1.94-.2-3.83-.29l-1.49-.58c1.07.51-.44.43-1.77.35.37.21.69.39.91.49-.69-.1-1.39-.21-2.07-.35-.23-.12,0-.17.36-.21l-.39,0c-.69-.31-.26-.38.3-.41l.67.39c.55-.07,1.07-.16,1-.37a4.54,4.54,0,0,1-.69-.08c.14,0,.24,0,.19-.09a2.54,2.54,0,0,0-.64,0l-.37-.47-.14.11L137.49,90c-1-.08-1.92-.16-3-.28a20.93,20.93,0,0,1-3.75-.75c.81,0,.29-.36.43-.64.69.6,2.31.64,3.82,1.16-.79-.28-.57-.37-.35-.35-.93-.19-1.88-.36-2.81-.59.14-.22-.51-.37-1.18-.71.37.64-2.13-.35-3.26-.65,0-.19.3-.23,1.62.28-1.34-.88-2.09-.15-3.42-1,.32.12.49.21.65.18-.82-.14-2.62-1-2.12-1l.32.13c-1-.47-2.67-1.13-4.07-1.68a8.38,8.38,0,0,0-2.84-.86,1.63,1.63,0,0,1,.65-.36c-1.45-.11-2.87-.32-4.33-.5.49-.17-.36-1.56,1.44-.9a10.45,10.45,0,0,0-2.13-1c.31.21.59.89.12.69a23.44,23.44,0,0,0-2.12-1.77c.46.33-.36.54-1.13.1.16,0,.21-.53.52-.43-.74-.18-1.47-.37-2.2-.59.53.19.32-.36,0-.75.14.21-1.63-1-2.16-1.22l.74.58c-2.1-1.33-2.5-.63-4.58-2,.32.07,1-.2,0-.93a12.87,12.87,0,0,1-4.81-1.41l-.24-.39-1.46-.87c.55.14,1.55.48,2.6.86s2.17.73,2.92,1c-.68-.64-.1-.31-1.25-1.09-.31-.41.76.24,1.1.47-.86-.65-1.74-1.27-2.57-2-.08.36-2.16-1.22-2.24-.92,1,.61,2,1.25,3,1.82-.09.38-2.2-.43-4-1.88-.38-.46.72-.21.75-.33a7.63,7.63,0,0,1-1.94-1.39l.86.49c-.89-.92-1.88-1-2.84-2.23-.39-.36-.92-1.34-1.13-1.25.41.84-.24,1.85-.88,1.69a29,29,0,0,1-2.13-2.74c-.43-.83,1.44.38,1.08-.32-.09,0-.51-.21-.68-.32-.35-.44.36,0-.55-.85-.38.11-1.76-1.71-.61-.19a14.62,14.62,0,0,1-1.84-1.9c.15.48-1.39-.39-2.28-1.2.11,0,0-.28,0-.41-1.68-1.78-2.35-2.93-3.81-4.67-.08-.21-.7-1.11-.29-.85a6,6,0,0,1-1-.9c-.29-.63,0-.32.23,0s.61.66.42.16c-.23.07-1.32-1.26-2-2,0,.42,1.3,1.91,2.07,2.57-.16.14-.62-.06-1.22-.51a18,18,0,0,1-2.12-2.11c-1.22-1.47-.28-.82-.52-1.05a15.85,15.85,0,0,0-2.11-2.46,7.21,7.21,0,0,1-1.64-2.26c-.42-1.12.42-.33.44-.65.93,1.23,1.16,2.07,1.75,2.94L72.77,46A8.18,8.18,0,0,1,74,47.69c-.31-1-3.35-5-4.44-7.52-.33-.37-.83-1.05-.72-.66l.47.73c.21.8-1.09-1.26-.62-.26a13.69,13.69,0,0,1-2.24-3.47l.13-.42a3.84,3.84,0,0,0,.62,1.41c-.43-.55-.78-2.44-1.47-2.92L66,35.7a17.83,17.83,0,0,1-2.18-3.49c0,.74.16.3.31,1.38,0-1,1.7,3.36,1.45,1.85.13,1.14.67,1.74,1,3.13.07-.08-.08-.52.5.57l.21.19,0,.08,0-.07s0,0,0,0a2.41,2.41,0,0,1-.19-.62,32.18,32.18,0,0,1,1.93,2.62c.32.65-.26-.21-.15.19l.65.76c-.14.2.66,1.87-.32.45.25.45.51.9.8,1.33a13.16,13.16,0,0,0,1.56,2.5c.36.64,1.22,1.4.73,1q.7,1,1.5,1.92l0,.05c1.42,1.93,3.18,3.77,4.67,6.09a21,21,0,0,1,2,2.26l0,.33A29,29,0,0,0,83,60.77a8.53,8.53,0,0,0,2,2.48c1,.91,2.1,1.85,2.73,2.51l.22-.14c.46.44.91.85,1.41,1.28s1.07.82,1.7,1.28l.07-.23A12.44,12.44,0,0,1,93,69.56a20.13,20.13,0,0,0,2.32,2,2.55,2.55,0,0,1-.85-.63,13.8,13.8,0,0,0,3.09,2.41,16.25,16.25,0,0,1,3.09,2.1,5.44,5.44,0,0,1,1.15.77l-.12-.07.19.13.61.53a6.78,6.78,0,0,0-.5-.46c.38.24,1,.57,1.54.88l.1.36.14.07c.49.43.49.19.3-.15a6.83,6.83,0,0,0,.81.34c.24.6,1.54.77,1.94,1.49a10.78,10.78,0,0,1,1.71.76,3.78,3.78,0,0,0,1.75.53c0,.06.14.18-.17,0a9.14,9.14,0,0,0,1.87,1l.13.42c.53.13,1.07.23,1.61.35.78.59,1.09.87.13.65,2.24.7,1.73.75,3.68,1.23l-.17.14a10.61,10.61,0,0,1,2.1.84A27.79,27.79,0,0,0,124,87.41c2.11.81,4.51,1.74,6.38,2.53-.56-.8,1.7.87,2,.48.19.2.7.44,0,.36,2,.48,2.91,1.15,4.39,1.17.19.2-.48.08-.3.21a2.33,2.33,0,0,1,.85.2c.18.13-.33,0-.66,0,2.05.54,2.37.19,2.62-.16a3.81,3.81,0,0,0,2.32.51c.33.21.9.49-.39.23.71.19,4.34,1.26,4.49.93a4.29,4.29,0,0,0,1.19.25c1.62.36,1.75.43,3.35.7l-.43-.14c.7-.26,1.34.16,2.64.36l-.05,0c2.91.78,1.3.08,4.17.87l-.12-.26c.34-.46,2.54.68,4.28.7l-.6-.21c.95-.07,2.52,1,3.46,1.16.2.07-.33,0-.62,0,2.43.55.35-.28,2.19-.17.32.2-.48.39.76.53.61.2,3.63-.26,5.3.15-.37-.15-.73-.31.13-.35,1.31,0,3.53.63,4.73.23.16,0,.22.07.23.11a27.53,27.53,0,0,0,3.86-.4c.95.83,6.2-.62,6.22.09,1-.08,2-.17,3.08-.29l-.08.08a9,9,0,0,0,3.31-.68c.46,0,.14.11.11.15a15.64,15.64,0,0,0,5.48-1.1l.29.2c.62-.22,4.18-.41,6.85-1.44,0,0-.07.09-.28.18,3-1,7.54-1.49,8.37-2.7.64-.3,1.29-.54,1.91-.89-2.57.84.26-.48-.85-.26,1-.41,2.66-.74,1.46-.21l-.21,0c-.28.62,3.19-1.08,3.24-.75l1.86-.73c.62-.25,1.22-.53,1.82-.79l3.6-1.56c2.37-1.06,4.64-2.25,6.87-3.39l-.69,0c.53-.25,1-.56,1.53-.84s.67-.06-.41.55a4.08,4.08,0,0,0,1.7-1.29c2.18-1.1-.6.85,0,.48l.86-.54-.22.08a7.69,7.69,0,0,1,1.91-1.46c.86-.41.54,0,.87-.23,0,0,.13,0,.49-.3l1.86-1.16-.89.23c.74-.65,1.74-1.11.71-.83a19.78,19.78,0,0,0,4.14-2.37c1.62-1.14,3.15-2.27,3.57-2.46a34.83,34.83,0,0,1,3.4-2.75c-.37.2-.76.09.41-.74,0,.84,2.28-1.34,3.47-1.7-1,.4,3.13-2.63,1.58-2,1-.71.21.15,1-.3,2.07-2,4.92-3.9,7.54-6.26,0-.11-.54.19-.07-.42l1.68-.91c.49-.49.14-.8,1.29-1.42-.19.06-.46.16-.13-.17,5.4-4.32,10.06-9.84,15.57-14.22-.8.55-.36.09.15-.42-.36.3-.14-.16-.29-.18l2.3-1.84c.14-.61,2.19-2.25,2.18-2.68l-.61.69c.6-1.13-1.8.64-2,.18-.66,1.28-3,2.13-4.18,4.15-.42.28.19-.41-.07-.3a6.4,6.4,0,0,1-1.7,1.9l.06-.14c-2.53,2.56-3.79,3.48-6.8,6.17l.38,0a8.1,8.1,0,0,1-1.18.87c-.48.94,1.8-1.65,1.4-.74-1.17.43-4.47,4.19-5.43,4.29-1,.89.48-.06-.52.83l-.36.12-.13.37c-.67.56-1.12.72-1.23.65.17-.14.43-.43.59-.59a34.23,34.23,0,0,0-2.67,2.39l1-.78c-2.64,2.5-6.13,5.26-8.69,7.67l.27-.08a46,46,0,0,1-4,3.15l.07-.09a11.25,11.25,0,0,1-1.65,1.44c.52-.55-1.27.65-.58-.06a12.28,12.28,0,0,0-2.34,2.48l-.47.11a6.45,6.45,0,0,1-1.61,1.5c.89-.82-.93.31.05-.64a16.41,16.41,0,0,0-3,2.07A4.85,4.85,0,0,1,241.3,76c-.9,1.19,2.4-1.22,1.8-.69.65-.23-.77,1-1.62,1.44s-1.76.36-3.84,1.7c.21-.12.2-.17.41-.3a29.46,29.46,0,0,1-2.55,1.48c-.4.59-1.28.73-1.25,1.17l1.92-1.23a18.56,18.56,0,0,1-3.82,2.63,7.68,7.68,0,0,1,1-.83c-.6.21-1,.68-1.63.86,0-.39,2.36-1.45,3.4-2.4-.66.19-2.11,1.57-1.72.84a3.23,3.23,0,0,1-1.46,1.1,7.55,7.55,0,0,0-2,1.18l0-.26a7.6,7.6,0,0,1-1.08.73l.64-.68c-1.09.86-2.41,1-3.51,1.72,2.42-1.24.67,0,1.77-.39a4.58,4.58,0,0,1-2.49,1,7.26,7.26,0,0,0-2.86,1c.45-.24,1.79-.66,1.12-.23a13.85,13.85,0,0,1-2,.63c-2.24,1.08.44.07-.46.64-.88.1-1.08.58-2.06,1.08l-.1-.22c-2.69.89-.51.74-3,1.5l.89-.71-1.21.57.16-.36a9.19,9.19,0,0,1-3.09,1.18c.36.06,0,.47-1.23.87-.86.13.38-.37-1.3.22a2.19,2.19,0,0,1,1.5-.61c0-.1.33-.27.38-.37a18.22,18.22,0,0,0-2.82.88,4.26,4.26,0,0,1,.68-.16c-.79.36-1.56.78-2.37,1.07-.41,0-.12-.13.17-.28-.5.15-.82.35-1.56.56.14-.24,0-.42,1.07-.78l-2.32.82c-.18,0-1.27.08-1-.07a14.7,14.7,0,0,0-2.29.72,15.05,15.05,0,0,1-2.65.64,2.23,2.23,0,0,1-.64.22,40.14,40.14,0,0,0-5.13.8L192,94.45c-1.55.27,1.59.25-1,.7-1.83.3-.72-.23-1.38-.26a10.55,10.55,0,0,1-4.19.59C186,95.38,186.41,95.4,186.93,95.33Zm-19.42.06a3.59,3.59,0,0,1,1.4,0C168.46,95.68,168.14,95.52,167.51,95.39Zm-29.28-4.6a3,3,0,0,1,1.16.37A6.67,6.67,0,0,1,138.23,90.79ZM70.87,45l0,0C71.3,45.77,71.16,45.49,70.87,45ZM70,43.43c-.12-.13-.14-.11-.13,0a3.26,3.26,0,0,1,.58.79A1.72,1.72,0,0,0,70,43.43ZM238.92,79.94l-.33.13C239.22,79.6,239.06,79.76,238.92,79.94Z" transform="translate(-25.57 103.86)"/><path class="cls-4" d="M141.57,91.35a.29.29,0,0,1,.13.16C141.85,91.51,141.86,91.46,141.57,91.35Z" transform="translate(-25.57 103.86)"/><path class="cls-4" d="M198.86,93.65h.06a.12.12,0,0,0,.05,0Z" transform="translate(-25.57 103.86)"/><path class="cls-4" d="M88.76,63.23a3,3,0,0,1,.42.57S89.15,63.62,88.76,63.23Z" transform="translate(-25.57 103.86)"/><path class="cls-4" d="M65,35.39l.58,1a5.05,5.05,0,0,1-.4-1S65.19,35.71,65,35.39Z" transform="translate(-25.57 103.86)"/><path class="cls-4" d="M62.29,25.82c-.09-.15-.13-.33-.22-.47l-.08.08C62.24,26.09,62.5,26.51,62.29,25.82Z" transform="translate(-25.57 103.86)"/><path class="cls-4" d="M65.26,34.09c.14-.17-.24-.77-.64-1.46l.06.12C64.32,32.67,64.79,33.38,65.26,34.09Z" transform="translate(-25.57 103.86)"/><path class="cls-4" d="M64.53,32.47a6.56,6.56,0,0,1-.3-.67C64.09,31.76,64.32,32.08,64.53,32.47Z" transform="translate(-25.57 103.86)"/><path class="cls-4" d="M68.73,41.55c-.15-.35-.35-.07-.38-.3C67.91,41,69.89,43.28,68.73,41.55Z" transform="translate(-25.57 103.86)"/><polygon class="cls-4" points="40 137.09 39.9 137.45 40.28 137.75 40 137.09"/><path class="cls-4" d="M68.31,38.84l-.57-1.13s-.13-.09-.24-.26A8.5,8.5,0,0,0,68.31,38.84Z" transform="translate(-25.57 103.86)"/><path class="cls-4" d="M67.5,37.45a7.08,7.08,0,0,0-.5-.89C67.1,36.76,67.33,37.18,67.5,37.45Z" transform="translate(-25.57 103.86)"/><polygon class="cls-4" points="40.85 138.59 40.97 138.94 41.36 139.75 40.85 138.59"/><path class="cls-4" d="M75.67,50.26l.88,1.06c.15.07,0-.27-.36-.66C75.94,50.43,75.61,50,75.67,50.26Z" transform="translate(-25.57 103.86)"/><path class="cls-4" d="M73.81,46.48a1.57,1.57,0,0,1,.17.61l.28-.14Z" transform="translate(-25.57 103.86)"/><path class="cls-4" d="M76.19,49.69c.15.06,1.38,1.45.33.07C76.37,49.7,75.5,48.64,76.19,49.69Z" transform="translate(-25.57 103.86)"/><polygon class="cls-4" points="64.15 169.17 63.89 168.93 63.59 169.34 64.15 169.17"/><path class="cls-4" d="M104.91,75.31c-1.29-1-.49.06-1.63-.85-.39-.11.93.74.55.62C104.72,75.5,105.11,75.84,104.91,75.31Z" transform="translate(-25.57 103.86)"/><path class="cls-4" d="M103.83,75.08l-.46-.2C103.62,75,103.75,75.05,103.83,75.08Z" transform="translate(-25.57 103.86)"/><polygon class="cls-4" points="262.59 142.59 263.41 141.92 262.81 142.28 262.59 142.59"/><path class="cls-4" d="M289.31,37l.41.06.23-.66A2.56,2.56,0,0,1,289.31,37Z" transform="translate(-25.57 103.86)"/><path class="cls-4" d="M164.69,94.48l-.09.07a2.28,2.28,0,0,0,.88.19Z" transform="translate(-25.57 103.86)"/><polygon class="cls-4" points="153.16 199.26 152.91 199.25 153.37 199.54 153.16 199.26"/><path class="cls-4" d="M190.46,94.38c-.48,0-1,.16-1.51.19C190,94.42,190.63,94.74,190.46,94.38Z" transform="translate(-25.57 103.86)"/><path class="cls-5" d="M69.86,49.24a13.22,13.22,0,0,0-10,15.94,13,13,0,0,0,16.4,9.49.44.44,0,0,0,.34,0C92,69.32,86,45.53,69.86,49.24ZM61.3,65.49c-2.13-6.85,2.64-13.77,9.5-15a11.32,11.32,0,0,1,7.34,1.18C71,50,63.44,54,62.54,61.8a11,11,0,0,0,7.19,11.7A11.66,11.66,0,0,1,61.3,65.49Zm15,8.15a.49.49,0,0,0-.24.18l-.63.07a.17.17,0,0,0-.17-.21c-6.73.38-12.57-4.84-11.72-11.81.92-7.49,8.37-11.14,15.19-9.08a.44.44,0,0,0,.57-.42,11.9,11.9,0,0,1,4.53,5.9C86,64.66,82.38,71.16,76.29,73.64Z" transform="translate(-25.57 103.86)"/><path class="cls-5" d="M118.79,46.57c-2.59-8-5.64-17.57-10.61-24.4-4.69-6.44-11.58-2.88-17.72-.54A464.83,464.83,0,0,0,46.89,40.39l-1.47-2.34a.49.49,0,0,0-.65-.17q-3.52,1.6-7,3.25c-1.49.71-4.36,1.5-5.54,2.72-1.64,1.72.26,3.06,2,3.35a.42.42,0,0,0,.12,0c-2.42,1.41-4.81,2.85-7.16,4.34a.81.81,0,0,0-1.27.43c-.78,2.77-.2,4.59.85,7.25,2.14,5.43,4.79,10.71,7.32,16Q37.4,82,40.88,88.77c1.58,3.07,3,7.08,6,9.14,6.27,4.35,17.06-2.36,23-4.8q13.2-5.48,25.91-12,6.78-3.51,13.38-7.33c3.67-2.12,8.28-4.17,11.39-7.1C125.52,61.91,120.51,51.84,118.79,46.57Zm-6.93-13c.5,1.08,1,2.19,1.51,3.32a.35.35,0,0,0-.11,0C105.62,40.89,97.81,44.47,90,48c-.38.17-.11.8.28.67a168.11,168.11,0,0,0,23.64-10.63,82.83,82.83,0,0,1,5.69,17A202.72,202.72,0,0,0,92.87,69.35,17.29,17.29,0,0,0,93,54a21.68,21.68,0,0,0-6-7.71c8.13-4.38,16.16-8.74,24.61-12.52A.47.47,0,0,0,111.86,33.54ZM90.44,71h0c-.65-.16-1.3-.3-2-.43a19.2,19.2,0,0,0,1.81-6c.68,0,1.36,0,2,0a.36.36,0,0,0,.28-.13,7.53,7.53,0,0,1,1,.26h0a15.13,15.13,0,0,1-2.68,5.93Zm0-9.54a19.93,19.93,0,0,0-.51-3.75,27.51,27.51,0,0,0,3.12-.82,15.88,15.88,0,0,1,.67,7h0a23.06,23.06,0,0,1-3.21-.2.18.18,0,0,0-.1,0A19,19,0,0,0,90.44,61.41ZM89.75,57A19.15,19.15,0,0,0,87,51.14l.39-.25.55-.34c.3.52,1.26,0,1-.62-.41-.9-1.61,0-2.32.63A20.46,20.46,0,0,0,83,46.85l.77-.38a.36.36,0,0,0,.49.07L85,46a19.7,19.7,0,0,1,7.77,9.94s0,0,0,0A27.92,27.92,0,0,0,89.75,57ZM82.46,46.43a21,21,0,0,0-7.88-3.6,20,20,0,0,1,9.55,2.63C83.58,45.79,83,46.11,82.46,46.43Zm6.26,14.18c.8,9.67-6.38,18.58-16.34,19-9.5.36-17.12-7.76-17-17.08.15-8.25,5.56-14.72,12.72-17.93A34,34,0,0,1,72.57,44C81,45.52,88,51.54,88.72,60.61ZM88.19,71.1c.64.19,1.29.37,1.94.54a23.54,23.54,0,0,1-7,5.51A19.3,19.3,0,0,0,88.19,71.1ZM44.25,39.16a2.71,2.71,0,0,1,1.87,1.62c-.75.38-1.48.77-2.22,1.16-.26-.26-.53-.5-.79-.74a14.93,14.93,0,0,0-1.32-1.06A5.75,5.75,0,0,1,44.25,39.16Zm-4,1.86c.23-.11.59-.32,1-.55a16.15,16.15,0,0,1,1.38,1.23c.2.2.37.42.55.63l-3.63,2a22.27,22.27,0,0,0-1.82-2.07C38.55,41.82,39.39,41.41,40.24,41Zm-4,1.89,1-.49a26.61,26.61,0,0,0,1.58,2.24l-1.75,1a5.17,5.17,0,0,1-1.82-2.3h0C35.71,43.14,36.07,43,36.24,42.91Zm-1.38.61A4.55,4.55,0,0,0,36.41,46c-.64.37-1.29.72-1.93,1.08a.24.24,0,0,0-.11-.39C31.39,45.53,33.28,44.28,34.86,43.52ZM34,70.47c-2.42-4.86-7.78-13-6.49-18.08a.48.48,0,0,0,0-.12c18-8.41,35.53-17.66,54-25.14,4.64-1.88,9.78-4.62,14.7-5.69,3.9-.84,8.86-.76,11.15,3A56.49,56.49,0,0,1,110,29.57c.46,1,.94,2,1.42,3a.59.59,0,0,0-.29,0A116.63,116.63,0,0,0,86.7,45.88a.25.25,0,0,0-.07.12c-6.43-5-15.44-6.24-22.75-1.3a.2.2,0,0,0-.08.23c-.38.18-.77.34-1.14.55a.25.25,0,0,0-.11.32c-5,3.34-7.7,9.1-8.12,15a.48.48,0,0,0-.35,0C47.35,63.91,40.58,67,34,70.47Zm.26.52,0,0c6.8-2.84,13.49-6,20.13-9.19a21.52,21.52,0,0,0,.13,3.11.56.56,0,0,0-.42,0c-6.26,2.7-12.41,5.75-18.47,8.89C35.18,72.85,34.72,71.93,34.28,71ZM41,84.64q-2.6-5.13-5.1-10.31c6.31-2.64,12.62-5.41,18.74-8.49C55.69,73,60.19,79.4,68,80.84A197.1,197.1,0,0,0,44.2,91C43,88.91,42,86.63,41,84.64ZM108.14,72Q102,75.55,95.72,78.84q-13.41,7-27.42,12.76c-4.23,1.74-8.61,3.79-13,5C50,98,46.93,95.35,44.64,91.69c8.74-3.85,17.58-7.31,26.57-10.54a19.74,19.74,0,0,0,2-.08,18.34,18.34,0,0,0,3.94-.78.36.36,0,0,0,.21,0,21.46,21.46,0,0,0,13.95-8.4.39.39,0,0,0,.31-.45c.2-.29.38-.58.57-.88,9.13-4.89,18.22-9.78,27.63-14.13.1.62.2,1.25.27,1.87C121,66.18,113.62,68.87,108.14,72Z" transform="translate(-25.57 103.86)"/><path class="cls-5" d="M103.2,23.53c-1.37-1.48-3-.21-4.5.54l-5,2.55a13.16,13.16,0,0,0-1.68.84.32.32,0,0,0-.4.41h0a1.59,1.59,0,0,0-.2.39.63.63,0,0,0,.44.77l.14,0a18.25,18.25,0,0,0,2.28,4.32.68.68,0,0,0,.9.24c1.71-1,3.39-1.93,5.09-2.9,1.16-.67,3.05-1.37,4-2.35C105.49,27.09,104.24,24.66,103.2,23.53ZM102.26,28a12.47,12.47,0,0,1-2.33,1.36c-1.66,1-3.32,1.92-5,2.9a15.83,15.83,0,0,1-2.23-3.48s0,0,0-.06l0-.15a.69.69,0,0,0,0-.13c1-.81,3.69-1.77,4.43-2.14,1.57-.8,4.09-2.94,5.34-1a1.87,1.87,0,0,1,.39,1.44C103.27,27.43,103,27.83,102.26,28Z" transform="translate(-25.57 103.86)"/><path class="cls-5" d="M77.57,96.2c-8.1,3.07-16.49,7.3-25,9.17-11.47,2.54-15.45-11-19.83-19a.05.05,0,1,0-.09,0c3,6.53,6.49,18.86,15,20,4,.55,8.11-1.31,11.75-2.68l18.31-6.9C78.2,96.74,78,96,77.57,96.2Z" transform="translate(-25.57 103.86)"/><path class="cls-6" d="M176,50.91l.18-.43C176.16,50.56,176,51,176,50.91Z" transform="translate(-25.57 103.86)"/><polygon class="cls-6" points="149.95 155.58 150.01 155.42 149.83 155.8 149.95 155.58"/><path class="cls-6" d="M175.37,51.65c-.27.66.1-.08,0,.16l-.06.15.23-.52C175.51,51.51,175.32,51.84,175.37,51.65Z" transform="translate(-25.57 103.86)"/><path class="cls-6" d="M175.92,50.21c-.11.25-.11.21,0,.08l0-.06S175.92,50.23,175.92,50.21Z" transform="translate(-25.57 103.86)"/><path class="cls-6" d="M175.93,50.23s.08-.22,0,0Z" transform="translate(-25.57 103.86)"/><path class="cls-6" d="M175.8,50.34l.12-.21a1.86,1.86,0,0,1,.12-.3A2.48,2.48,0,0,0,175.8,50.34Z" transform="translate(-25.57 103.86)"/><path class="cls-6" d="M175.57,50.81l.05-.09C175.65,50.66,175.65,50.63,175.57,50.81Z" transform="translate(-25.57 103.86)"/><path class="cls-6" d="M175.73,50.53l-.11.19c0,.11-.14.32,0-.07C175.57,50.84,175.66,50.66,175.73,50.53Z" transform="translate(-25.57 103.86)"/><path class="cls-6" d="M175.7,50.63a2.27,2.27,0,0,1-.2.46C175.58,51,175.77,50.56,175.7,50.63Z" transform="translate(-25.57 103.86)"/><path class="cls-6" d="M175.07,52.32l-.07.2.11-.21C175.06,52.42,175.16,52.12,175.07,52.32Z" transform="translate(-25.57 103.86)"/><path class="cls-6" d="M175.84,50l-.24.54.09-.15A2.78,2.78,0,0,1,175.84,50Z" transform="translate(-25.57 103.86)"/><path class="cls-6" d="M175.6,50.5l-.13.23S175.53,50.66,175.6,50.5Z" transform="translate(-25.57 103.86)"/><polygon class="cls-6" points="149.67 155.39 149.93 154.91 149.66 155.4 149.67 155.39"/><polygon class="cls-6" points="150.21 153.77 150.37 153.45 150.12 153.92 150.21 153.77"/><path class="cls-6" d="M175.7,49.94l.29-.61s-.15.26-.26.46C175.8,49.68,175.79,49.72,175.7,49.94Z" transform="translate(-25.57 103.86)"/><path class="cls-6" d="M175.57,50.08l.16-.29Z" transform="translate(-25.57 103.86)"/><path class="cls-6" d="M175.47,50.65c0-.09.13-.31.16-.4l-.17.39Z" transform="translate(-25.57 103.86)"/><path class="cls-6" d="M175.45,50.65h0a0,0,0,0,0,0,0Z" transform="translate(-25.57 103.86)"/><path class="cls-6" d="M175.47,50.65Z" transform="translate(-25.57 103.86)"/><path class="cls-6" d="M175.34,51.15a4.82,4.82,0,0,0-.37.78C175.1,51.67,175.17,51.47,175.34,51.15Z" transform="translate(-25.57 103.86)"/><path class="cls-6" d="M175.25,51.14l0,.1a4,4,0,0,1,.17-.36Z" transform="translate(-25.57 103.86)"/><polygon class="cls-6" points="149.61 155.12 149.68 155 149.69 154.96 149.61 155.12"/><path class="cls-6" d="M175.43,50.46a.62.62,0,0,1-.13.19c0,.08,0,.13,0,.13A2.17,2.17,0,0,0,175.43,50.46Z" transform="translate(-25.57 103.86)"/><path class="cls-6" d="M175.43,50.58l0,0S175.4,50.65,175.43,50.58Z" transform="translate(-25.57 103.86)"/><path class="cls-6" d="M175.19,50.59l0,.07,0-.07Z" transform="translate(-25.57 103.86)"/><path class="cls-6" d="M175.25,50.86c0,.07,0,0,.09-.13l-.06.05C175.26,50.84,175.24,50.87,175.25,50.86Z" transform="translate(-25.57 103.86)"/><path class="cls-6" d="M175.45,50.24l-.09.22C175.42,50.34,175.5,50.14,175.45,50.24Z" transform="translate(-25.57 103.86)"/><path class="cls-6" d="M175.46,50.5v0Z" transform="translate(-25.57 103.86)"/><path class="cls-6" d="M175.46,50.5l-.12.23.07-.13Z" transform="translate(-25.57 103.86)"/><path class="cls-6" d="M173.92,53c.18-.35.37-.66.21-.27.16-.25.72-1.43,1-2.09a4.48,4.48,0,0,1-.28.49,6.83,6.83,0,0,1-.36.79c-.12.17,0-.13.12-.33-.21.45-.36.62-.69,1.27l.15-.21C174.05,52.77,174,52.93,173.92,53Z" transform="translate(-25.57 103.86)"/><path class="cls-6" d="M175.18,50.72l0,0a5.35,5.35,0,0,1,.21-.5l-.23.41,0,.08Z" transform="translate(-25.57 103.86)"/><path class="cls-6" d="M175.25,50.7c-.2.38-.3.53-.49,1a3,3,0,0,0,.27-.47c-.09.07.12-.22.2-.45l.07-.09.06-.19v0h0l0,0h0l-.07.14a.88.88,0,0,1,.07-.14l0-.06h0l-.14.19C175.19,50.74,175.21,50.73,175.25,50.7Z" transform="translate(-25.57 103.86)"/><path class="cls-6" d="M174.55,52.76l0-.09A.31.31,0,0,0,174.55,52.76Z" transform="translate(-25.57 103.86)"/><path class="cls-6" d="M174.64,52.51s.11-.21.1-.16a3,3,0,0,1-.15.32,2.09,2.09,0,0,0,.22-.47l0,0c0-.15.24-.64.27-.7Z" transform="translate(-25.57 103.86)"/><path class="cls-6" d="M174.89,51.7l-.13.17-.14.35.09-.21C174.7,52.1,174.81,51.85,174.89,51.7Z" transform="translate(-25.57 103.86)"/><polygon class="cls-6" points="149.71 154.25 149.92 153.85 149.61 154.41 149.71 154.25"/><polygon class="cls-6" points="149.64 154.28 149.82 153.93 149.7 154.14 149.64 154.28"/><path class="cls-6" d="M169.66,52.55l-.09.08Z" transform="translate(-25.57 103.86)"/><path class="cls-6" d="M169.73,52.65l.12-.15Z" transform="translate(-25.57 103.86)"/><path class="cls-6" d="M174.13,49.85c.18-.32.48-.81.24-.44l-.23.37C174.19,49.72,174.17,49.77,174.13,49.85Z" transform="translate(-25.57 103.86)"/><path class="cls-6" d="M171.87,51.42l-.08.11.27-.32Z" transform="translate(-25.57 103.86)"/><path class="cls-6" d="M170.77,52.84l.14-.24C170.86,52.68,170.81,52.76,170.77,52.84Z" transform="translate(-25.57 103.86)"/><path class="cls-6" d="M168.87,52.46l-.32.3S168.72,52.61,168.87,52.46Z" transform="translate(-25.57 103.86)"/><path class="cls-6" d="M174.68,50.32a1.27,1.27,0,0,0,.1-.24C174.67,50.3,174.5,50.63,174.68,50.32Z" transform="translate(-25.57 103.86)"/><path class="cls-6" d="M172.71,49.1a1.8,1.8,0,0,0-.18.2A2,2,0,0,0,172.71,49.1Z" transform="translate(-25.57 103.86)"/><path class="cls-6" d="M174.75,50.06l-.05.09c.05-.06.08-.1.08-.07C174.86,49.91,174.91,49.8,174.75,50.06Z" transform="translate(-25.57 103.86)"/><path class="cls-6" d="M167.53,50.47l0,0Z" transform="translate(-25.57 103.86)"/><path class="cls-6" d="M170.66,47.36h0S170.72,47.33,170.66,47.36Z" transform="translate(-25.57 103.86)"/><path class="cls-6" d="M175.12,50.16Z" transform="translate(-25.57 103.86)"/><path class="cls-6" d="M174.37,51.71l-.1.18Z" transform="translate(-25.57 103.86)"/><path class="cls-6" d="M173.29,52.33Z" transform="translate(-25.57 103.86)"/><path class="cls-6" d="M175,50.35l.05-.13Z" transform="translate(-25.57 103.86)"/><path class="cls-6" d="M175.14,50.16v0C175.16,50.14,175.18,50.1,175.14,50.16Z" transform="translate(-25.57 103.86)"/><path class="cls-6" d="M175.1,50.18s0,0,0,0l0-.06S175.11,50.17,175.1,50.18Z" transform="translate(-25.57 103.86)"/><path class="cls-6" d="M169.2,50.64l0,0C169.09,50.72,169.11,50.7,169.2,50.64Z" transform="translate(-25.57 103.86)"/><path class="cls-6" d="M171.35,53.41v0h0Z" transform="translate(-25.57 103.86)"/><path class="cls-6" d="M171.12,53.65c.33-.44.3-.37.25-.27l.69-1Z" transform="translate(-25.57 103.86)"/><path class="cls-6" d="M169.36,52.46l-.23.32c-.47.44-.35.25-.68.68.91-1,.21,0,1.11-1l-.17.23s0,0,0,0c-.4.52.67-.72.59-.53a2,2,0,0,1-.28.36l.25-.22s-.16.21-.16.18l.13,0,0,0,.48-.48c-.11.16-.1.1-.2.23l.24-.22c-.22.28-.46.51-.45.46-.85,1,.24-.24-.2.42l-.15.1a6,6,0,0,0-.54.81,13.31,13.31,0,0,1,1-1.21c-.06.08-.07.13.12-.06-.31.37-.21.29-.17.29l-.41.49c.14-.12.34-.37.54-.58a5.69,5.69,0,0,1-.58.78c0,.12.48-.64.61-.69-.12.22.07,0,.35-.22-.11.19-.25.3-.35.45l.34-.38a1.26,1.26,0,0,1-.15.2c.14-.14.4-.5.53-.61.45-.55-.57.85,0,.25-.1.15-.25.31-.4.51a10.71,10.71,0,0,0,.75-.8l-.22.36a12.34,12.34,0,0,1,1-1.18l.3-.44.25-.24c-.06.09-.2.26-.36.47l.1-.12c-.13.2-.36.49-.59.77l.22-.33-.74.94a.81.81,0,0,1,.12-.13l-.16.21.15-.18-.42.57.18-.22-.21.4c.48-.54,1.14-1.36,1.38-1.55-.33.41-.51.69-.88,1.19.37-.54-.22.18-.17.05a3.88,3.88,0,0,1-.27.38l.42-.43a2.47,2.47,0,0,0-.32.5c.58-.82.44-.51.65-.74-.2.28-.4.55-.39.46-.41.64.74-.92.39-.38,0,0,0,0-.09.1.2-.23.1,0-.08.22h0c0,.13.16.12.65-.57l-.69,1L173,51c-.42.6-1.37,2-1.65,2.36-.05.1-.1.21.07,0s.58-.89.63-.94c-.43.69-.23.37-.57,1,.07-.14.73-1.08.72-1l-.7,1,.68-.9c-.13.16-.53.79-.7,1.07.12-.19,0,0,.11,0l.12-.23c0,.18.93-1.29.95-1.2-.14.19-.8,1.18-.85,1.32.33-.47,1.56-2.29,1.84-2.64l-.17.29.23-.3c-.48.72-1.52,2.22-1.94,2.79-.12.23-.21.33-.16.33a1.26,1.26,0,0,1-.29.39l0,.22c.36-.57.42-.53.72-1l-.46.54a8.42,8.42,0,0,1,1.06-1.45c-.13.23-.65,1-.77,1.2.13-.19.29-.35.21-.2l-.22.29c-.1.23.52-.73.22-.16,0,0-.41.76-.2.42.38-.66,1.62-2.69,1.93-3.17l-.51,1c-.29.53-.77,1.21-1,1.66l.26-.4c-.06.14-.29.48-.22.43.35-.58,0,.08.31-.49.12-.15-.05.14,0,.13.22-.38.79-1.27.92-1.42l-.25.43c0,.09-.11.37-.06.41s-.15.33-.3.58a1.31,1.31,0,0,1,.21-.3c-.26.53-.08.06-.41.69a4.73,4.73,0,0,1,.46-.66c.29-.54,0-.13-.14.07a20.23,20.23,0,0,1,1.13-1.79c.14-.17-.25.48-.19.38,0,.17.77-1.26.54-.69s-.51.94-.69,1.28c-.13.16.11-.32.08-.32l-.1.24c-.09.15-.18.26-.12.11-.21.44.09.16-.06.58a3.3,3.3,0,0,0,.29-.5l-.05.06c.19-.4.32-.52.39-.71s.41-.66.33-.43l-.28.55c.09-.16.15-.34.05-.18.14-.23-.33.77.06.06l.17-.39c.17-.26.49-.83.43-.64l.26-.58c-.38.79,0-.07-.44.77.35-.74.12-.33.42-1-.09.18-.17.34-.14.24l-.09.16h0v0h0l-.13.28a4.48,4.48,0,0,1-.39.58c0-.09.12-.2.21-.4l-.19.31a8.08,8.08,0,0,1,.48-.89l0,0c.1-.23.13-.33,0-.17,0-.1-.27.41-.09.11l-.18.22.05-.1c0-.07-.45.6-.1-.13-.07.09-.15.2-.11.08l.19-.34c-.09.11.14-.37-.07,0,.51-.91,0-.25.1-.43l-.27.44s-.1.07-.23.23l-.24.38c-.21.3.11-.31.05-.29.09-.15.08-.1,0,0,.5-.88-.49.56-.13-.09-.1.13-.08.08,0,0v0h0l.12-.21-.12.21s-.06,0-.13.13l.26-.41h0c.09-.16-.14.18-.33.49l-.17.23c.42-.65-.18.2.27-.5-.23.33-.23.22-.71.92a.68.68,0,0,1,.1-.14c0-.09.08-.18-.07,0l.34-.51-.49.66a7.5,7.5,0,0,1,.59-.88l-.63.77.22-.33s-.34.43-.16.15c.4-.63-.09-.18.25-.8-.67,1,.28-.44-.26.28.16-.22.25-.36.4-.54-.2.19.21-.39-.27.2l.34-.45s-.15.18-.05,0a2.3,2.3,0,0,1,.22-.27,12.69,12.69,0,0,0-1.06,1.32c.2-.32.16-.28-.17.12a2.8,2.8,0,0,1,.39-.49s.15-.36-.24.14c.1-.13,0,0,0,0s0-.1,0-.07l-.05.09c-.49.59-.13.11-.22.17l.05-.06c.3-.48-.19.18.16-.35l-.3.37c-.65.8.34-.51.06-.23l-.16.22c-.24.26.84-1.12.91-1.23l.15-.15c.35-.5-.41.48-.53.57.21-.27.55-.66.58-.72.16-.22-.77.79-.38.27a5.77,5.77,0,0,1-.46.55c-.09.05.58-.8,0-.2l.13-.15a5.33,5.33,0,0,0-.59.54c1.08-1.25-.65.51.37-.63l-.1,0,.1-.11c0-.11-.22.15-.48.41l.22-.24c.17-.27.12-.22-.44.29l.34-.36c-.21.2.47-.63,0-.25l.16-.15c-.46.36.85-1.09-.43.17l-.35.28c0,.15-.56.55-.75.78-.1.06.34-.43.42-.47l-.06.06c.68-.65.19-.29.64-.74-.11,0,.18-.49.14-.59l-.52.51v-.06c.12-.12.41-.4.41-.36.29-.29-.29.2-.4.31a7.37,7.37,0,0,1,.64-.59l-.06,0-.06.06c-.23.19-.46.4-.46.35s.33-.31.35-.34.05,0,0,0l0-.07-.42.4c-.22.17,0-.06-.48.4.73-.7.15-.38.37-.6-.33.25-.35.22-.33.16a3.68,3.68,0,0,1-.54.44c1-.87.4-.43,1.12-1.07-.47.43-.17,0-.85.65.07-.09.39-.33.62-.54-.45.28.17-.32,0-.27s-.34.29-.55.44l.66-.58c-.08,0-.8.62-.34.22a2.81,2.81,0,0,1-.34.26c.59-.63-.76.17.45-.9-.26.21-.3.22-.32.22l-.54.4.5-.44c-.55.37-.08,0-.6.33l.11,0c-.63.41-1.33,1-2.11,1.55.71-.47-1,.82.06.16-.15.12-.25.17-.43.31.34-.23.42-.27.3-.13l-.09.06c.14,0-.16.29-.3.55l.37-.29a2.8,2.8,0,0,1-.24.23c.59-.42,0-.08.64-.54-.75.61.09.14-.76.83,0,0,.43-.34.44-.31l-.22.19.3-.23a3.8,3.8,0,0,1-.51.46s-.07,0-.09,0c-.25.25.16,0,.07.08l.12-.14c.28-.09.06.26.59,0l.17-.15c.37-.21-.15.2.05.14l0,0c.18-.14.28-.19.27-.16-.21.15-.36.36-.6.53a6.86,6.86,0,0,0,1-.7l-.27.25a2.8,2.8,0,0,1,.49-.35c-.26.18-.41.39-.75.64-.55.6.7-.45-.16.37.79-.66.38-.44.56-.57s.59-.48.53-.4-1,.92-.88,1l-.06,0c-.18.2.29-.2,0,.11.47-.41,0,.06.59-.48l-.18.08c.18-.11.88-.72.59-.37-.12.11-.29.24-.38.31s.14-.08,0,.09c-.58.54-.18.06-.65.44-.23.24.48-.33-.17.24.82-.72,0,.14.59-.39l-.35.32c.06,0,.24-.18.24-.17l-.47.41c.41-.33-.28.37,0,.2-.07-.05.4-.41.63-.67.52-.37-.86.9-.62.82-.06,0,.17-.24.34-.37a3.84,3.84,0,0,1-.33.41c.12,0,.34-.35.57-.53-.4.42.19-.14.34-.25l-.34.34c-.16.28.73-.69.52-.37l-.5.44.15-.09-.4.38c.32-.25.26-.17.18,0a4.66,4.66,0,0,1,.65-.61c-.18.23-.33.32-.24.31-.22.2-.5.46-.2.13l-.33.32c-.22.25,0,.1,0,.11l.06-.09.52-.43a2.05,2.05,0,0,1-.33.33c.05,0,.21-.18.26-.19a9.56,9.56,0,0,1-.71.68l.35-.26c-.11.12-.29.36-.4.46s.6-.48.43-.22a.92.92,0,0,1,.15-.14c0,.1-.32.48.09.13l-.45.54c.14-.08.57-.68.8-.83s-.39.46-.5.62c.26-.24.77-.75.43-.29C169.35,52.52,169.41,52.43,169.36,52.46Zm.64.14c-.08.07-.3.29-.12.07C170.25,52.26,170.08,52.47,170,52.6Zm1.37-.39c-.1.12-.07,0,0-.1S171.43,52.1,171.37,52.21Zm3.46-1.76v0C174.9,50.3,174.87,50.37,174.83,50.45Zm-.06.21.09-.18c-.06.11-.07.11-.06.08S174.71,50.75,174.77,50.66Zm-3.27-2.32-.09.09C171.3,48.51,171.39,48.43,171.5,48.34Z" transform="translate(-25.57 103.86)"/><path class="cls-6" d="M170.9,52.68l.15-.21A1.13,1.13,0,0,0,170.9,52.68Z" transform="translate(-25.57 103.86)"/><polygon class="cls-6" points="143.35 156.26 143.36 156.25 143.3 156.32 143.35 156.26"/><path class="cls-6" d="M172.16,53.87a1.12,1.12,0,0,1,.11-.22A.84.84,0,0,0,172.16,53.87Z" transform="translate(-25.57 103.86)"/><path class="cls-6" d="M175.32,50l-.08.1s0,.08-.06.15C175.24,50.17,175.31,50,175.32,50Z" transform="translate(-25.57 103.86)"/><path class="cls-6" d="M174.17,52.78c0-.05,0,0,0-.05l.09-.2A.62.62,0,0,0,174.17,52.78Z" transform="translate(-25.57 103.86)"/><path class="cls-6" d="M174.6,51.45c-.18.37-.1.25,0,.19h0C174.81,51.14,174.7,51.3,174.6,51.45Z" transform="translate(-25.57 103.86)"/><path class="cls-6" d="M174.56,51.63s0,0,0,0C174.68,51.43,174.59,51.58,174.56,51.63Z" transform="translate(-25.57 103.86)"/><path class="cls-6" d="M174.93,50.44c0,.1.25-.45.18-.31C175.36,49.68,174.77,50.66,174.93,50.44Z" transform="translate(-25.57 103.86)"/><polygon class="cls-6" points="148.44 156.51 148.66 156.06 148.46 156.41 148.44 156.51"/><path class="cls-6" d="M174,52.25l0,.14.09-.15S174.11,52.12,174,52.25Z" transform="translate(-25.57 103.86)"/><path class="cls-6" d="M174.09,52.24s0,0,.06-.06S174.12,52.19,174.09,52.24Z" transform="translate(-25.57 103.86)"/><polygon class="cls-6" points="148.33 156.62 148.37 156.53 148.37 156.48 148.33 156.62"/><path class="cls-6" d="M173.8,52l-.1.11c-.09.15-.13.25-.09.19A2.28,2.28,0,0,0,173.8,52Z" transform="translate(-25.57 103.86)"/><path class="cls-6" d="M173.23,53.26l.16-.34-.3.55Z" transform="translate(-25.57 103.86)"/><path class="cls-6" d="M173.06,53.34c-.09.15-.29.4-.23.39A1.59,1.59,0,0,0,173.06,53.34Z" transform="translate(-25.57 103.86)"/><polygon class="cls-6" points="147.42 156.25 147.43 156.24 147.96 155.37 147.42 156.25"/><path class="cls-6" d="M171.26,54.18c-.09.23.36-.52.23-.24.14-.2.1-.23.22-.4A3.49,3.49,0,0,0,171.26,54.18Z" transform="translate(-25.57 103.86)"/><path class="cls-6" d="M171.71,53.54l.1-.12Z" transform="translate(-25.57 103.86)"/><polygon class="cls-6" points="145.49 150.84 145.65 150.7 145.38 150.91 145.49 150.84"/><path class="cls-6" d="M170.42,47.38,171,47l-.49.33S170.54,47.29,170.42,47.38Z" transform="translate(-25.57 103.86)"/><path class="cls-6" d="M169.22,53.66l.11-.12c.1-.13.1-.15.11-.18Z" transform="translate(-25.57 103.86)"/><polygon class="cls-6" points="143.64 156.86 143.63 156.88 144.01 156.43 143.64 156.86"/><path class="cls-6" d="M168.43,53.32s.1-.06.09,0S168.92,52.77,168.43,53.32Z" transform="translate(-25.57 103.86)"/><path class="cls-6" d="M189.2,41.57s.16-.35.19-.42A2.41,2.41,0,0,0,189.2,41.57Z" transform="translate(-25.57 103.86)"/><polygon class="cls-6" points="163.07 146.22 163.15 146.07 162.95 146.44 163.07 146.22"/><path class="cls-6" d="M188.48,42.29c-.26.66.11-.08,0,.16l-.06.15.24-.52C188.63,42.15,188.43,42.48,188.48,42.29Z" transform="translate(-25.57 103.86)"/><path class="cls-6" d="M189,40.83c-.1.26-.11.21,0,.09l0-.07S189,40.85,189,40.83Z" transform="translate(-25.57 103.86)"/><path class="cls-6" d="M189,40.85s.08-.22,0,0Z" transform="translate(-25.57 103.86)"/><path class="cls-6" d="M188.87,41l.12-.21c.06-.16.06-.2.11-.31A3.06,3.06,0,0,0,188.87,41Z" transform="translate(-25.57 103.86)"/><path class="cls-6" d="M188.64,41.43l.06-.09C188.72,41.28,188.73,41.26,188.64,41.43Z" transform="translate(-25.57 103.86)"/><path class="cls-6" d="M188.81,41.15l-.11.19c0,.11-.14.32,0-.07C188.66,41.47,188.74,41.28,188.81,41.15Z" transform="translate(-25.57 103.86)"/><path class="cls-6" d="M188.78,41.26a2.37,2.37,0,0,1-.19.46C188.67,41.65,188.87,41.18,188.78,41.26Z" transform="translate(-25.57 103.86)"/><path class="cls-6" d="M188.18,43l-.06.2.11-.21C188.17,43.05,188.27,42.76,188.18,43Z" transform="translate(-25.57 103.86)"/><path class="cls-6" d="M188.88,40.56c-.07.14-.16.38-.23.56l.08-.15C188.77,40.87,188.79,40.77,188.88,40.56Z" transform="translate(-25.57 103.86)"/><path class="cls-6" d="M188.65,41.12l-.13.23S188.58,41.27,188.65,41.12Z" transform="translate(-25.57 103.86)"/><polygon class="cls-6" points="162.76 146.02 163.01 145.53 162.75 146.02 162.76 146.02"/><polygon class="cls-6" points="163.22 144.36 163.37 144.05 163.13 144.52 163.22 144.36"/><path class="cls-6" d="M188.7,40.53c.12-.26.18-.46.26-.62a5.13,5.13,0,0,0-.25.47C188.77,40.27,188.77,40.31,188.7,40.53Z" transform="translate(-25.57 103.86)"/><path class="cls-6" d="M188.55,40.67a3.13,3.13,0,0,0,.16-.29C188.67,40.44,188.63,40.52,188.55,40.67Z" transform="translate(-25.57 103.86)"/><path class="cls-6" d="M188.51,41.26c0-.09.12-.31.15-.41l-.16.4Z" transform="translate(-25.57 103.86)"/><path class="cls-6" d="M188.49,41.26h0a0,0,0,0,1,0,0Z" transform="translate(-25.57 103.86)"/><path class="cls-6" d="M188.51,41.26h0S188.49,41.31,188.51,41.26Z" transform="translate(-25.57 103.86)"/><path class="cls-6" d="M188.41,41.78a4.21,4.21,0,0,0-.35.78C188.18,42.29,188.25,42.1,188.41,41.78Z" transform="translate(-25.57 103.86)"/><path class="cls-6" d="M188.31,41.76v.1a2.83,2.83,0,0,1,.16-.36Z" transform="translate(-25.57 103.86)"/><polygon class="cls-6" points="162.67 145.74 162.74 145.62 162.74 145.58 162.67 145.74"/><path class="cls-6" d="M188.44,41.06c-.08.16-.1.17-.13.19s0,.14,0,.14A2.17,2.17,0,0,0,188.44,41.06Z" transform="translate(-25.57 103.86)"/><path class="cls-6" d="M188.45,41.19v0S188.42,41.26,188.45,41.19Z" transform="translate(-25.57 103.86)"/><path class="cls-6" d="M188.17,41.19l0,.07,0-.06Z" transform="translate(-25.57 103.86)"/><path class="cls-6" d="M188.28,41.47c0,.08,0,0,.08-.13l-.05,0C188.28,41.45,188.27,41.48,188.28,41.47Z" transform="translate(-25.57 103.86)"/><path class="cls-6" d="M188.44,40.84c0,.08-.06.15-.08.22Z" transform="translate(-25.57 103.86)"/><path class="cls-6" d="M188.48,41.1h0C188.52,41,188.51,41,188.48,41.1Z" transform="translate(-25.57 103.86)"/><path class="cls-6" d="M188.48,41.1l-.12.24a.49.49,0,0,0,.08-.13S188.47,41.14,188.48,41.1Z" transform="translate(-25.57 103.86)"/><path class="cls-6" d="M187.05,43.69c.15-.36.33-.68.19-.28.14-.26.64-1.47.9-2.15a3.92,3.92,0,0,1-.25.51,5.74,5.74,0,0,1-.3.81c-.12.17,0-.14.09-.34-.18.46-.33.64-.61,1.31l.13-.22C187.16,43.43,187.08,43.59,187.05,43.69Z" transform="translate(-25.57 103.86)"/><path class="cls-6" d="M188.18,41.32l0,0c0-.07.07-.22.17-.51-.09.17-.15.3-.21.43l0,.07Z" transform="translate(-25.57 103.86)"/><path class="cls-6" d="M188.26,41.3c-.18.39-.28.55-.45,1a3.27,3.27,0,0,0,.26-.49c-.09.08.11-.21.17-.45a1.06,1.06,0,0,1,.07-.1s0-.11.05-.19v0h0l0,0h0l-.07.15a.3.3,0,0,1,.07-.15l0-.06h0l-.14.19C188.2,41.34,188.21,41.34,188.26,41.3Z" transform="translate(-25.57 103.86)"/><path class="cls-6" d="M187.66,43.4l0-.09Z" transform="translate(-25.57 103.86)"/><path class="cls-6" d="M187.75,43.15s.1-.21.09-.16a2.84,2.84,0,0,1-.14.32,2.51,2.51,0,0,0,.21-.48l0,.05c0-.14.23-.65.25-.7C188,42.54,187.88,42.79,187.75,43.15Z" transform="translate(-25.57 103.86)"/><path class="cls-6" d="M188,42.33l-.13.17-.12.35.08-.2C187.78,42.74,187.89,42.48,188,42.33Z" transform="translate(-25.57 103.86)"/><polygon class="cls-6" points="162.68 144.85 162.87 144.44 162.59 145.01 162.68 144.85"/><polygon class="cls-6" points="162.6 144.88 162.76 144.51 162.65 144.73 162.6 144.88"/><path class="cls-6" d="M183.07,44.17l-.06.09A.7.7,0,0,0,183.07,44.17Z" transform="translate(-25.57 103.86)"/><path class="cls-6" d="M183.15,44.23l.08-.18A1.2,1.2,0,0,0,183.15,44.23Z" transform="translate(-25.57 103.86)"/><path class="cls-6" d="M186.78,40.47c.13-.35.33-.89.16-.48l-.17.4C186.82,40.33,186.81,40.38,186.78,40.47Z" transform="translate(-25.57 103.86)"/><path class="cls-6" d="M184.81,42.44l0,.12.17-.37Z" transform="translate(-25.57 103.86)"/><path class="cls-6" d="M184.09,44.08l.09-.26A1.61,1.61,0,0,0,184.09,44.08Z" transform="translate(-25.57 103.86)"/><path class="cls-6" d="M182.39,44.37l-.19.4A2.1,2.1,0,0,0,182.39,44.37Z" transform="translate(-25.57 103.86)"/><path class="cls-6" d="M187.54,40.92a1.28,1.28,0,0,0,.06-.26C187.52,40.9,187.39,41.25,187.54,40.92Z" transform="translate(-25.57 103.86)"/><path class="cls-6" d="M184.92,40c0,.07-.07.15-.11.24A1.38,1.38,0,0,0,184.92,40Z" transform="translate(-25.57 103.86)"/><path class="cls-6" d="M187.55,40.64l0,.1c0-.06.08-.11.08-.08C187.66,40.48,187.69,40.37,187.55,40.64Z" transform="translate(-25.57 103.86)"/><path class="cls-6" d="M180.71,43.26s0,0,0,0S180.7,43.27,180.71,43.26Z" transform="translate(-25.57 103.86)"/><path class="cls-6" d="M181.91,39s0,0,0,0S181.94,39,181.91,39Z" transform="translate(-25.57 103.86)"/><path class="cls-6" d="M188,40.75s0,0,0,0Z" transform="translate(-25.57 103.86)"/><path class="cls-6" d="M187.4,42.35l-.08.19Z" transform="translate(-25.57 103.86)"/><path class="cls-6" d="M186.37,43.07h0C186.34,43.15,186.34,43.13,186.37,43.07Z" transform="translate(-25.57 103.86)"/><path class="cls-6" d="M188,40.94l0-.13Z" transform="translate(-25.57 103.86)"/><path class="cls-6" d="M188,40.75v0C188.07,40.72,188.08,40.68,188,40.75Z" transform="translate(-25.57 103.86)"/><path class="cls-6" d="M188,40.76s0,0,0,.05l0-.06Z" transform="translate(-25.57 103.86)"/><path class="cls-6" d="M182.14,42.61l0,0C182.07,42.74,182.09,42.71,182.14,42.61Z" transform="translate(-25.57 103.86)"/><path class="cls-6" d="M184.69,44.47v0h0Z" transform="translate(-25.57 103.86)"/><path class="cls-6" d="M184.52,44.75c.23-.49.21-.42.18-.31l.48-1.16Z" transform="translate(-25.57 103.86)"/><path class="cls-6" d="M182.8,44.19l-.12.37a4.85,4.85,0,0,0-.42.87c.54-1.24.17-.07.71-1.32l-.09.27s0,.06,0,0c-.21.61.42-.89.39-.7a2.18,2.18,0,0,1-.16.44l.17-.29a.83.83,0,0,1-.1.21l.11-.07,0,0c.09-.19.24-.48.31-.61-.07.19-.07.13-.13.29l.16-.29a2.07,2.07,0,0,1-.29.58c-.5,1.25.16-.31-.08.45l-.1.14a7.42,7.42,0,0,0-.31.93c.09-.23.41-1.14.58-1.44,0,.1,0,.15.09-.09-.19.44-.13.34-.09.33l-.26.58c.1-.16.23-.46.36-.71a8.51,8.51,0,0,1-.35.91c0,.11.28-.74.39-.83-.06.24.07,0,.26-.32-.06.21-.16.36-.22.53l.22-.46-.09.23c.1-.17.25-.59.35-.73.29-.65-.34,1,0,.25-.06.17-.16.36-.25.59.26-.46.19-.33.52-1l-.13.41a12.36,12.36,0,0,1,.63-1.38c.08-.22.16-.41.19-.5l.18-.29a4.39,4.39,0,0,1-.24.54s.05-.1.07-.14c-.08.22-.23.56-.38.88,0-.12.09-.24.14-.37-.17.36-.35.75-.5,1.09l.09-.15a1.56,1.56,0,0,0-.11.24l.11-.21-.27.66.11-.26-.11.44c.33-.65.78-1.6,1-1.84-.22.47-.34.78-.59,1.35.24-.61-.16.24-.15.1a2.39,2.39,0,0,1-.17.43l.3-.52a2.47,2.47,0,0,0-.2.56c.38-.93.31-.6.46-.87-.13.31-.27.63-.27.54-.27.71.51-1.06.29-.46,0,0,0,0-.07.11.14-.27.09,0,0,.24h0c0,.13.16.07.51-.7-.05.1-.42.94-.49,1.09l1.23-2.59c-.3.67-1,2.28-1.16,2.64,0,.1-.06.22.07,0s.39-1,.43-1c-.29.76-.15.41-.38,1.06a12.54,12.54,0,0,1,.52-1.15l-.5,1.15.49-1c-.09.18-.37.87-.49,1.17.08-.21,0,0,.09-.06l.09-.25c0,.18.68-1.43.71-1.35s-.58,1.31-.61,1.45c.24-.53,1.15-2.52,1.38-2.91l-.12.31.19-.33c-.37.79-1.16,2.43-1.48,3.07-.08.25-.14.36-.1.34a1.46,1.46,0,0,1-.22.44v.22c.26-.62.32-.6.54-1.12l-.36.61a9,9,0,0,1,.81-1.6c-.09.25-.48,1.09-.57,1.3.1-.21.22-.38.16-.23l-.16.32c-.07.24.4-.8.18-.19,0,0-.3.81-.14.44.28-.71,1.21-2.89,1.45-3.42,0,0-.22.7-.36,1.06-.22.56-.59,1.3-.78,1.78a4.4,4.4,0,0,1,.21-.43c-.05.15-.23.52-.17.45.27-.62,0,.08.24-.52.1-.17,0,.14,0,.13.17-.41.63-1.37.73-1.53-.07.15-.15.36-.19.46s-.06.38,0,.41-.12.34-.24.61a2.3,2.3,0,0,1,.17-.33c-.2.56-.07.07-.33.73a6.57,6.57,0,0,1,.38-.7c.24-.56,0-.13-.12.09a17.33,17.33,0,0,1,.93-1.91c.12-.17-.2.51-.15.41,0,.17.66-1.33.48-.74s-.42,1-.57,1.34c-.11.17.08-.33.05-.33l-.07.25c-.08.16-.16.28-.11.13-.17.45.1.14,0,.58.08-.16.17-.33.25-.53l-.05.06c.15-.4.27-.53.33-.73s.37-.7.31-.45l-.24.56c.07-.16.12-.34,0-.18.12-.24-.27.79.06.06l.14-.4c.15-.27.44-.86.4-.67.22-.56,0,.06.22-.6-.33.82-.07-.07-.41.8.31-.77.1-.34.35-1-.08.19-.15.36-.13.26,0,.05-.06.12-.08.16h0v0s0,0,0,0-.06.18-.1.28a5.87,5.87,0,0,1-.35.61c0-.1.1-.21.17-.42l-.16.33a8.2,8.2,0,0,1,.39-.93l0,0c.08-.24.09-.34,0-.18,0-.09-.23.44-.08.13l-.17.23,0-.11c0-.07-.41.64-.15-.13-.06.09-.13.21-.12.08l.15-.36c-.07.12.09-.38-.08,0,.38-1,0-.25,0-.44l-.2.46s-.1.09-.21.26l-.18.41c-.18.33.05-.33,0-.31.07-.15.07-.1,0,0,.34-1-.42.63-.18-.07-.07.14-.06.09,0,0l0,0a0,0,0,0,0,0,0c0-.07.06-.16.08-.22a2.27,2.27,0,0,0-.08.22.75.75,0,0,0-.11.15l.18-.45h0a3.69,3.69,0,0,0-.23.55,2.5,2.5,0,0,0-.14.25c.3-.72-.14.23.17-.54-.17.37-.19.25-.54,1,0-.1.06-.15.07-.15s0-.19-.06,0l.23-.56-.36.74a7.41,7.41,0,0,1,.41-1c-.34.64-.15.23-.48.87l.16-.36s-.26.48-.14.18c.26-.71-.13-.18.05-.86-.44,1.08.16-.5-.2.33.11-.25.16-.4.26-.62-.15.23.11-.43-.23.26.11-.26.17-.37.23-.52,0,0-.11.21-.05.06a2.38,2.38,0,0,1,.16-.32,10.67,10.67,0,0,0-.73,1.53c.13-.35.09-.31-.13.16a3,3,0,0,1,.25-.57s0-.4-.2.19c.06-.15,0,0,0,0s0-.1-.06-.06l0,.1c-.32.7-.1.14-.17.22l0-.08c.15-.54-.13.23,0-.38l-.18.44c-.42,1,.18-.58,0-.23l-.09.25c-.16.32.49-1.31.52-1.44a.85.85,0,0,1,.1-.19c.18-.58-.26.58-.36.69.13-.31.35-.78.35-.85.09-.26-.52,1-.3.36a6.24,6.24,0,0,1-.28.66c-.07.07.31-.94-.05-.2,0-.07.05-.13.08-.19a5,5,0,0,0-.41.7c.64-1.53-.45.68.15-.73l-.1.05.06-.14c0-.12-.17.21-.33.54,0-.1.1-.22.13-.3.06-.31,0-.25-.33.42l.19-.45c-.13.25.21-.76-.08-.26l.09-.2c-.3.51.38-1.33-.36.31l-.23.39a8.2,8.2,0,0,1-.41,1c-.07.09.15-.52.22-.6l0,.09c.38-.86,0-.34.31-.93-.14,0-.05-.54-.15-.62l-.28.67,0-.05c.06-.16.21-.53.23-.49.15-.39-.19.3-.25.44a6,6,0,0,1,.35-.8l-.05,0,0,.08c-.14.27-.27.56-.29.51s.17-.42.17-.44,0-.08,0,0l0-.08-.21.54a1.81,1.81,0,0,0-.27.56c.37-.94,0-.41.06-.71-.19.38-.22.36-.24.29a3,3,0,0,1-.29.63,10.84,10.84,0,0,0,.52-1.46c-.22.6-.15.11-.47,1,0-.11.19-.46.3-.76-.27.45,0-.37-.16-.25s-.17.42-.29.65l.31-.83c0,.08-.42.93-.2.36-.06.14-.14.34-.17.39.18-.85-.6.51-.13-1-.11.32-.14.35-.16.35s-.17.4-.26.62l.19-.64c-.27.61-.09,0-.34.59l.06-.09c-.32.67-.61,1.54-1,2.42.37-.77-.41,1.19.12.09-.06.19-.13.28-.21.49.17-.37.22-.45.18-.26l0,.09c.12-.06,0,.33,0,.62l.18-.44a1.81,1.81,0,0,1-.1.32c.31-.65,0-.07.3-.78-.36.89.13.07-.28,1.08,0,0,.21-.5.23-.48l-.11.27.16-.35a4.39,4.39,0,0,1-.24.65s0,.05,0,.07c-.11.33.12-.08.08,0l.05-.18c.19-.22.14.18.46-.33l.08-.21c.22-.36,0,.24.09.1l0,0c.1-.2.16-.3.17-.27-.12.24-.17.48-.3.74a8.94,8.94,0,0,0,.54-1l-.14.34A2.77,2.77,0,0,1,182,42c-.15.28-.2.53-.4.9-.24.77.43-.71,0,.4.44-.93.16-.55.27-.75s.33-.69.31-.59-.48,1.23-.42,1.23,0,.07,0,.06c-.08.25.19-.31,0,.09.26-.56,0,.05.34-.67l-.12.14c.11-.18.5-1,.37-.58a4.26,4.26,0,0,1-.22.43c-.08.22.09-.13,0,.1-.32.73-.13.13-.4.67-.12.32.29-.5-.07.28.45-1,0,.15.37-.6l-.19.44a2.82,2.82,0,0,1,.14-.25l-.26.56c.24-.47-.12.44,0,.19-.07,0,.21-.53.32-.86.33-.55-.44,1.16-.27,1a1.69,1.69,0,0,1,.18-.47,3.65,3.65,0,0,1-.16.5c.09-.06.18-.45.32-.71-.21.54.12-.2.22-.36l-.19.44c-.06.32.41-.91.33-.54l-.29.6.1-.15-.23.5c.2-.35.17-.25.14-.1a4.7,4.7,0,0,1,.38-.8c-.09.27-.19.41-.12.37-.13.27-.29.62-.13.2-.07.14-.13.27-.19.42-.11.31,0,.09,0,.09a.31.31,0,0,1,0-.11l.33-.59a4.54,4.54,0,0,1-.19.43s.13-.24.16-.27c-.16.36-.32.73-.42.89l.23-.38c-.06.16-.15.44-.22.57s.38-.66.3-.37l.1-.18c0,.1-.15.56.11.08l-.26.66c.1-.13.32-.83.48-1s-.22.55-.28.74c.16-.32.48-1,.3-.42C182.8,44.24,182.83,44.14,182.8,44.19Zm.57-.1c-.05.09-.19.37-.08.11C183.52,43.7,183.42,43.94,183.37,44.09Zm1.14-.77c-.07.14,0,.07,0-.11S184.55,43.2,184.51,43.32Zm3.23-2.27v0C187.78,40.89,187.76,41,187.74,41.05Zm0,.21.08-.18c-.05.11-.07.11-.06.08S187.64,41.35,187.7,41.26Zm-4.4-1.68,0,.12C183.18,39.82,183.24,39.7,183.3,39.58Z" transform="translate(-25.57 103.86)"/><path class="cls-6" d="M184.17,43.89l.1-.24Z" transform="translate(-25.57 103.86)"/><path class="cls-6" d="M182.42,44.3h0l0,.08Z" transform="translate(-25.57 103.86)"/><path class="cls-6" d="M185.46,44.75c0-.07,0-.15.08-.24A.9.9,0,0,0,185.46,44.75Z" transform="translate(-25.57 103.86)"/><path class="cls-6" d="M188.23,40.6l-.07.1s0,.09,0,.16A1.59,1.59,0,0,1,188.23,40.6Z" transform="translate(-25.57 103.86)"/><path class="cls-6" d="M187.28,43.44s0,0,0-.06l.08-.2A.62.62,0,0,0,187.28,43.44Z" transform="translate(-25.57 103.86)"/><path class="cls-6" d="M187.62,42.08c-.15.38-.08.26,0,.2h0C187.81,41.75,187.72,41.92,187.62,42.08Z" transform="translate(-25.57 103.86)"/><path class="cls-6" d="M187.59,42.26s0,0,0,0C187.71,42.05,187.63,42.22,187.59,42.26Z" transform="translate(-25.57 103.86)"/><path class="cls-6" d="M187.85,41c0,.1.21-.48.15-.32C188.22,40.24,187.7,41.26,187.85,41Z" transform="translate(-25.57 103.86)"/><polygon class="cls-6" points="161.54 147.18 161.73 146.71 161.56 147.08 161.54 147.18"/><path class="cls-6" d="M187.11,42.92l0,.14a1.44,1.44,0,0,1,.07-.16S187.17,42.78,187.11,42.92Z" transform="translate(-25.57 103.86)"/><path class="cls-6" d="M187.16,42.9s0,0,.06-.06S187.19,42.85,187.16,42.9Z" transform="translate(-25.57 103.86)"/><polygon class="cls-6" points="161.44 147.3 161.47 147.2 161.47 147.16 161.44 147.3"/><path class="cls-6" d="M186.84,42.7l-.09.11c-.07.16-.1.26-.06.2A3.06,3.06,0,0,0,186.84,42.7Z" transform="translate(-25.57 103.86)"/><path class="cls-6" d="M186.39,44l.14-.36-.25.57Z" transform="translate(-25.57 103.86)"/><path class="cls-6" d="M186.24,44.09c-.07.16-.24.44-.18.42A1.83,1.83,0,0,0,186.24,44.09Z" transform="translate(-25.57 103.86)"/><polygon class="cls-6" points="160.51 147.02 160.52 147.02 160.92 146.08 160.51 147.02"/><path class="cls-6" d="M184.7,45.22c-.06.24.26-.57.17-.28.1-.21.07-.24.16-.42A3.17,3.17,0,0,0,184.7,45.22Z" transform="translate(-25.57 103.86)"/><path class="cls-6" d="M185,44.52l.07-.14Z" transform="translate(-25.57 103.86)"/><polygon class="cls-6" points="156.47 142.33 156.53 142.13 156.41 142.45 156.47 142.33"/><path class="cls-6" d="M181.69,39.15l.25-.6-.24.53S181.74,39,181.69,39.15Z" transform="translate(-25.57 103.86)"/><path class="cls-6" d="M182.92,45.32l.06-.14c.07-.16.07-.17.07-.2Z" transform="translate(-25.57 103.86)"/><polygon class="cls-6" points="157.22 148.6 157.22 148.61 157.44 148.07 157.22 148.6"/><path class="cls-6" d="M182.22,45.31s.07-.09.07-.06S182.5,44.63,182.22,45.31Z" transform="translate(-25.57 103.86)"/><path class="cls-6" d="M199.4,55.51a3.81,3.81,0,0,0,.19-.42A3.72,3.72,0,0,0,199.4,55.51Z" transform="translate(-25.57 103.86)"/><polygon class="cls-6" points="173.25 160.16 173.32 160 173.13 160.38 173.25 160.16"/><path class="cls-6" d="M198.63,56.21c-.26.67.11-.08.05.17l-.06.16.24-.53C198.78,56.08,198.58,56.41,198.63,56.21Z" transform="translate(-25.57 103.86)"/><path class="cls-6" d="M199.11,54.74c-.1.26-.11.21,0,.09l0-.07S199.12,54.76,199.11,54.74Z" transform="translate(-25.57 103.86)"/><path class="cls-6" d="M199.13,54.76s.08-.22,0,0Z" transform="translate(-25.57 103.86)"/><path class="cls-6" d="M199,54.87l.12-.22a2,2,0,0,1,.11-.3A1.73,1.73,0,0,0,199,54.87Z" transform="translate(-25.57 103.86)"/><path class="cls-6" d="M198.74,55.34l.06-.09C198.82,55.18,198.83,55.16,198.74,55.34Z" transform="translate(-25.57 103.86)"/><path class="cls-6" d="M198.91,55.06l-.11.19c0,.11-.13.32,0-.07C198.76,55.38,198.84,55.19,198.91,55.06Z" transform="translate(-25.57 103.86)"/><path class="cls-6" d="M198.89,55.17a1.86,1.86,0,0,1-.19.46C198.8,55.56,199,55.09,198.89,55.17Z" transform="translate(-25.57 103.86)"/><path class="cls-6" d="M198.33,56.89l-.06.2.11-.22C198.33,57,198.42,56.68,198.33,56.89Z" transform="translate(-25.57 103.86)"/><path class="cls-6" d="M198.94,54.46c-.06.14-.15.37-.22.55l.09-.15A2.44,2.44,0,0,1,198.94,54.46Z" transform="translate(-25.57 103.86)"/><path class="cls-6" d="M198.72,55l-.13.23S198.66,55.17,198.72,55Z" transform="translate(-25.57 103.86)"/><polygon class="cls-6" points="172.86 159.93 173.12 159.44 172.85 159.93 172.86 159.93"/><polygon class="cls-6" points="173.26 158.25 173.41 157.93 173.18 158.41 173.26 158.25"/><path class="cls-6" d="M198.73,54.41c.12-.26.17-.46.25-.62,0,0-.15.27-.26.47C198.79,54.15,198.8,54.18,198.73,54.41Z" transform="translate(-25.57 103.86)"/><path class="cls-6" d="M198.57,54.55c0-.06.09-.18.15-.29A3.21,3.21,0,0,0,198.57,54.55Z" transform="translate(-25.57 103.86)"/><path class="cls-6" d="M198.57,55.15a3.93,3.93,0,0,0,.14-.41l-.15.4Z" transform="translate(-25.57 103.86)"/><path class="cls-6" d="M198.55,55.15h0l0,0A.1.1,0,0,0,198.55,55.15Z" transform="translate(-25.57 103.86)"/><path class="cls-6" d="M198.57,55.15h0S198.55,55.2,198.57,55.15Z" transform="translate(-25.57 103.86)"/><path class="cls-6" d="M198.5,55.68a3.64,3.64,0,0,0-.35.78C198.28,56.2,198.34,56,198.5,55.68Z" transform="translate(-25.57 103.86)"/><path class="cls-6" d="M198.38,55.65v.11a3,3,0,0,1,.16-.37Z" transform="translate(-25.57 103.86)"/><polygon class="cls-6" points="172.74 159.63 172.81 159.51 172.81 159.47 172.74 159.63"/><path class="cls-6" d="M198.47,54.94c-.08.17-.1.17-.13.19s0,.14,0,.15S198.5,54.93,198.47,54.94Z" transform="translate(-25.57 103.86)"/><path class="cls-6" d="M198.5,55.08l0,0S198.47,55.14,198.5,55.08Z" transform="translate(-25.57 103.86)"/><path class="cls-6" d="M198.17,55.06l0,.07,0-.07Z" transform="translate(-25.57 103.86)"/><path class="cls-6" d="M198.32,55.35c0,.08,0,0,.09-.13,0,0,0,.06-.07.06S198.3,55.37,198.32,55.35Z" transform="translate(-25.57 103.86)"/><path class="cls-6" d="M198.45,54.71l-.07.23C198.43,54.81,198.49,54.61,198.45,54.71Z" transform="translate(-25.57 103.86)"/><path class="cls-6" d="M198.52,55v0Z" transform="translate(-25.57 103.86)"/><path class="cls-6" d="M198.52,55s-.07.15-.11.23l.07-.12S198.51,55,198.52,55Z" transform="translate(-25.57 103.86)"/><path class="cls-6" d="M197.06,57.57c.15-.37.33-.69.2-.28.14-.26.63-1.47.88-2.16a3.92,3.92,0,0,1-.25.51,5.55,5.55,0,0,1-.29.82c-.12.17,0-.15.08-.35-.17.46-.33.64-.6,1.31l.13-.22C197.17,57.31,197.09,57.47,197.06,57.57Z" transform="translate(-25.57 103.86)"/><path class="cls-6" d="M198.19,55.19l0,0a4.93,4.93,0,0,1,.16-.51,3.25,3.25,0,0,0-.21.42l0,.08Z" transform="translate(-25.57 103.86)"/><path class="cls-6" d="M198.28,55.18a10.14,10.14,0,0,0-.44,1,3.75,3.75,0,0,0,.26-.49c-.1.07.11-.21.16-.46a.39.39,0,0,1,.08-.09c0-.05,0-.11,0-.19v0h0l0,.05h0l-.06.15a.31.31,0,0,1,.06-.15l0-.06h0l-.15.19C198.21,55.22,198.23,55.21,198.28,55.18Z" transform="translate(-25.57 103.86)"/><path class="cls-6" d="M197.76,57.3a.36.36,0,0,1,0-.09A.25.25,0,0,0,197.76,57.3Z" transform="translate(-25.57 103.86)"/><path class="cls-6" d="M197.83,57.05s.1-.21.1-.16-.08.19-.13.32a2.09,2.09,0,0,0,.2-.48l0,.06a5.8,5.8,0,0,1,.24-.71C198.06,56.44,198,56.7,197.83,57.05Z" transform="translate(-25.57 103.86)"/><path class="cls-6" d="M198,56.22l-.13.17-.12.36.09-.21C197.84,56.63,197.94,56.37,198,56.22Z" transform="translate(-25.57 103.86)"/><polygon class="cls-6" points="172.67 158.72 172.86 158.3 172.58 158.88 172.67 158.72"/><polygon class="cls-6" points="172.58 158.74 172.74 158.38 172.63 158.59 172.58 158.74"/><path class="cls-6" d="M192.42,57.81l-.06.09Z" transform="translate(-25.57 103.86)"/><path class="cls-6" d="M192.52,57.88l.08-.18A1.2,1.2,0,0,0,192.52,57.88Z" transform="translate(-25.57 103.86)"/><path class="cls-6" d="M196.47,54.22c.12-.35.31-.89.14-.47l-.16.4C196.5,54.08,196.49,54.13,196.47,54.22Z" transform="translate(-25.57 103.86)"/><path class="cls-6" d="M194.32,56.14l0,.12.17-.38C194.41,56,194.37,56.05,194.32,56.14Z" transform="translate(-25.57 103.86)"/><path class="cls-6" d="M193.62,57.79l.07-.28C193.66,57.61,193.64,57.7,193.62,57.79Z" transform="translate(-25.57 103.86)"/><path class="cls-6" d="M191.64,58l-.19.4S191.55,58.18,191.64,58Z" transform="translate(-25.57 103.86)"/><path class="cls-6" d="M197.4,54.74a1.73,1.73,0,0,0,0-.26C197.38,54.71,197.25,55.07,197.4,54.74Z" transform="translate(-25.57 103.86)"/><path class="cls-6" d="M194.24,53.58a1.33,1.33,0,0,0-.11.24C194.16,53.75,194.2,53.68,194.24,53.58Z" transform="translate(-25.57 103.86)"/><path class="cls-6" d="M197.39,54.45l0,.1c0-.06.08-.11.09-.07C197.5,54.3,197.53,54.18,197.39,54.45Z" transform="translate(-25.57 103.86)"/><path class="cls-6" d="M189.57,56.72a.2.2,0,0,0,0,0C189.56,56.73,189.56,56.73,189.57,56.72Z" transform="translate(-25.57 103.86)"/><path class="cls-6" d="M190.61,52.42s0,0,0,0S190.65,52.37,190.61,52.42Z" transform="translate(-25.57 103.86)"/><path class="cls-6" d="M198,54.59s0,0,0,0Z" transform="translate(-25.57 103.86)"/><path class="cls-6" d="M197.36,56.2a1.62,1.62,0,0,0-.08.2C197.32,56.3,197.34,56.24,197.36,56.2Z" transform="translate(-25.57 103.86)"/><path class="cls-6" d="M196.21,56.88Z" transform="translate(-25.57 103.86)"/><path class="cls-6" d="M197.9,54.78a1,1,0,0,0,0-.12A1,1,0,0,0,197.9,54.78Z" transform="translate(-25.57 103.86)"/><path class="cls-6" d="M198,54.59a.09.09,0,0,0,0,0C198,54.57,198,54.53,198,54.59Z" transform="translate(-25.57 103.86)"/><path class="cls-6" d="M197.92,54.6s0,0,0,.06l0-.07Z" transform="translate(-25.57 103.86)"/><path class="cls-6" d="M191.2,56.15v0C191.13,56.27,191.14,56.24,191.2,56.15Z" transform="translate(-25.57 103.86)"/><path class="cls-6" d="M194.35,58.22v0h0Z" transform="translate(-25.57 103.86)"/><path class="cls-6" d="M194.18,58.5c.23-.49.21-.42.19-.31l.46-1.16Z" transform="translate(-25.57 103.86)"/><path class="cls-6" d="M192.11,57.81l-.12.38a3.94,3.94,0,0,0-.41.87c.53-1.25.19-.07.72-1.32l-.08.28s0,0,0,0c-.2.62.41-.89.4-.69a1.7,1.7,0,0,1-.16.44l.18-.29s-.09.24-.1.21l.12-.07,0,0c.09-.19.24-.49.31-.61a2.73,2.73,0,0,1-.13.29l.17-.29c-.12.33-.28.63-.29.57-.49,1.27.16-.3-.06.47l-.11.14a7,7,0,0,0-.28.94,14.22,14.22,0,0,1,.56-1.45c0,.1,0,.15.1-.09-.19.44-.12.34-.08.33l-.25.59c.1-.16.22-.46.35-.72a6.37,6.37,0,0,1-.32.92c0,.12.26-.75.38-.83,0,.24.08,0,.28-.31a4.46,4.46,0,0,1-.22.53l.23-.46-.09.23c.1-.17.25-.59.35-.73.28-.65-.32,1,0,.26-.05.17-.15.36-.24.59.26-.46.2-.33.52-1l-.12.4a12.21,12.21,0,0,1,.63-1.37c.08-.22.15-.41.18-.51l.19-.29a4.39,4.39,0,0,1-.24.54.83.83,0,0,0,.07-.13,8.61,8.61,0,0,1-.37.88c0-.12.08-.24.13-.37-.17.35-.34.74-.49,1.09l.09-.15-.11.24c0,.06,0-.06.11-.21l-.26.66.11-.26-.09.45a17.78,17.78,0,0,1,1-1.83c-.22.47-.33.78-.57,1.35.23-.61-.18.23-.17.09a2.07,2.07,0,0,1-.17.44l.31-.52a2.76,2.76,0,0,0-.19.56c.37-.93.32-.59.47-.86-.13.31-.27.62-.28.53-.24.72.51-1.06.31-.45,0,0,0,0-.07.11.14-.27.1,0,0,.24h0c0,.14.19.09.53-.69,0,.1-.41.94-.48,1.1l1.22-2.59c-.29.67-.92,2.29-1.14,2.64,0,.11-.05.23.08,0s.38-1,.42-1c-.27.77-.14.41-.36,1.07a11.4,11.4,0,0,1,.52-1.15c-.07.15-.44,1-.49,1.15l.49-1c-.09.18-.37.87-.48,1.17.08-.2.05,0,.11,0l.07-.25c0,.18.68-1.43.73-1.35s-.57,1.31-.59,1.46c.23-.53,1.14-2.53,1.37-2.91l-.12.3.19-.32c-.36.78-1.14,2.43-1.46,3.07-.08.25-.15.36-.09.35a1.61,1.61,0,0,1-.22.43v.23c.25-.63.33-.6.54-1.12l-.37.61a8,8,0,0,1,.81-1.6c-.08.25-.47,1.1-.55,1.3.09-.21.23-.38.17-.23l-.17.32c-.06.25.41-.79.2-.18,0,0-.29.81-.13.45.27-.72,1.18-2.91,1.42-3.44,0,0-.21.71-.34,1.07-.2.56-.59,1.31-.76,1.79.07-.17.17-.37.2-.44,0,.16-.22.53-.16.46.27-.62,0,.09.24-.52.11-.17,0,.14,0,.13a15.4,15.4,0,0,1,.72-1.53c-.07.16-.15.37-.18.46s0,.39,0,.42-.11.35-.23.62a1.5,1.5,0,0,1,.18-.33c-.19.56-.08.07-.33.74a4.88,4.88,0,0,1,.39-.7c.23-.57,0-.14-.14.08A13.72,13.72,0,0,1,197,55.8c.13-.17-.19.51-.13.41,0,.18.65-1.33.49-.73s-.41,1-.55,1.35c-.12.17.07-.34,0-.34l-.06.25c-.09.16-.17.28-.12.12-.16.46.13.16,0,.6a3.14,3.14,0,0,0,.25-.52l-.05.06c.15-.41.28-.54.32-.74s.38-.69.33-.45l-.23.57c.07-.16.11-.35,0-.18.13-.24-.25.79.08.06l.14-.4c.15-.27.44-.86.4-.66.22-.57,0,.06.21-.61-.31.83-.09-.08-.4.8.28-.78.08-.35.31-1-.07.19-.13.36-.13.26s-.06.12-.07.16v0s0,0,0,0-.06.19-.1.29a4.25,4.25,0,0,1-.36.6c0-.09.1-.21.17-.41l-.16.32a5.78,5.78,0,0,1,.38-.93l0,0c.07-.24.07-.35,0-.18,0-.1-.24.43-.09.12l-.17.23,0-.11c-.05-.08-.42.63-.19-.15-.06.1-.14.22-.13.08l.15-.36c-.09.11.06-.39-.11,0,.37-1-.05-.26,0-.46l-.19.47s-.12.08-.24.25l-.17.41c-.18.33,0-.33,0-.31.07-.16.07-.11,0,0,.32-1-.43.62-.21-.09-.08.15-.07.09,0,0v0h0l.07-.23c0,.11-.07.19-.08.23a1.08,1.08,0,0,0-.12.15l.18-.45h0c.05-.17-.1.2-.23.54,0,.07-.08.16-.13.26.28-.72-.15.22.15-.55a9.15,9.15,0,0,0-.55,1c0-.1.06-.15.07-.15s0-.2-.07,0l.22-.56-.36.74a6.62,6.62,0,0,1,.4-1c-.34.65-.16.23-.49.87l.16-.36s-.26.48-.15.18c.25-.72-.18-.19,0-.88-.42,1.08.15-.51-.2.33a6.36,6.36,0,0,1,.25-.63c-.16.23.09-.43-.25.25.1-.26.17-.37.23-.52,0,.05-.11.21-.05.06a1.6,1.6,0,0,1,.15-.32,8.91,8.91,0,0,0-.72,1.54c.11-.36.08-.32-.14.15a2.12,2.12,0,0,1,.25-.57s0-.41-.23.18c.06-.15,0,0,0,0s0-.11-.08-.07l0,.1c-.32.71-.1.14-.18.22l0-.08c.13-.54-.14.23,0-.39l-.18.45c-.41,1,.16-.59,0-.25l-.09.26c-.16.32.47-1.32.5-1.45a.67.67,0,0,1,.09-.19c.17-.59-.25.58-.35.69a8.44,8.44,0,0,0,.33-.86c.09-.26-.52,1-.32.35a4.22,4.22,0,0,1-.28.66c-.07.07.28-1-.07-.2a1.82,1.82,0,0,1,.08-.19,4,4,0,0,0-.42.69c.61-1.54-.48.67.11-.74l-.12,0,.06-.14c0-.12-.17.21-.33.54a3.11,3.11,0,0,1,.12-.3c0-.32,0-.26-.35.41l.18-.46c-.13.26.19-.76-.11-.26l.09-.2c-.31.5.32-1.36-.41.29l-.23.39c0,.16-.31.72-.39,1-.07.08.13-.54.2-.61l0,.09c.38-.86,0-.35.29-.94-.17,0-.11-.56-.23-.65l-.27.68,0-.06c.05-.16.2-.54.23-.49.14-.39-.2.29-.26.44a5.26,5.26,0,0,1,.34-.8l0,0,0,.08c-.14.27-.26.56-.29.51s.16-.43.16-.46,0-.07,0,0l0-.08-.2.54c-.14.25,0,0-.27.56.35-1-.09-.43,0-.73-.2.38-.24.35-.26.29,0,.11-.28.72-.29.63a10.22,10.22,0,0,0,.49-1.47c-.22.6-.17.09-.48,1,0-.11.19-.46.29-.76-.28.44,0-.39-.21-.27s-.16.42-.28.65l.29-.83c0,.07-.41.93-.21.35a4.06,4.06,0,0,1-.16.4c.14-.88-.66.48-.24-1.09-.1.33-.13.35-.16.36s-.16.4-.25.62l.17-.65c-.27.61-.1,0-.36.59l.07-.1c-.32.68-.59,1.55-1,2.44.36-.77-.39,1.2.14.1-.06.19-.13.28-.2.49.17-.37.22-.44.19-.26l0,.1c.14-.06,0,.34,0,.63l.17-.44a1.32,1.32,0,0,1-.09.32c.31-.65-.05-.06.28-.78-.34.9.17.08-.23,1.1,0,0,.2-.51.23-.49l-.1.28.15-.35a4.45,4.45,0,0,1-.22.65s0,.06-.06.07c-.1.34.13-.07.1,0l0-.18c.2-.22.18.19.51-.32l.08-.21c.23-.35,0,.25.12.11l0,.05c.11-.2.17-.3.18-.26-.12.23-.15.48-.29.74a8.52,8.52,0,0,0,.55-1l-.13.35a1.9,1.9,0,0,1,.29-.54c-.16.28-.19.53-.39.91-.23.78.44-.71,0,.4.44-.93.15-.55.26-.75s.33-.69.31-.58a10.89,10.89,0,0,0-.38,1.24s0,.06,0,0c-.08.26.19-.3,0,.1a6.59,6.59,0,0,0,.34-.67l-.13.14c.11-.18.5-1,.39-.58-.07.15-.16.33-.22.44s.09-.13,0,.1c-.31.73-.15.12-.42.66-.11.32.3-.49-.05.29.44-1,0,.15.38-.59l-.19.43a2.65,2.65,0,0,1,.15-.25l-.26.56c.24-.47-.11.45,0,.21-.08,0,.2-.54.31-.87.33-.55-.43,1.17-.24,1a1.24,1.24,0,0,1,.17-.48,3,3,0,0,1-.15.51c.11-.06.18-.45.32-.71-.2.55.13-.2.23-.36l-.19.45c0,.31.41-.92.34-.55l-.29.61.1-.15-.22.51c.2-.36.17-.26.15-.1a4.33,4.33,0,0,1,.39-.81c-.09.28-.19.42-.12.38-.12.27-.28.62-.13.2-.07.14-.13.27-.19.41-.1.32,0,.1.05.1a.62.62,0,0,1,0-.11l.33-.58a4.54,4.54,0,0,1-.19.43,1.89,1.89,0,0,1,.17-.28,7.09,7.09,0,0,1-.42.89l.24-.37c-.06.16-.14.45-.21.58s.39-.66.32-.36a1,1,0,0,1,.1-.18c0,.1-.13.56.13.09l-.24.66c.11-.13.3-.84.48-1s-.21.56-.27.75c.16-.32.48-1,.31-.42C192.11,57.87,192.14,57.77,192.11,57.81Zm.66-.06c-.05.09-.19.37-.09.1C192.91,57.35,192.81,57.6,192.77,57.75Zm1.28-.73c-.07.15-.06.07,0-.1S194.08,56.91,194.05,57Zm3.59-2.13v0C197.68,54.73,197.66,54.8,197.64,54.89Zm0,.21a1.42,1.42,0,0,0,.08-.18c-.05.11-.06.11-.06.07C197.58,55.11,197.56,55.19,197.61,55.1Zm-5.31-2,0,.12C192.18,53.33,192.24,53.21,192.3,53.09Z" transform="translate(-25.57 103.86)"/><path class="cls-6" d="M193.7,57.59l.09-.24A1.7,1.7,0,0,0,193.7,57.59Z" transform="translate(-25.57 103.86)"/><path class="cls-6" d="M191.67,57.9h0l0,.08Z" transform="translate(-25.57 103.86)"/><path class="cls-6" d="M195.28,58.56a1.68,1.68,0,0,1,.08-.24A.8.8,0,0,0,195.28,58.56Z" transform="translate(-25.57 103.86)"/><path class="cls-6" d="M198.19,54.45l-.08.11s0,.08,0,.15A2.45,2.45,0,0,1,198.19,54.45Z" transform="translate(-25.57 103.86)"/><path class="cls-6" d="M197.31,57.32s0,0,0,0l.08-.21A.52.52,0,0,0,197.31,57.32Z" transform="translate(-25.57 103.86)"/><path class="cls-6" d="M197.6,55.94c-.16.38-.08.26,0,.2h0C197.79,55.62,197.69,55.78,197.6,55.94Z" transform="translate(-25.57 103.86)"/><path class="cls-6" d="M197.58,56.13s0,0,0,0C197.69,55.92,197.61,56.08,197.58,56.13Z" transform="translate(-25.57 103.86)"/><path class="cls-6" d="M197.78,54.88c0,.1.2-.48.15-.32C198.14,54.09,197.62,55.11,197.78,54.88Z" transform="translate(-25.57 103.86)"/><polygon class="cls-6" points="171.53 161.04 171.72 160.58 171.55 160.95 171.53 161.04"/><path class="cls-6" d="M197.07,56.77l0,.15a.76.76,0,0,1,.08-.16S197.13,56.64,197.07,56.77Z" transform="translate(-25.57 103.86)"/><path class="cls-6" d="M197.13,56.76s0,0,.06-.06S197.16,56.71,197.13,56.76Z" transform="translate(-25.57 103.86)"/><polygon class="cls-6" points="171.42 161.16 171.45 161.06 171.44 161.02 171.42 161.16"/><path class="cls-6" d="M196.73,56.53l-.09.11c-.07.16-.1.26-.06.2A3.06,3.06,0,0,0,196.73,56.53Z" transform="translate(-25.57 103.86)"/><path class="cls-6" d="M196.32,57.84c0-.1.07-.2.13-.36l-.24.58Z" transform="translate(-25.57 103.86)"/><path class="cls-6" d="M196.15,57.93c-.07.16-.25.43-.18.42A1.83,1.83,0,0,0,196.15,57.93Z" transform="translate(-25.57 103.86)"/><polygon class="cls-6" points="170.31 160.82 170.32 160.82 170.71 159.88 170.31 160.82"/><path class="cls-6" d="M194.43,59c-.05.24.25-.58.18-.28.1-.22.06-.24.15-.43A2.9,2.9,0,0,0,194.43,59Z" transform="translate(-25.57 103.86)"/><path class="cls-6" d="M194.76,58.29s0-.08.07-.14Z" transform="translate(-25.57 103.86)"/><polygon class="cls-6" points="165.15 155.73 165.2 155.52 165.09 155.84 165.15 155.73"/><path class="cls-6" d="M190.37,52.54l.24-.6-.24.53S190.42,52.4,190.37,52.54Z" transform="translate(-25.57 103.86)"/><path class="cls-6" d="M192.35,59l.06-.14c.06-.16.06-.17.06-.2Z" transform="translate(-25.57 103.86)"/><polygon class="cls-6" points="166.57 162.24 166.57 162.25 166.78 161.71 166.57 162.24"/><path class="cls-6" d="M191.52,58.93s.07-.09.07-.06S191.8,58.25,191.52,58.93Z" transform="translate(-25.57 103.86)"/></g></g></g></svg>