<svg xmlns="http://www.w3.org/2000/svg" viewBox="0 0 400 600"><defs><style>.cls-1{fill:#687cbc;}.cls-2{fill:none;}.cls-3{fill:#8374c4;}.cls-4{fill:#e57ca7;}.cls-5{fill:#01abb8;}.cls-6{fill:#7bbfa0;}.cls-7{fill:#58aabc;}.cls-19,.cls-8,.cls-9{fill:#fff;}.cls-8{stroke:#42210b;}.cls-19,.cls-8{stroke-miterlimit:10;}.cls-10{fill:#462b17;}.cls-11{fill:#b0e2f1;}.cls-12{fill:#f6d436;}.cls-13{fill:#794833;}.cls-14{fill:#fdfaf3;}.cls-15{fill:#fffdfb;}.cls-16{fill:#42210b;}.cls-17{fill:#fb796b;}.cls-18{fill:#a0d29d;}.cls-19{stroke:#1b1464;}</style></defs><g id="图层_2" data-name="图层 2"><g id="h2"><path class="cls-1" d="M98.22,95H341.93c31.09,0,56.29-15.67,56.29-35S373,25,341.93,25H99.55"/><path class="cls-2" d="M60,120a60,60,0,1,1,60-60A60,60,0,0,1,60,120Z"/><path class="cls-3" d="M62.63,215H343.37c31.28,0,56.63-15.67,56.63-35s-25.35-35-56.63-35H62.63"/><path class="cls-2" d="M60,240a60,60,0,1,1,60-60A60,60,0,0,1,60,240Z"/><path class="cls-4" d="M95.25,335H343.37c31.28,0,56.63-15.67,56.63-35s-25.35-35-56.63-35H98.22"/><path class="cls-2" d="M60,360a60,60,0,1,1,60-60A60,60,0,0,1,60,360Z"/><line class="cls-5" x1="77.32" y1="367" x2="62.63" y2="367"/><path class="cls-6" d="M62.63,455H343.37c31.28,0,56.63-15.67,56.63-35s-25.35-35-56.63-35h-266"/><path class="cls-7" d="M62.63,575H343.37c31.28,0,56.63-15.67,56.63-35s-25.35-35-56.63-35h-266"/><path class="cls-2" d="M60,480a60,60,0,1,1,60-60A60,60,0,0,1,60,480Z"/><path class="cls-8" d="M31.14,197.53a27.74,27.74,0,0,0-1.05,7.29c.35,6,4.37,10.51,9.72,12.56a6.86,6.86,0,0,0,1.47.5,7.64,7.64,0,0,0,.85.18l20.19,4.34c7.2,1.54,17,5.44,24,2.58,8.67-3.53,9.3-13.92,11-21.9l6-28c.74-3.42,1.82-6.94,1.37-10.44-.7-5.56-4.08-8.86-8.46-10.84l.94-4.38c4.54-5.29,3.14-14.64-3.47-18.36-4-2.25-9.46-2.65-13.86-3.6s-9.15-2.68-13.57-2.43c-7.76.44-13.32,8.51-11.25,15.38l-.94,4.41c-5.83.11-11.08,2.52-13.41,9-1.22,3.39-1.74,7.24-2.5,10.76Z"/><path class="cls-9" d="M80.75,158.68l-3.48-.75.73-3.4a.13.13,0,0,0-.1-.16l-7.26-1.55a.12.12,0,0,0-.15.1l-.73,3.4-3.48-.75.73-3.4a3.7,3.7,0,0,1,4.38-2.84l7.26,1.56a3.69,3.69,0,0,1,2.83,4.38Z"/><path class="cls-10" d="M81.63,160l-5.72-1.23.76-3.53-5.27-1.13-.76,3.53-5.73-1.23,1-4.52a4.84,4.84,0,0,1,5.74-3.72l7.26,1.56a4.84,4.84,0,0,1,3.71,5.75Zm-3-3,1.24.27.49-2.29a2.54,2.54,0,0,0-2-3l-7.26-1.56a2.55,2.55,0,0,0-3,2l-.49,2.28,1.24.27.49-2.29a1.29,1.29,0,0,1,1.52-1l7.25,1.56a1.28,1.28,0,0,1,1,1.52Z"/><rect class="cls-11" x="41.81" y="155.14" width="51.33" height="60.23" rx="7.41" transform="translate(40.38 -10.04) rotate(12.11)"/><path class="cls-10" d="M79.26,219.75l-36.69-7.87a8.06,8.06,0,0,1-6.18-9.56l9.74-45.39a8.06,8.06,0,0,1,9.56-6.18l36.69,7.87a8.08,8.08,0,0,1,6.19,9.57l-9.75,45.38A8.05,8.05,0,0,1,79.26,219.75ZM55.21,153a5.78,5.78,0,0,0-6.84,4.42L38.63,202.8a5.78,5.78,0,0,0,4.42,6.84l36.69,7.87a5.76,5.76,0,0,0,6.84-4.42l9.74-45.39a5.75,5.75,0,0,0-4.42-6.83Z"/><path class="cls-12" d="M57.22,152.25l-1.77-.38a6.9,6.9,0,0,0-8.2,5.3l-.38,1.77A8.72,8.72,0,0,0,57.22,152.25Z"/><path class="cls-10" d="M46.63,160.06l-1.12-.24.62-2.89a8.06,8.06,0,0,1,9.56-6.18l2.89.62-.24,1.12A9.87,9.87,0,0,1,46.63,160.06ZM55.21,153a5.78,5.78,0,0,0-6.84,4.42l-.12.56a7.57,7.57,0,0,0,7.52-4.86Z"/><path class="cls-12" d="M97.06,169.71l.38-1.77a6.9,6.9,0,0,0-5.3-8.19l-1.76-.38A8.7,8.7,0,0,0,97.06,169.71Z"/><path class="cls-10" d="M98,171.07l-1.13-.24a9.87,9.87,0,0,1-7.57-11.7L89.5,158l2.88.62a8.08,8.08,0,0,1,6.19,9.57Zm-6.61-10.32a7.56,7.56,0,0,0,4.86,7.51l.12-.56a5.75,5.75,0,0,0-4.42-6.83Z"/><path class="cls-12" d="M37.89,200.79l-.38,1.77a6.91,6.91,0,0,0,5.3,8.2l1.77.38A8.71,8.71,0,0,0,37.89,200.79Z"/><path class="cls-10" d="M45.46,212.5l-2.89-.62a8.06,8.06,0,0,1-6.18-9.56l.62-2.89,1.12.24a9.87,9.87,0,0,1,7.57,11.71Zm-6.71-10.26-.12.56a5.78,5.78,0,0,0,4.42,6.84l.56.12A7.57,7.57,0,0,0,38.75,202.24Z"/><path class="cls-12" d="M87.7,213.33l.38-1.77a8.71,8.71,0,0,0-10.34,6.69l1.76.38A6.9,6.9,0,0,0,87.7,213.33Z"/><path class="cls-10" d="M79.26,219.75l-2.88-.62.24-1.12a9.87,9.87,0,0,1,11.7-7.57l1.12.24-.62,2.89A8.05,8.05,0,0,1,79.26,219.75Zm-.08-2.36.56.12a5.76,5.76,0,0,0,6.84-4.42l.12-.56A7.58,7.58,0,0,0,79.18,217.39Z"/><rect class="cls-13" x="49.93" y="175.9" width="7.46" height="36.77" transform="translate(41.96 -6.94) rotate(12.11)"/><path class="cls-10" d="M54.34,214.4l-9.55-2L53,174.17l9.54,2Zm-6.82-3.81,5,1.09L59.81,178l-5.06-1.08Z"/><path class="cls-13" d="M55,188.31h0a3.74,3.74,0,0,1-2.87-4.44l6.72-31.28,7.29,1.57-6.71,31.28A3.74,3.74,0,0,1,55,188.31Z"/><path class="cls-10" d="M54.71,189.43a4.9,4.9,0,0,1-3.75-5.8l6.95-32.4,9.55,2-7,32.41A4.88,4.88,0,0,1,54.71,189.43Zm5-35.48L53.2,184.11a2.59,2.59,0,0,0,5.06,1.09L64.73,155Z"/><path class="cls-10" d="M55.86,184.05a4.88,4.88,0,0,1-3.75-5.79l.51-2.37a4.88,4.88,0,1,1,9.54,2.05l-.51,2.36A4.88,4.88,0,0,1,55.86,184.05Zm2.08-9.67a2.61,2.61,0,0,0-3.08,2l-.5,2.37a2.58,2.58,0,1,0,5,1.08l.51-2.37A2.59,2.59,0,0,0,57.94,174.38Z"/><path class="cls-10" d="M55.68,184.88h0a.79.79,0,0,1-.6-.93l1.55-7.24a.79.79,0,0,1,.93-.6h0a.79.79,0,0,1,.61.93l-1.56,7.24A.78.78,0,0,1,55.68,184.88Z"/><rect class="cls-13" x="71.54" y="191.13" width="7.46" height="26.29" transform="translate(44.54 -11.25) rotate(12.11)"/><path class="cls-10" d="M77,219.28l-9.54-2.05,6-27.95L83,191.33Zm-6.82-3.81,5.06,1.08,5-23.46L75.26,192Z"/><path class="cls-13" d="M75.45,203.42h0A3.73,3.73,0,0,1,72.59,199l8.91-41.53L88.8,159l-8.91,41.53A3.74,3.74,0,0,1,75.45,203.42Z"/><path class="cls-10" d="M75.21,204.54a4.87,4.87,0,0,1-3.74-5.79l9.15-42.65,9.54,2.05L81,200.8A4.89,4.89,0,0,1,75.21,204.54Zm7.17-45.72-8.67,40.41a2.58,2.58,0,1,0,5.05,1.08l8.68-40.4Z"/><path class="cls-10" d="M76.37,199.17a4.9,4.9,0,0,1-3.75-5.8l.51-2.37a4.88,4.88,0,0,1,9.54,2.05l-.51,2.37A4.88,4.88,0,0,1,76.37,199.17Zm2.07-9.67a2.59,2.59,0,0,0-3.07,2l-.51,2.36a2.59,2.59,0,0,0,5.06,1.09l.51-2.37A2.59,2.59,0,0,0,78.44,189.5Z"/><path class="cls-10" d="M76.19,200h0a.77.77,0,0,1-.6-.93l1.55-7.24a.77.77,0,0,1,.93-.6h0a.77.77,0,0,1,.6.93l-1.55,7.23A.79.79,0,0,1,76.19,200Z"/><rect class="cls-9" x="61.5" y="137.27" width="2.8" height="16.02" transform="translate(31.89 -9.96) rotate(12.11)"/><path class="cls-10" d="M63.46,154.76l-5-1.06,3.84-17.91,5,1.07Zm-2.25-2.83.49.11,2.88-13.42-.49-.1Z"/><rect class="cls-9" x="86.66" y="142.67" width="2.8" height="16.02" transform="translate(33.58 -15.12) rotate(12.11)"/><path class="cls-10" d="M88.63,160.16l-5-1.06,3.84-17.91,5,1.07Zm-2.26-2.83.49.11L89.74,144l-.49-.1Z"/><path class="cls-12" d="M90.84,145.22l-2.55-.55a1.14,1.14,0,0,1-.88-1.36l.32-1.52a.18.18,0,0,0-.14-.21l-20.54-4.41a.18.18,0,0,0-.21.14l-.32,1.51a1.15,1.15,0,0,1-1.36.88l-2.55-.54a1.14,1.14,0,0,1-.88-1.36l.32-1.52a5.09,5.09,0,0,1,6-3.9l20.54,4.41a5.08,5.08,0,0,1,3.9,6l-.32,1.52A1.16,1.16,0,0,1,90.84,145.22Z"/><path class="cls-10" d="M90.59,146.34l-2.54-.55a2.29,2.29,0,0,1-1.76-2.72l.12-.57-18.65-4-.12.57a2.31,2.31,0,0,1-2.72,1.76l-2.55-.55a2.29,2.29,0,0,1-1.76-2.72l.32-1.52a6.24,6.24,0,0,1,7.39-4.78l20.54,4.41a6.23,6.23,0,0,1,4.78,7.39l-.32,1.52A2.31,2.31,0,0,1,90.59,146.34Zm-23.3-10.29,20.54,4.41a1.32,1.32,0,0,1,1,1.57l-.32,1.52,2.55.54.32-1.51a3.94,3.94,0,0,0-3-4.67L67.84,133.5a3.94,3.94,0,0,0-4.67,3L62.85,138l2.55.54.32-1.51A1.32,1.32,0,0,1,67.29,136.05Z"/><path class="cls-14" d="M46.81,179.76h0a1.15,1.15,0,0,1-.88-1.36L49,164a1.14,1.14,0,0,1,1.36-.88h0a1.14,1.14,0,0,1,.88,1.36l-3.1,14.45A1.15,1.15,0,0,1,46.81,179.76Z"/><path class="cls-14" d="M44.78,189.25h0a1.14,1.14,0,0,1-.88-1.36l1-4.43a1.14,1.14,0,0,1,1.36-.88h0a1.15,1.15,0,0,1,.88,1.36l-1,4.43A1.14,1.14,0,0,1,44.78,189.25Z"/><path class="cls-14" d="M69.7,158.65h0a1.14,1.14,0,0,1,1.36-.88l4.43.95a1.16,1.16,0,0,1,.88,1.37h0A1.14,1.14,0,0,1,75,161L70.58,160A1.15,1.15,0,0,1,69.7,158.65Z"/><path class="cls-8" d="M48.14,57.21,40,67.25a23.93,23.93,0,0,0-6-1.2c-5.39-.19-9.71,3.25-13.11,7.19-4.39,5.09-3.57,11.67,1.68,15.7,1,.78,2.07,1.55,3.11,2.32a11.52,11.52,0,0,0,3.73,10.38,10.42,10.42,0,0,0,8.83,2.54c.74,1.06,1.48,2.12,2.24,3.16,3.89,5.36,10.23,6.28,15.18,1.82,3.86-3.48,7.32-8,7.08-13.57a26.47,26.47,0,0,0-1.17-6.16l9.27-8c4.64,7.34,9.27,14.69,14,21.94,5.29,8.06,13.4,8.12,19.7,1,4.66-5.23,3.4-11,1.72-16.85,3.07-3.45,5.46-7.3,4.09-12.5a10.75,10.75,0,0,0-5.28-7,11.36,11.36,0,0,0-3.81-14.94,68.5,68.5,0,0,0,8-10.74c4.56-7.69,8.44-16.06,4.38-24a5.65,5.65,0,0,0-1.82-2.86A5.43,5.43,0,0,0,109,13.68C97.58,7.61,83.7,18.31,74.3,27.33a10.79,10.79,0,0,0-7.61-8,10.16,10.16,0,0,0-8.22.95,10.78,10.78,0,0,0-7.21-5.54c-4.93-1.2-8.52,1.24-11.75,4.32-6.19-1.8-11.82-2.92-17.27,2.68C18,26.05,16,32.33,20.11,37.58a20.49,20.49,0,0,0,5.1,4.17ZM54,100.3l.08-.09C54.61,100.38,54.41,100.41,54,100.3Z"/><path class="cls-12" d="M84.53,69.67l4,4.14L97.08,65a3,3,0,0,0,0-4.13h0a2.79,2.79,0,0,0-4,0Z"/><path class="cls-10" d="M82.62,69.67l9.48-9.74a4.13,4.13,0,0,1,5.94,0A4.41,4.41,0,0,1,98,66l-9.49,9.75ZM94,61.89l-7.57,7.78,2.11,2.18,7.58-7.79A1.55,1.55,0,0,0,96.57,63a1.57,1.57,0,0,0-.44-1.09,1.47,1.47,0,0,0-2.12,0Z"/><path class="cls-12" d="M88.8,84.9l4,4.13,8.53-8.76a3,3,0,0,0,0-4.14h0a2.79,2.79,0,0,0-4,0Z"/><path class="cls-10" d="M86.89,84.9l9.48-9.75a4.12,4.12,0,0,1,5.93,0,4.4,4.4,0,0,1,0,6.1L92.82,91Zm11.39-7.79L90.7,84.9l2.12,2.17,7.58-7.78a1.59,1.59,0,0,0,.44-1.09,1.57,1.57,0,0,0-.44-1.09,1.48,1.48,0,0,0-1.06-.45A1.47,1.47,0,0,0,98.28,77.11Z"/><path class="cls-15" d="M70.36,64.67,93,100.22a2,2,0,0,0,3.18.33l2.72-2.79a2.18,2.18,0,0,0,.53-2.06L86.79,48.24a.44.44,0,0,0-.74-.2L70.42,64.11A.45.45,0,0,0,70.36,64.67Z"/><path class="cls-10" d="M94.42,102.54a3.38,3.38,0,0,1-2.5-1.56L69.23,65.43h0a1.89,1.89,0,0,1,.24-2.31L85.1,47.06a1.74,1.74,0,0,1,1.72-.48,1.82,1.82,0,0,1,1.27,1.29l12.68,47.47a3.57,3.57,0,0,1-.88,3.4l-2.71,2.79a3.38,3.38,0,0,1-2.41,1Zm-22.52-38,22.27,34.9a.68.68,0,0,0,.52.33.72.72,0,0,0,.58-.21L98,96.78a.77.77,0,0,0,.19-.71L85.9,50.15Zm-.41-.64h0Z"/><path class="cls-12" d="M57,41.37l-4-4.14,8.53-8.76a2.8,2.8,0,0,1,4,0h0a3,3,0,0,1,0,4.14Z"/><path class="cls-10" d="M51.06,37.23l9.48-9.74a4.12,4.12,0,0,1,5.93,0,4.4,4.4,0,0,1,0,6.1L57,43.33Zm11.39-7.78-7.58,7.78L57,39.41l7.57-7.79a1.55,1.55,0,0,0,0-2.17,1.46,1.46,0,0,0-2.11,0Z"/><path class="cls-12" d="M42.18,37l-4-4.13,8.53-8.77a2.8,2.8,0,0,1,4,0h0a3,3,0,0,1,0,4.14Z"/><path class="cls-10" d="M36.24,32.85l9.49-9.75a4.12,4.12,0,0,1,5.93,0,4.4,4.4,0,0,1,0,6.1l-9.48,9.74Zm11.4-7.79-7.58,7.79L42.18,35l7.57-7.78a1.56,1.56,0,0,0,0-2.18,1.46,1.46,0,0,0-2.11,0Z"/><path class="cls-15" d="M61.85,55.93,27.27,32.62a2.16,2.16,0,0,1-.33-3.27l2.72-2.79a2,2,0,0,1,2-.54l46.19,13a.45.45,0,0,1,.19.75L62.41,55.87A.44.44,0,0,1,61.85,55.93Z"/><path class="cls-10" d="M61.12,57.09,26.53,33.78A3.57,3.57,0,0,1,26,28.37l2.71-2.79a3.37,3.37,0,0,1,3.32-.9l46.18,13A1.8,1.8,0,0,1,79.46,39,1.9,1.9,0,0,1,79,40.78L63.36,56.85a1.77,1.77,0,0,1-1.27.54A1.71,1.71,0,0,1,61.12,57.09Zm1.47-2.32ZM31.3,27.36a.71.71,0,0,0-.69.18L27.9,30.33A.74.74,0,0,0,28,31.46L62,54.35,76,40Z"/><path class="cls-11" d="M100.52,20.63a5,5,0,0,1,6.4,6.58A58.66,58.66,0,0,1,92.5,50l-8.66,8.9L46.93,90.55a23.88,23.88,0,0,1-9.58,5h0A2.8,2.8,0,0,1,34,92.13h0a25.14,25.14,0,0,1,4.89-9.85L69.72,44.35l8.66-8.9C86.17,27.44,92.2,23.93,100.52,20.63Z"/><path class="cls-10" d="M33.77,95.81a4.28,4.28,0,0,1-1.08-4,26.74,26.74,0,0,1,5.17-10.39L68.68,43.46l8.75-9c8.16-8.39,14.47-11.9,22.6-15.13h0a6.08,6.08,0,0,1,6.72,1.46,6.53,6.53,0,0,1,1.43,6.91A60.15,60.15,0,0,1,93.46,50.94l-8.66,8.9-37,31.77a25.64,25.64,0,0,1-10.11,5.31,4.1,4.1,0,0,1-1,.13A4,4,0,0,1,33.77,95.81ZM91.55,49a57.51,57.51,0,0,0,14.11-22.27,3.69,3.69,0,0,0-.81-3.95,3.45,3.45,0,0,0-3.85-.83C93.21,25,87.16,28.38,79.34,36.43l-8.62,8.86L39.93,83.17a23.86,23.86,0,0,0-4.62,9.3,1.45,1.45,0,0,0,.37,1.38,1.38,1.38,0,0,0,1.34.38,22.74,22.74,0,0,0,9-4.75L82.93,57.84Z"/><path class="cls-12" d="M26.89,81.33,38.73,90.1a2.72,2.72,0,0,1,.6.62l8.53,12.16a1.05,1.05,0,0,0,1.63.14l3.15-3.24A5.46,5.46,0,0,0,54,94.55L50.16,80.72A2.51,2.51,0,0,0,48.45,79L35,75.05a5.11,5.11,0,0,0-5.1,1.36l-3.14,3.24A1.12,1.12,0,0,0,26.89,81.33Z"/><path class="cls-10" d="M48.54,104.72a2.42,2.42,0,0,1-1.78-1L38.23,91.53a1.42,1.42,0,0,0-.29-.31L26.1,82.46a2.55,2.55,0,0,1-.3-3.79L29,75.43a6.41,6.41,0,0,1,6.41-1.71l13.46,3.91a3.86,3.86,0,0,1,2.63,2.71l3.82,13.83a6.89,6.89,0,0,1-1.67,6.59L50.45,104a2.41,2.41,0,0,1-1.72.73ZM30.86,77.39l-2.93,3L39.51,89a4.06,4.06,0,0,1,.91.94l8.35,11.9,2.92-3a4,4,0,0,0,1-3.87L48.86,81.1a1.14,1.14,0,0,0-.78-.8L34.63,76.39a3.46,3.46,0,0,0-1.05-.15A3.78,3.78,0,0,0,30.86,77.39Z"/><path class="cls-14" d="M80.52,41.35h0a1.32,1.32,0,0,0-1.9.1L63.43,58.73a1.42,1.42,0,0,0,.09,2h0a1.32,1.32,0,0,0,1.91-.1L80.62,43.31A1.41,1.41,0,0,0,80.52,41.35Z"/><path class="cls-14" d="M88.44,32.34h0a1.33,1.33,0,0,0-1.91.1l-4.13,4.7a1.42,1.42,0,0,0,.1,2h0a1.31,1.31,0,0,0,1.9-.1l4.14-4.7A1.42,1.42,0,0,0,88.44,32.34Z"/><path class="cls-9" d="M89,339.43a5.85,5.85,0,0,1-1.89-.3,17.71,17.71,0,0,1-10.37-5.87l-.15-.18H54.4l-.15.18a17.59,17.59,0,0,1-10.33,5.86,6.2,6.2,0,0,1-1.94.31h-.81a5.89,5.89,0,0,1-1.89-.3,17.72,17.72,0,0,1-10.35-5.85l-.15-.18h-.24l-2.3,0c-1.46,0-2.93.06-4.39.06-2.24,0-4.08-.08-5.76-.24a10.13,10.13,0,0,1-8.5-7c-1.6-4.34-.76-9.23,2.08-12.17l.14-.14v-.2a15.5,15.5,0,0,1,.75-5c1.35-3.8,4.36-5.68,7.41-7.15.41-.19.82-.42,1.25-.64a17.83,17.83,0,0,1,2.39-1.13l-.32,1.13,1.42-1.55a17.3,17.3,0,0,0,2.06-3.11c.31-.54.61-1.07.91-1.54.88-1.35,1.72-2.77,2.62-4.27,1.23-2.06,2.51-4.2,3.9-6.19l.34-.49-.54-.25a4.22,4.22,0,0,1-1-.66c-4.47-2.69-6-7.61-3.82-12,2.42-4.84,8.34-5.33,13.57-5.76.85-.07,1.67-.13,2.46-.22a226.78,226.78,0,0,1,24.24-1.18h31.1c4.31,0,8.78,0,12.2,3.7a10.7,10.7,0,0,1,.89,13.8l-.16.23.11.26a17,17,0,0,1,1.35,6l0,.33.32.11c6.25,2.16,6.21,9.77,6.17,15.88v1.35c0,3.25,0,6.62-2.34,9.41a9.75,9.75,0,0,1-1.86,1.72l-.34.23.16.37a13,13,0,0,1-1,11.82c-2.66,4-7,4.34-11.62,4.34h-.23l-.15.18a17.61,17.61,0,0,1-10.32,5.85,6.2,6.2,0,0,1-1.94.31H89Z"/><path class="cls-16" d="M98.53,264c4.21,0,8.56,0,11.83,3.54a10.25,10.25,0,0,1,.85,13.17l-.33.47.24.52a16.38,16.38,0,0,1,1.3,5.86l0,.66.62.22c5.92,2,5.88,9.14,5.84,15.41v1.35c0,3.17,0,6.44-2.22,9.09a9.1,9.1,0,0,1-1.77,1.63l-.66.46.31.75a12.47,12.47,0,0,1-.91,11.34c-2.53,3.81-6.57,4.12-11.2,4.12H102l-.3.35a17.08,17.08,0,0,1-10,5.69h-.07l-.07,0a5.33,5.33,0,0,1-1.71.27H89a5.41,5.41,0,0,1-1.73-.27l-.07,0h-.07a17.17,17.17,0,0,1-10-5.69l-.3-.36H54.17l-.3.36a17.11,17.11,0,0,1-10,5.69h-.07l-.06,0a5.39,5.39,0,0,1-1.72.27h-.81a5.45,5.45,0,0,1-1.73-.27l-.06,0h-.07a17.17,17.17,0,0,1-10-5.67l-.31-.37h-.47l-2.3,0c-1.44,0-2.92.06-4.38.06-2.23,0-4-.08-5.71-.24a9.52,9.52,0,0,1-8.08-6.62c-1.53-4.17-.74-8.85,2-11.65l.28-.29v-.39a15.31,15.31,0,0,1,.72-4.85c1.29-3.62,4.2-5.43,7.15-6.86.42-.2.84-.42,1.27-.65s.93-.49,1.39-.71l-.63,2.19,2.87-3.13a17.77,17.77,0,0,0,2.12-3.2c.31-.55.61-1.07.9-1.52.88-1.36,1.73-2.78,2.63-4.28,1.23-2.06,2.5-4.18,3.88-6.16l.68-1-1.08-.5a3.82,3.82,0,0,1-.91-.59l-.06,0-.07,0c-3.41-2.05-6-6.47-3.56-11.31,2.29-4.59,8.06-5.06,13.15-5.48l2.48-.22A225.67,225.67,0,0,1,67.43,264h31.1m0-1H67.43a226.7,226.7,0,0,0-24.3,1.18c-5.66.61-13.47.35-16.41,6.25-2.5,5-.35,10,3.93,12.61a5,5,0,0,0,1.14.74c-2.39,3.43-4.43,7.23-6.53,10.47a35.77,35.77,0,0,1-2.92,4.58s0,0,0,0-.31.11-.75.26a37.21,37.21,0,0,0-3.82,1.84c-3.42,1.65-6.31,3.64-7.66,7.43a15.88,15.88,0,0,0-.78,5.16c-6,6.19-2.75,19,6.73,20,1.92.18,3.86.24,5.81.24,2.24,0,4.48-.07,6.7-.11a18.13,18.13,0,0,0,10.58,6,6.47,6.47,0,0,0,2,.32H42a6.45,6.45,0,0,0,2-.32,18.05,18.05,0,0,0,10.62-6H76.39a18.13,18.13,0,0,0,10.59,6,6.53,6.53,0,0,0,2,.32h.81a6.45,6.45,0,0,0,2-.32,18.06,18.06,0,0,0,10.61-6c4.57,0,9.19-.29,12-4.56a13.48,13.48,0,0,0,1-12.29,10,10,0,0,0,2-1.81c2.39-2.85,2.46-6.23,2.46-9.73,0-6.46.56-15.26-6.51-17.71a17.86,17.86,0,0,0-1.39-6.21,11.26,11.26,0,0,0-.93-14.42c-3.48-3.76-7.91-3.86-12.57-3.86Z"/><circle class="cls-13" cx="41.58" cy="323.04" r="9.12"/><path class="cls-10" d="M41.58,333.38A10.35,10.35,0,1,1,51.92,323,10.36,10.36,0,0,1,41.58,333.38Zm0-18.24a7.9,7.9,0,1,0,7.9,7.9A7.91,7.91,0,0,0,41.58,315.14Z"/><path class="cls-17" d="M105.85,318a.08.08,0,0,1-.09-.08V287a5.14,5.14,0,0,0-5.15-5.14H46.08a6.51,6.51,0,0,0-5.46,3L28.69,303.18a6.45,6.45,0,0,1-2.63,2.31l-6.69,3.23a4,4,0,0,0-2.29,3.64v5.51A.09.09,0,0,1,17,318a2.86,2.86,0,0,0-2.86,2.87v2.22a2.78,2.78,0,0,0,2.78,2.78H29.06a12.37,12.37,0,0,1,.48-7.11,13,13,0,0,1,11.56-8.5,12.82,12.82,0,0,1,13,15.61H76.92a12.29,12.29,0,0,1,.48-7.11A13,13,0,0,1,89,310.22a12.82,12.82,0,0,1,13,15.61h4a2.78,2.78,0,0,0,2.78-2.78v-2.22A2.86,2.86,0,0,0,105.85,318Z"/><path class="cls-10" d="M105.93,327.05h-5.5l.33-1.49A12.23,12.23,0,0,0,101,323a11.6,11.6,0,0,0-12-11.6,11.83,11.83,0,0,0-10.46,7.71,11,11,0,0,0-.43,6.41l.33,1.49H52.57l.33-1.49a11.6,11.6,0,0,0-11.76-14.12,11.83,11.83,0,0,0-10.45,7.71,11,11,0,0,0-.44,6.41l.34,1.49H16.91a4,4,0,0,1-4-4v-2.22a4.1,4.1,0,0,1,2.95-3.93v-4.54a5.29,5.29,0,0,1,3-4.74l6.69-3.23a5.18,5.18,0,0,0,2.14-1.88L39.6,284.17a7.69,7.69,0,0,1,6.48-3.51h54.53A6.37,6.37,0,0,1,107,287V316.9a4.1,4.1,0,0,1,3,3.93v2.22A4,4,0,0,1,105.93,327.05Zm-2.54-2.44h2.54a1.56,1.56,0,0,0,1.56-1.56v-2.22a1.65,1.65,0,0,0-1.64-1.65,1.31,1.31,0,0,1-1.31-1.3V287a3.93,3.93,0,0,0-3.93-3.92H46.08a5.27,5.27,0,0,0-4.43,2.4L29.72,303.85a7.82,7.82,0,0,1-3.13,2.74l-6.69,3.23a2.85,2.85,0,0,0-1.6,2.54v5.51A1.31,1.31,0,0,1,17,319.18a1.65,1.65,0,0,0-1.64,1.65v2.22a1.56,1.56,0,0,0,1.56,1.56H27.62a13.33,13.33,0,0,1,.78-6.31A14.28,14.28,0,0,1,41.05,309a14,14,0,0,1,14.48,15.61h20a13.33,13.33,0,0,1,.78-6.31A14.28,14.28,0,0,1,88.91,309a14,14,0,0,1,14.48,15.61Z"/><circle class="cls-13" cx="89.43" cy="323.04" r="9.12"/><path class="cls-10" d="M89.43,333.38A10.35,10.35,0,1,1,99.78,323,10.35,10.35,0,0,1,89.43,333.38Zm0-18.24a7.9,7.9,0,1,0,7.91,7.9A7.91,7.91,0,0,0,89.43,315.14Z"/><path class="cls-11" d="M35.24,302.16l8.44-13a2.87,2.87,0,0,1,2.42-1.31H55a2,2,0,0,1,2,2v12.86a2,2,0,0,1-2,2H36.62A1.65,1.65,0,0,1,35.24,302.16Z"/><path class="cls-10" d="M55,305.93H36.62a2.87,2.87,0,0,1-2.4-4.44l8.44-13a4.09,4.09,0,0,1,3.44-1.86H55a3.21,3.21,0,0,1,3.21,3.21v12.86A3.21,3.21,0,0,1,55,305.93ZM46.1,289.09a1.66,1.66,0,0,0-1.4.76l-8.44,13a.42.42,0,0,0,.36.66H55a.77.77,0,0,0,.77-.76V289.86a.77.77,0,0,0-.77-.77Z"/><rect class="cls-11" x="62.1" y="287.87" width="15.67" height="16.84" rx="1.91"/><path class="cls-10" d="M75.78,305.93H64.09a3.21,3.21,0,0,1-3.21-3.21V289.86a3.21,3.21,0,0,1,3.21-3.21H75.78A3.21,3.21,0,0,1,79,289.86v12.86A3.21,3.21,0,0,1,75.78,305.93ZM64.09,289.09a.77.77,0,0,0-.77.77v12.86a.77.77,0,0,0,.77.76H75.78a.77.77,0,0,0,.77-.76V289.86a.77.77,0,0,0-.77-.77Z"/><rect class="cls-11" x="82.89" y="287.87" width="15.67" height="16.84" rx="1.91"/><path class="cls-10" d="M96.57,305.93H84.88a3.21,3.21,0,0,1-3.21-3.21V289.86a3.21,3.21,0,0,1,3.21-3.21H96.57a3.21,3.21,0,0,1,3.21,3.21v12.86A3.21,3.21,0,0,1,96.57,305.93ZM84.88,289.09a.77.77,0,0,0-.77.77v12.86a.77.77,0,0,0,.77.76H96.57a.77.77,0,0,0,.77-.76V289.86a.77.77,0,0,0-.77-.77Z"/><path class="cls-13" d="M109.46,294.49h-3.7V311h3.7a2.71,2.71,0,0,0,2.71-2.71V297.21A2.71,2.71,0,0,0,109.46,294.49Z"/><path class="cls-10" d="M109.46,312.26h-4.92v-19h4.92a3.94,3.94,0,0,1,3.93,3.94v11.12A3.93,3.93,0,0,1,109.46,312.26ZM107,309.82h2.48a1.49,1.49,0,0,0,1.49-1.49V297.21a1.5,1.5,0,0,0-1.49-1.5H107Z"/><path class="cls-18" d="M102.41,278.89H65.05A202.1,202.1,0,0,1,35,276.64h0A1.84,1.84,0,0,1,35,273h0a203.45,203.45,0,0,1,30.1-2.25h37.36a4.07,4.07,0,0,1,4.07,4.07h0A4.07,4.07,0,0,1,102.41,278.89Z"/><path class="cls-10" d="M102.41,280.11H65.05a204.62,204.62,0,0,1-30.28-2.26,3.06,3.06,0,0,1,0-6.05,204.63,204.63,0,0,1,30.28-2.27h37.36a5.29,5.29,0,0,1,0,10.58ZM65.05,272a202.46,202.46,0,0,0-29.92,2.23.62.62,0,0,0,0,1.23,202.46,202.46,0,0,0,29.92,2.23h37.36a2.85,2.85,0,1,0,0-5.69Z"/><path class="cls-14" d="M96.15,274.19h0A1.22,1.22,0,0,1,97.37,273h4.82a1.23,1.23,0,0,1,1.22,1.23h0a1.22,1.22,0,0,1-1.22,1.22H97.37A1.22,1.22,0,0,1,96.15,274.19Z"/><path class="cls-14" d="M66.3,291.3h0a1.22,1.22,0,0,1,1.22-1.22h4.83a1.22,1.22,0,0,1,1.22,1.22h0a1.22,1.22,0,0,1-1.22,1.22H67.52A1.22,1.22,0,0,1,66.3,291.3Z"/><path class="cls-14" d="M73.57,309.13h0a1.22,1.22,0,0,1,1.22-1.22h4.82a1.22,1.22,0,0,1,1.22,1.22h0a1.22,1.22,0,0,1-1.22,1.22H74.79A1.21,1.21,0,0,1,73.57,309.13Z"/><path class="cls-14" d="M53.6,309.13h0a1.22,1.22,0,0,1,1.22-1.22H70.63a1.22,1.22,0,0,1,1.22,1.22h0a1.22,1.22,0,0,1-1.22,1.22H54.82A1.22,1.22,0,0,1,53.6,309.13Z"/><path class="cls-14" d="M87.09,291.3h0a1.22,1.22,0,0,1,1.22-1.22h4.83a1.22,1.22,0,0,1,1.22,1.22h0a1.22,1.22,0,0,1-1.22,1.22H88.31A1.22,1.22,0,0,1,87.09,291.3Z"/><path class="cls-14" d="M46.48,291.3h0a1.22,1.22,0,0,1,1.22-1.22h4.83a1.22,1.22,0,0,1,1.22,1.22h0a1.22,1.22,0,0,1-1.22,1.22H47.7A1.22,1.22,0,0,1,46.48,291.3Z"/><path class="cls-14" d="M21.21,312h0a1.21,1.21,0,0,1,.51-1.65L26,308.15a1.22,1.22,0,0,1,1.65.52h0a1.22,1.22,0,0,1-.51,1.64l-4.28,2.24A1.2,1.2,0,0,1,21.21,312Z"/><path class="cls-14" d="M71.41,274.19h0A1.22,1.22,0,0,1,72.63,273H93.14a1.23,1.23,0,0,1,1.22,1.23h0a1.22,1.22,0,0,1-1.22,1.22H72.63A1.22,1.22,0,0,1,71.41,274.19Z"/><path class="cls-8" d="M110.15,569.57a5.5,5.5,0,0,0-.94-3.15,4.63,4.63,0,0,0-.67-1L93.93,542.64c-2.71-4.22-5.45-8.88-11.05-8.29,3.34-6.89,5.48-14,2.9-22.2A27.45,27.45,0,0,0,32.6,525.47c.8,4.23,2.8,8.1,4.95,11.86L31,539.55c-7-2.63-17.86-7.74-21.51,1.52-1.56,3.95.14,7.15,2.2,10.35l6.55,10.2,6.84,10.65c1.85,2.87,3.43,5.31,6.83,6.63,5.44,2.1,11.42,4.57,17.12,5.76,3,.64,1.25.21.51.1a8.79,8.79,0,0,0,3.54-.08c.31-.07.61-.22.91-.31,1.89-.54,3.74-1.27,5.6-1.9l9.24-3.15L79,582.77a28.68,28.68,0,0,0,5,1.71c.9.13-1.29-.51-1.14-.5s1.82.48,2.75.72a29.49,29.49,0,0,0,3.33-.07c4.13-1,8.21-2.8,12.24-4.18a24.58,24.58,0,0,0,5.15-2A8.37,8.37,0,0,0,110.15,569.57Z"/><path class="cls-18" d="M50.57,577.92l-16.76-5.71a1.91,1.91,0,0,1-1-.77L16.09,545.37a1.89,1.89,0,0,1,2.2-2.81L31,546.89l19.77,30.78A.17.17,0,0,1,50.57,577.92Z"/><path class="cls-10" d="M50.63,579a1.18,1.18,0,0,1-.41-.07h0l-16.76-5.71A3,3,0,0,1,31.91,572L15.17,546a2.93,2.93,0,0,1,.16-3.45,3,3,0,0,1,3.31-1L31.71,546l.21.32,19.77,30.78a1.26,1.26,0,0,1-.07,1.46A1.25,1.25,0,0,1,50.63,579Zm-33-35.47a.76.76,0,0,0-.61.31.77.77,0,0,0,0,.92l16.74,26.07a.86.86,0,0,0,.42.33L48.42,576,30.28,547.8l-12.35-4.21A.88.88,0,0,0,17.66,543.55Z"/><path class="cls-18" d="M86.19,577.9,68.87,572l-19.7-30.67a.22.22,0,0,1,.25-.32l17.26,5.88,19.73,30.73A.19.19,0,0,1,86.19,577.9Z"/><path class="cls-11" d="M78.8,565.76,72,555.25c-1.41-1.18-2.45-2.13-2.79-2.46a5,5,0,0,0-4.38-.27A1.77,1.77,0,0,0,64,554.1a5.44,5.44,0,0,1-3.39,5l4.07,6.34a5.18,5.18,0,0,1,4-4C71.2,561.05,75.91,563.84,78.8,565.76Z"/><path class="cls-10" d="M86.25,579a1.22,1.22,0,0,1-.41-.07h0l-17.69-6-.2-.32-19.7-30.67A1.3,1.3,0,0,1,49.77,540l17.62,6,.2.32L87.33,577a1.27,1.27,0,0,1-1.08,2Zm-.76-.79h0Zm1.05-1.35h0Zm-17-5.77L84.09,576,66,547.8l-14.51-4.94Z"/><path class="cls-18" d="M51.22,578l17.65-6L48.93,541a.21.21,0,0,0-.25-.08l-17.68,6,19.92,31A.27.27,0,0,0,51.22,578Z"/><path class="cls-11" d="M60.59,559.11l-.29.11-.46.14-.42-.25a12.79,12.79,0,0,0-1.32-.64A21.83,21.83,0,0,1,51,553.78a6.23,6.23,0,0,0-7-.86c-.5.29-.82.65-.76.86a4.39,4.39,0,0,1,0,2.1c1.71.65,5,2.25,6.83,5.26s10,5.61,14.47,4.76c0-.14.07-.29.11-.45Z"/><path class="cls-10" d="M51.13,579.12A1.35,1.35,0,0,1,50,578.5L29.32,546.3l19-6.47a1.32,1.32,0,0,1,1.53.54l20.69,32.21-19,6.46A1.36,1.36,0,0,1,51.13,579.12Zm.71-1.81h0Zm-1-.34h0Zm-18.19-29.5,18.82,29.29,15.7-5.35L48.38,542.12ZM48,541.55Z"/><path class="cls-18" d="M87,578l15.31-5.21a1.9,1.9,0,0,0,1-2.82l-17.93-27.9a1.89,1.89,0,0,0-2.2-.77l-16.43,5.6,19.88,31A.34.34,0,0,0,87,578Z"/><path class="cls-11" d="M78.8,565.76c.76.51,1.4,1,1.83,1.27a3.85,3.85,0,0,0,1.67-1.67c.83-1.37,0-3.24-.35-4-3.4-1.09-7.3-4-9.91-6.13Z"/><path class="cls-10" d="M86.85,579.1a1.43,1.43,0,0,1-1.2-.65L65,546.3l17.76-6a3,3,0,0,1,3.47,1.21l17.93,27.9a3,3,0,0,1-1.55,4.44L87.3,579A1.42,1.42,0,0,1,86.85,579.1Zm-18.5-31.63,18.81,29.29,14.75-5a.77.77,0,0,0,.49-.49.8.8,0,0,0-.08-.7l-17.93-27.9a.78.78,0,0,0-.92-.33Z"/><path class="cls-10" d="M94.91,556.42,93.26,555c-.05,0-4.43,5-9.17,4.62-4.1-.33-11.09-6.25-13.45-8.51l-.1-.1-.13-.07a7.16,7.16,0,0,0-6.63-.31,3.93,3.93,0,0,0-2,3.41A3.27,3.27,0,0,1,60.05,557c-.32-.16-.67-.31-1.06-.49a19.36,19.36,0,0,1-6.44-4.24,8.42,8.42,0,0,0-9.61-1.2c-1.45.83-2.11,2.07-1.78,3.31s-1,3.4-2.08,4.72a13,13,0,0,1-4.79-1.28,16.82,16.82,0,0,1-3.55-3.61,44.22,44.22,0,0,0-4.63-4.95,8.32,8.32,0,0,0-8.56-1.92l.85,2a6.23,6.23,0,0,1,6.27,1.55,42,42,0,0,1,4.39,4.72,17.78,17.78,0,0,0,4.15,4.09,15.88,15.88,0,0,0,6.29,1.61l.5,0,.35-.37a15.54,15.54,0,0,0,2.11-3c1.44.55,4.3,1.9,5.73,4.33a8.34,8.34,0,0,0,2.72,2.61c-.29,1.38-1.26,4.55-4.37,4.95-2.63-.75-7.7-.95-9.51,3.42l2,.84c1.57-3.77,6.84-2.17,7.07-2.11l.2.07.22,0c3.88-.34,5.71-3.55,6.38-6,4,1.89,9.41,2.78,12.64,1.95,1.42.35,8.64,2.36,12,7.93l1.86-1.13c-3.46-5.67-10.1-8-12.67-8.74a3,3,0,0,1,2.28-2.33c1.84-.32,7.33,3,10.64,5.41l.26.18.31,0h.1c.47,0,2.23-.19,3.8-2.78a5.61,5.61,0,0,0,.31-4.67h.15C90.18,561.82,94.71,556.65,94.91,556.42ZM82.3,565.36A3.85,3.85,0,0,1,80.63,567c-2.07-1.49-8.77-6.09-11.95-5.53a5.29,5.29,0,0,0-4.13,4.4c-4.45.85-12.72-1.79-14.47-4.76s-5.12-4.61-6.83-5.26a4.39,4.39,0,0,0,0-2.1c-.06-.21.26-.57.76-.86a6.23,6.23,0,0,1,7,.86,21.83,21.83,0,0,0,7.09,4.69,12.79,12.79,0,0,1,1.32.64l.42.25.46-.14A5.47,5.47,0,0,0,64,554.1a1.77,1.77,0,0,1,.89-1.58,5,5,0,0,1,4.38.27c1,.93,7.46,6.91,12.7,8.59C82.33,562.12,83.13,564,82.3,565.36Z"/><path class="cls-17" d="M77.32,530.4a20.51,20.51,0,1,0-35.62,0c3.09,5.4,6.13,10.83,8.84,16.43l3.84,7.94a5.72,5.72,0,0,0,10.3,0l4.63-9.56C71.75,540.12,74.53,535.25,77.32,530.4Z"/><path class="cls-10" d="M59.53,559h0a6.77,6.77,0,0,1-6.13-3.84l-3.84-8c-2.79-5.76-6-11.46-8.81-16.36a21.6,21.6,0,1,1,37.52.05h0c-3,5.17-5.62,9.84-8,14.69l-4.63,9.57A6.77,6.77,0,0,1,59.53,559Zm0-58.27A19.23,19.23,0,0,0,46.27,506a19.42,19.42,0,0,0-3.62,23.82c2.82,4.93,6.06,10.67,8.87,16.49l3.85,8a4.63,4.63,0,0,0,8.33,0l4.63-9.57c2.38-4.92,5-9.63,8-14.83a19.43,19.43,0,0,0-15.47-29C60.43,500.78,60,500.77,59.51,500.77Z"/><circle class="cls-15" cx="59.52" cy="520.19" r="11.39" transform="translate(-192.86 61.45) rotate(-22.29)"/><path class="cls-10" d="M59.52,532.68A12.49,12.49,0,1,1,72,520.19,12.5,12.5,0,0,1,59.52,532.68Zm0-22.8a10.31,10.31,0,1,0,10.31,10.31A10.32,10.32,0,0,0,59.52,509.88Z"/><path class="cls-14" d="M67.88,504.48a17.75,17.75,0,0,0-5.83-1.9,1.17,1.17,0,0,0-1.34,1.08,1.14,1.14,0,0,0,1,1.23,15.59,15.59,0,0,1,5.1,1.66,1.16,1.16,0,0,0,1.53-.41h0A1.18,1.18,0,0,0,67.88,504.48Z"/><path class="cls-14" d="M57.83,503.7a1.17,1.17,0,0,0-1.38-1,17.71,17.71,0,0,0-14.67,16.25A1.19,1.19,0,0,0,43,520.19h0a1.16,1.16,0,0,0,1.16-1.08A15.39,15.39,0,0,1,56.88,505a1.17,1.17,0,0,0,.95-1.27Z"/><path class="cls-14" d="M67.49,540.1h0a1.18,1.18,0,0,0-1.58.5l-.64,1.29a1.17,1.17,0,0,0,.54,1.57h0a1.18,1.18,0,0,0,1.56-.53c.2-.43.41-.84.63-1.26A1.16,1.16,0,0,0,67.49,540.1Z"/><path class="cls-14" d="M76.06,519.2A1.15,1.15,0,0,0,75,520.33a15.52,15.52,0,0,1-2,7.54c-1.21,2.09-2.58,4.48-3.89,6.85a1.17,1.17,0,0,0,.47,1.59h0a1.17,1.17,0,0,0,1.58-.46c1.3-2.35,2.67-4.73,3.86-6.82a17.63,17.63,0,0,0,2.36-8.63A1.18,1.18,0,0,0,76.06,519.2Z"/><path class="cls-19" d="M94.84,388.47a6.19,6.19,0,0,0-.88-.06H86c-1.76-3.41-3.7-7.11-6.59-9.19-4.38-3.13-10.94-2.1-16.05-2.1s-11.69-1-16,2.1A18.16,18.16,0,0,0,42.58,385a26.15,26.15,0,0,0-6.37-.37c-5,0-9.29,1.51-11.24,5.3-9,3.42-14.15,12.22-14.2,22,0,7.71,0,15.42,0,23.12,0,8.84.81,17.19,8.38,23.16,5.77,4.56,12.26,4.81,19.18,4.81h47.5c5.84,0,11.71.45,17.19-2,9.5-4.25,13-13.38,13-23.13V412.3C116,399.61,107.72,389.4,94.84,388.47Z"/><path class="cls-13" d="M33.15,392.43h7a1.51,1.51,0,0,1,1.51,1.51v3.8a0,0,0,0,1,0,0h-10a0,0,0,0,1,0,0v-3.8A1.51,1.51,0,0,1,33.15,392.43Z"/><path class="cls-10" d="M42.87,399H30.4v-5a2.75,2.75,0,0,1,2.75-2.74h7a2.74,2.74,0,0,1,2.74,2.74Zm-10-2.46h7.54v-2.57a.29.29,0,0,0-.28-.28h-7a.28.28,0,0,0-.28.28Z"/><path class="cls-17" d="M81.74,396.9H45l6.06-10.51a2.89,2.89,0,0,1,2.5-1.45H73.18a2.89,2.89,0,0,1,2.5,1.45Z"/><path class="cls-10" d="M83.87,398.14h-41L50,385.78a4.12,4.12,0,0,1,3.57-2.07H73.18a4.12,4.12,0,0,1,3.57,2.07Zm-36.74-2.47H79.61l-5-8.66a1.64,1.64,0,0,0-1.43-.84H53.56a1.67,1.67,0,0,0-1.44.84Z"/><rect class="cls-12" x="18.59" y="396.24" width="89.56" height="58.91" rx="14.19"/><path class="cls-10" d="M94,456.38H32.78A15.44,15.44,0,0,1,17.36,441V410.43A15.44,15.44,0,0,1,32.78,395H94a15.44,15.44,0,0,1,15.42,15.43V441A15.44,15.44,0,0,1,94,456.38ZM32.78,397.47a13,13,0,0,0-13,13V441a13,13,0,0,0,13,13H94a13,13,0,0,0,13-13V410.43a13,13,0,0,0-13-13Z"/><circle class="cls-11" cx="63.37" cy="425.69" r="22.55" transform="translate(-366.94 418.12) rotate(-80.52)"/><path class="cls-10" d="M63.37,449.47a23.78,23.78,0,1,1,23.78-23.78A23.81,23.81,0,0,1,63.37,449.47Zm0-45.1a21.32,21.32,0,1,0,21.32,21.32A21.34,21.34,0,0,0,63.37,404.37Z"/><circle class="cls-9" cx="63.37" cy="425.69" r="14.37" transform="translate(-271.23 155.01) rotate(-42.56)"/><path class="cls-10" d="M63.37,441.29A15.6,15.6,0,1,1,79,425.69,15.62,15.62,0,0,1,63.37,441.29Zm0-28.74a13.14,13.14,0,1,0,13.14,13.14A13.16,13.16,0,0,0,63.37,412.55Z"/><rect class="cls-15" x="83.42" y="400.89" width="15.93" height="7.27" rx="2.37"/><path class="cls-10" d="M97,409.39H85.78a3.6,3.6,0,0,1-3.6-3.59v-2.54a3.6,3.6,0,0,1,3.6-3.6H97a3.6,3.6,0,0,1,3.59,3.6v2.54A3.59,3.59,0,0,1,97,409.39Zm-11.2-7.27a1.14,1.14,0,0,0-1.13,1.14v2.54a1.14,1.14,0,0,0,1.13,1.13H97a1.14,1.14,0,0,0,1.13-1.13v-2.54A1.14,1.14,0,0,0,97,402.12Z"/><path class="cls-9" d="M69,392.93H57.77a2.37,2.37,0,0,1-2.36-2.37h0a2.36,2.36,0,0,1,2.36-2.36H69a2.36,2.36,0,0,1,2.36,2.36h0A2.37,2.37,0,0,1,69,392.93Z"/><path class="cls-10" d="M69,394.16H57.77a3.6,3.6,0,1,1,0-7.19H69a3.6,3.6,0,1,1,0,7.19Zm-11.2-4.73a1.14,1.14,0,0,0,0,2.27H69a1.14,1.14,0,0,0,0-2.27Z"/><circle class="cls-18" cx="40.82" cy="404.53" r="4.2"/><path class="cls-10" d="M40.82,410a5.43,5.43,0,1,1,5.43-5.43A5.44,5.44,0,0,1,40.82,410Zm0-8.4a3,3,0,1,0,3,3A3,3,0,0,0,40.82,401.56Z"/><path class="cls-14" d="M24.15,444h0a1.24,1.24,0,0,1-1.24-1.23V426.92a1.24,1.24,0,0,1,1.24-1.23h0a1.23,1.23,0,0,1,1.23,1.23V442.8A1.23,1.23,0,0,1,24.15,444Z"/><path class="cls-14" d="M24.15,421.11h0a1.24,1.24,0,0,1-1.24-1.23v-7.33a1.24,1.24,0,0,1,1.24-1.23h0a1.23,1.23,0,0,1,1.23,1.23v7.33A1.23,1.23,0,0,1,24.15,421.11Z"/><rect class="cls-2" width="400" height="600"/></g></g></svg>