<svg xmlns="http://www.w3.org/2000/svg" viewBox="0 0 139.19 221.39"><defs><style>.cls-1{isolation:isolate;}.cls-2{fill:#db2823;}.cls-3{fill:#3c3c3b;}.cls-4{fill:#e6332a;}.cls-5{fill:#f9b233;}.cls-6{fill:#ffde00;}.cls-6,.cls-7{mix-blend-mode:multiply;}.cls-7{fill:#be1521;opacity:0.51;}</style></defs><g class="cls-1"><g id="图层_2" data-name="图层 2"><g id="Layer_1" data-name="Layer 1"><ellipse class="cls-2" cx="69.59" cy="91.56" rx="67.79" ry="56.71"/><path class="cls-3" d="M69.59,34.85c37.45,0,67.8,25.39,67.8,56.71S107,148.27,69.59,148.27,1.8,122.88,1.8,91.56,32.15,34.85,69.59,34.85m0-1.8a80.55,80.55,0,0,0-27,4.56A71.09,71.09,0,0,0,20.5,50.08a59,59,0,0,0-15,18.59,50.2,50.2,0,0,0,0,45.77,59,59,0,0,0,15,18.6,71.29,71.29,0,0,0,22.11,12.47,82.13,82.13,0,0,0,54,0A71.29,71.29,0,0,0,118.69,133a59,59,0,0,0,15-18.6,50.2,50.2,0,0,0,0-45.77,59,59,0,0,0-15-18.59A71.09,71.09,0,0,0,96.58,37.61a80.56,80.56,0,0,0-27-4.56Z"/><path class="cls-4" d="M69.59,34.85c26.68,0,48.31,25.39,48.31,56.71s-21.63,56.71-48.31,56.71c37.45,0,67.8-25.39,67.8-56.71S107,34.85,69.59,34.85Z"/><path class="cls-5" d="M85.29,216.37,75.05,180.5H64.14L53.9,216.37a.67.67,0,0,0-.08.3c0,1.14,3.51,2.12,8.63,2.6l2.35-11,.72,11.19c1.3.06,2.67.1,4.07.1,8.72,0,15.78-1.31,15.78-2.92A.67.67,0,0,0,85.29,216.37Z"/><path class="cls-3" d="M75.05,180.5l10.24,35.87a.67.67,0,0,1,.08.3c0,1.61-7.06,2.92-15.78,2.92-1.4,0-2.77,0-4.07-.1L64.8,208.3l-2.35,11c-5.12-.48-8.63-1.46-8.63-2.6a.67.67,0,0,1,.08-.3L64.14,180.5H75.05m0-1.8H64.14A1.8,1.8,0,0,0,62.4,180L52.21,215.73a2.36,2.36,0,0,0-.19.94c0,2.19,2.67,3,3.68,3.28a36.91,36.91,0,0,0,6.58,1.11h.17a1.79,1.79,0,0,0,1.47-.76,1.79,1.79,0,0,0,1.51,1c1.36.06,2.76.1,4.16.1a67.5,67.5,0,0,0,11.49-.88,18.47,18.47,0,0,0,3.77-1c1.54-.67,2.32-1.61,2.32-2.79a2.36,2.36,0,0,0-.19-.94L76.79,180a1.8,1.8,0,0,0-1.74-1.3Z"/><rect class="cls-3" x="67.91" y="152.28" width="3.38" height="20.97"/><path class="cls-5" d="M75.05,173.25a5.46,5.46,0,1,1-5.46-5.46A5.46,5.46,0,0,1,75.05,173.25Z"/><path class="cls-3" d="M69.59,167.79a5.46,5.46,0,1,1-5.45,5.46,5.45,5.45,0,0,1,5.45-5.46m0-1.8a7.26,7.26,0,1,0,7.27,7.26A7.27,7.27,0,0,0,69.59,166Z"/><rect class="cls-5" x="64.14" y="173.25" width="10.92" height="7.25"/><path class="cls-3" d="M75.05,173.25v7.25H64.14v-7.25H75.05m0-1.8H64.14a1.8,1.8,0,0,0-1.81,1.8v7.25a1.81,1.81,0,0,0,1.81,1.8H75.05a1.81,1.81,0,0,0,1.81-1.8v-7.25a1.8,1.8,0,0,0-1.81-1.8Z"/><path class="cls-6" d="M64.14,180.5,53.9,216.37a.67.67,0,0,0-.08.3c0,1.14,3.51,2.12,8.63,2.6h0l1.69-6.15.07.32L68,180.5v-7.25H64.14Z"/><path class="cls-3" d="M72.65,33.87l-3-1.56c2.73-5.24,9-20.16,5.29-26.22-1.11-1.82-3.12-2.71-6.14-2.71h0c-2.28,0-3.83.72-4.75,2.18-1.71,2.73-1.4,8.31.85,15.72a89.29,89.29,0,0,0,4.27,11.08l-3,1.47a89.67,89.67,0,0,1-4.45-11.52C59,13.68,58.83,7.44,61.14,3.76,62.21,2.05,64.4,0,68.74,0s7.33,1.45,9.09,4.34c2.34,3.84,2.15,10-.58,18.41A79.57,79.57,0,0,1,72.65,33.87Z"/><path class="cls-7" d="M26.33,88.17c0-21.45,11.27-40.42,28.54-52C24.51,41.82,1.8,64.47,1.8,91.56c0,31.32,30.35,56.71,67.79,56.71.62,0,1.24,0,1.85,0C45.16,139.47,26.33,115.89,26.33,88.17Z"/><path class="cls-3" d="M69.59,34.85c26.68,0,48.31,25.39,48.31,56.71s-21.63,56.71-48.31,56.71-48.3-25.39-48.3-56.71,21.63-56.71,48.3-56.71m0-1.8A43.75,43.75,0,0,0,50,37.69a50.4,50.4,0,0,0-15.93,12.6A59.63,59.63,0,0,0,23.39,68.87a67.76,67.76,0,0,0,0,45.37,59.79,59.79,0,0,0,10.67,18.59A50.37,50.37,0,0,0,50,145.42a43.65,43.65,0,0,0,39.21,0,50.37,50.37,0,0,0,15.93-12.59,59.79,59.79,0,0,0,10.67-18.59,67.93,67.93,0,0,0,0-45.37,59.63,59.63,0,0,0-10.67-18.58A50.4,50.4,0,0,0,89.2,37.69a43.76,43.76,0,0,0-19.61-4.64Z"/><path class="cls-3" d="M69.59,34.85c10.09,0,18.27,25.39,18.27,56.71s-8.18,56.71-18.27,56.71S51.33,122.88,51.33,91.56s8.18-56.71,18.26-56.71m0-1.8c-3,0-5.93,1.73-8.54,5.16A42.83,42.83,0,0,0,55,50.91c-3.5,10.88-5.43,25.32-5.43,40.65s1.93,29.76,5.43,40.65a42.89,42.89,0,0,0,6.09,12.69c2.61,3.43,5.49,5.17,8.54,5.17s5.94-1.74,8.55-5.17a42.89,42.89,0,0,0,6.09-12.69c3.5-10.89,5.43-25.32,5.43-40.65s-1.93-29.77-5.43-40.65a42.83,42.83,0,0,0-6.09-12.7c-2.61-3.43-5.49-5.16-8.55-5.16Z"/><rect class="cls-5" x="45.06" y="26.3" width="49.06" height="11.01"/><path class="cls-3" d="M94.13,26.3v11H45.06v-11H94.13m0-1.8H45.06a1.81,1.81,0,0,0-1.8,1.8v11a1.81,1.81,0,0,0,1.8,1.8H94.13a1.81,1.81,0,0,0,1.8-1.8v-11a1.81,1.81,0,0,0-1.8-1.8Z"/><rect class="cls-5" x="45.06" y="145.87" width="49.06" height="11.01"/><path class="cls-3" d="M94.13,145.87v11H45.06v-11H94.13m0-1.8H45.06a1.81,1.81,0,0,0-1.8,1.8v11a1.81,1.81,0,0,0,1.8,1.8H94.13a1.81,1.81,0,0,0,1.8-1.8v-11a1.81,1.81,0,0,0-1.8-1.8Z"/><polyline class="cls-5" points="64.14 214.91 68.03 180.5 68.03 176.87"/><path class="cls-3" d="M64.14,215.82H64a.9.9,0,0,1-.79-1l3.89-34.36v-3.58a.9.9,0,0,1,1.8,0v3.73L65,215A.9.9,0,0,1,64.14,215.82Z"/><line class="cls-5" x1="72.03" y1="181.4" x2="73.39" y2="194.2"/><path class="cls-3" d="M73.39,195.1a.9.9,0,0,1-.9-.81l-1.36-12.8a.91.91,0,0,1,1.8-.19l1.35,12.8a.89.89,0,0,1-.8,1Z"/><line class="cls-5" x1="75.05" y1="202.59" x2="77.37" y2="217.6"/><path class="cls-3" d="M77.37,218.5a.91.91,0,0,1-.89-.76l-2.32-15a.91.91,0,0,1,1.79-.27l2.31,15a.89.89,0,0,1-.75,1Z"/><path class="cls-6" d="M62,145.87s-1,8.66,7.62,11H45.06v-11Z"/><path class="cls-6" d="M55.48,37.31s-5-6.32,3.19-11H45.06v11Z"/><path class="cls-4" d="M90.82,71.27a54.47,54.47,0,0,1,2,5.76,9.72,9.72,0,0,0,3.75,5.32c1.9,1.13,4.74.9,5.91-1a5.93,5.93,0,0,0,.49-4c-1-7.08-6.32-20.87-13.56-21.71s.14,13.23,1.15,15.1C90.66,71,90.74,71.11,90.82,71.27Z"/><path class="cls-4" d="M63.67,106.75c.43,5.29,1.13,10.67,3.45,15.45.61,1.26,1.49,2.59,2.87,2.85,2.41.45,3.93-2.47,4.54-4.84a113.52,113.52,0,0,0,.23-54.8,18.13,18.13,0,0,0-3-7.2c-3.26-4.06-5.9,10.86-6.31,12.93A133.72,133.72,0,0,0,63.67,106.75Z"/></g></g></g></svg>